SplineFontDB: 3.0
FontName: KAN-KaveriItalic
FullName: KAN Kaveri Italic
FamilyName: KAN Kaveri
Weight: Book
Copyright: Copyright (c) 2009-2015, NLCI (http://www.nlci.in/fonts/)
Version: 1.0 Wed May 17 15:42:18 1995
ItalicAngle: 12
UnderlinePosition: -593
UnderlineWidth: 40
Ascent: 1638
Descent: 410
InvalidEm: 0
LayerCount: 2
Layer: 0 0 "Back" 1
Layer: 1 0 "Fore" 0
XUID: [1021 297 2115494286 1251845]
FSType: 0
OS2Version: 0
OS2_WeightWidthSlopeOnly: 0
OS2_UseTypoMetrics: 1
CreationTime: 1250825687
ModificationTime: 1523585993
PfmFamily: 81
TTFWeight: 400
TTFWidth: 5
LineGap: 0
VLineGap: 0
Panose: 5 0 0 0 0 0 0 0 0 0
OS2TypoAscent: -147
OS2TypoAOffset: 1
OS2TypoDescent: -401
OS2TypoDOffset: 1
OS2TypoLinegap: 0
OS2WinAscent: -483
OS2WinAOffset: 1
OS2WinDescent: -211
OS2WinDOffset: 1
HheadAscent: -483
HheadAOffset: 1
HheadDescent: 211
HheadDOffset: 1
OS2SubXSize: 1434
OS2SubYSize: 1331
OS2SubXOff: 0
OS2SubYOff: 293
OS2SupXSize: 1434
OS2SupYSize: 1331
OS2SupXOff: 0
OS2SupYOff: 928
OS2StrikeYSize: 102
OS2StrikeYPos: 530
OS2Vendor: 'Alts'
OS2UnicodeRanges: 00000000.00000000.00000000.00000000
Lookup: 262 0 0 "blwm" { "blwm-2sub"  } []
MarkAttachClasses: 1
DEI: 91125
TtTable: prep
NPUSHB
 1
 1
SCANTYPE
PUSHW_1
 511
SCANCTRL
EndTTInstrs
ShortTable: maxp 16
  1
  0
  319
  202
  5
  175
  6
  2
  8
  64
  10
  0
  3
  557
  4
  2
EndShort
LangName: 1033 "" "" "Italic" "NLCI:KAN Kaveri Italic" "" "1.0 Wed May 17 15:42:18 1995"
Encoding: Original
UnicodeInterp: none
NameList: Adobe Glyph List
DisplaySize: -48
AntiAlias: 1
FitToEm: 1
BeginPrivate: 0
EndPrivate
AnchorClass2: "Sub" "blwm-2sub" "Nukta"""  "s"""  "V""" 
BeginChars: 608 608

StartChar: .notdef
Encoding: 0 -1 0
Width: 1024
Flags: HW
LayerCount: 2
Fore
SplineSet
63 0 m 1
 63 1237 l 1
 961 1237 l 1
 961 0 l 1
 63 0 l 1
897 63 m 1
 897 1174 l 1
 127 1174 l 1
 127 63 l 1
 897 63 l 1
EndSplineSet
EndChar

StartChar: exclam
Encoding: 4 33 4
Width: 552
VWidth: 1024
Flags: HW
LayerCount: 2
Fore
SplineSet
175 6 m 0
 169 11.3330078125 166 19 166 29 c 0
 166 35 l 0
 199 229 l 0
 201.666992188 255 216.666992188 268 244 268 c 0
 389 268 l 0
 411 268 422 258.666992188 422 240 c 0
 422 229 l 0
 391 35 l 0
 387 10.3330078125 372 -2 346 -2 c 0
 201 -2 l 0
 189.666992188 -2 181 0.6669921875 175 6 c 0
387 1509 m 0
 641 1509 l 0
 430 414 l 0
 244 414 l 0
 387 1509 l 0
EndSplineSet
EndChar

StartChar: quotedbl
Encoding: 5 34 5
Width: 735
VWidth: 1024
Flags: HW
LayerCount: 2
Fore
SplineSet
788 1417 m 0
 788 1409.66666667 784.333333333 1393 777 1367 c 0
 769 1341 759 1309.33333333 747 1272 c 0
 735 1235.33333333 722 1196.66666667 708 1156 c 0
 694 1114.66666667 680.333333333 1075.33333333 667 1038 c 0
 653.666666667 1001.33333333 642 969 632 941 c 0
 617 899 617 899 612 885 c 0
 545 885 l 0
 570 1353 l 0
 571.333333333 1374.33333333 574.666666667 1393.66666667 580 1411 c 0
 585.333333333 1428.33333333 593 1443.33333333 603 1456 c 0
 613 1468.66666667 625.666666667 1478.66666667 641 1486 c 0
 657 1493.33333333 676.666666667 1497 700 1497 c 0
 725.333333333 1497 746.333333333 1490.33333333 763 1477 c 0
 779.666666667 1463 788 1443 788 1417 c 0
451 1417 m 0
 451 1409.66666667 447 1393 439 1367 c 0
 431.666666667 1341 422 1309.33333333 410 1272 c 0
 398 1235.33333333 385 1196.66666667 371 1156 c 0
 357 1114.66666667 343.666666667 1075.33333333 331 1038 c 0
 318.333333333 1001.33333333 307 969 297 941 c 0
 287 913 280 894.333333333 276 885 c 0
 210 885 l 0
 237 1353 l 0
 238.333333333 1374.33333333 241.333333333 1393.66666667 246 1411 c 0
 250.666666667 1428.33333333 257.666666667 1443.33333333 267 1456 c 0
 276.333333333 1468.66666667 289 1478.66666667 305 1486 c 0
 321 1493.33333333 341 1497 365 1497 c 0
 389 1497 409 1490.33333333 425 1477 c 0
 442.333333333 1463 451 1443 451 1417 c 0
EndSplineSet
Refer: 10 39 N 1 0 0 1 332 0 2
Refer: 10 39 N 1 0 0 1 0 0 2
EndChar

StartChar: numbersign
Encoding: 6 35 6
Width: 1454
VWidth: 1024
Flags: HW
LayerCount: 2
Fore
SplineSet
924 608 m 0
 1016 887 l 0
 745 887 l 0
 655 608 l 0
 924 608 l 0
426 440 m 0
 106 440 l 0
 158 608 l 0
 485 608 l 0
 578 887 l 0
 246 887 l 0
 301 1055 l 0
 637 1055 l 0
 786 1499 l 0
 954 1499 l 0
 805 1055 l 0
 1069 1055 l 0
 1217 1499 l 0
 1384 1499 l 0
 1237 1055 l 0
 1589 1055 l 0
 1538 887 l 0
 1184 887 l 0
 1094 608 l 0
 1446 608 l 0
 1395 440 l 0
 1028 440 l 0
 883 0 l 0
 713 0 l 0
 860 440 l 0
 596 440 l 0
 449 0 l 0
 281 0 l 0
 426 440 l 0
EndSplineSet
EndChar

StartChar: dollar
Encoding: 7 36 7
Width: 1247
VWidth: 1024
Flags: HW
LayerCount: 2
Fore
SplineSet
518 1047 m 0
 514 1029 512 1011.66699219 512 995 c 0
 512 951 524.333007812 919.833007812 549 901.5 c 0
 573.666992188 883.166992188 613.333007812 874 668 874 c 0
 817 874 l 0
 937 874 1028.5 847.166992188 1091.5 793.5 c 0
 1154.5 739.833007812 1186 665.666992188 1186 571 c 0
 1186 545 1184 517.666992188 1180 489 c 0
 1157 348 l 0
 1139 226.666992188 1092.5 138 1017.5 82 c 0
 942.5 26 831.333007812 -4.6669921875 684 -10 c 0
 655 -182 l 0
 512 -182 l 0
 539 -10 l 0
 379 -6 243.666992188 8.3330078125 133 33 c 0
 164 231 l 0
 292.666992188 220.333007812 445 215 621 215 c 0
 717.666992188 215 789.5 227.666992188 836.5 253 c 0
 883.5 278.333007812 912.666992188 325 924 393 c 0
 934 463 l 0
 936.666992188 473.666992188 938 489.333007812 938 510 c 0
 938 554 923.333007812 585.5 894 604.5 c 0
 864.666992188 623.5 817.333007812 633 752 633 c 0
 608 633 l 0
 498.666992188 633 414 659.666992188 354 713 c 0
 294 766.333007812 264 840 264 934 c 0
 264 961.333007812 266 989.333007812 270 1018 c 0
 291 1143 l 0
 313 1279.66699219 365.5 1376.66699219 448.5 1434 c 0
 531.5 1491.33300781 646.333007812 1521.33300781 793 1524 c 0
 795 1610 l 0
 938 1688 l 0
 932 1561 l 0
 864 1524 l 0
 928 1521.33300781 997 1515.83300781 1071 1507.5 c 0
 1145 1499.16699219 1210 1489 1266 1477 c 0
 1235 1278 l 0
 1111 1288.66699219 960 1294 782 1294 c 0
 705.333007812 1294 646.666992188 1281.5 606 1256.5 c 0
 565.333007812 1231.5 539.333007812 1184.66699219 528 1116 c 0
 518 1047 l 0
EndSplineSet
EndChar

StartChar: percent
Encoding: 8 37 8
Width: 1970
VWidth: 1024
Flags: HW
LayerCount: 2
Fore
SplineSet
1614 170 m 0
 1667.33300781 170 1706.5 180.5 1731.5 201.5 c 0
 1756.5 222.5 1773.33300781 259 1782 311 c 0
 1808 487 l 0
 1810.66699219 509 1812 525 1812 535 c 0
 1812 569 1802.83300781 592.833007812 1784.5 606.5 c 0
 1766.16699219 620.166992188 1735.33300781 627 1692 627 c 0
 1546 627 l 0
 1495.33300781 627 1457.16699219 617.333007812 1431.5 598 c 0
 1405.83300781 578.666992188 1388.66699219 541.666992188 1380 487 c 0
 1354 311 l 0
 1351.33300781 286.333007812 1350 270 1350 262 c 0
 1350 229.333007812 1359.16699219 205.833007812 1377.5 191.5 c 0
 1395.83300781 177.166992188 1426 170 1468 170 c 0
 1614 170 l 0
1233 54 m 0
 1196.33300781 86 1178 134.333007812 1178 199 c 0
 1178 221 1180 246 1184 274 c 0
 1223 522 l 0
 1236.33300781 612 1267.66699219 679.333007812 1317 724 c 0
 1366.33300781 768.666992188 1440.66699219 791 1540 791 c 0
 1749 791 l 0
 1832.33300781 791 1892.5 774.833007812 1929.5 742.5 c 0
 1966.5 710.166992188 1985 662 1985 598 c 0
 1985 574.666992188 1982.66699219 549.333007812 1978 522 c 0
 1939 274 l 0
 1923.66699219 184 1891.5 116.833007812 1842.5 72.5 c 0
 1793.5 28.1669921875 1719.33300781 6 1620 6 c 0
 1411 6 l 0
 1329 6 1269.66699219 22 1233 54 c 0
666 879 m 0
 719.333007812 879 757.833007812 889.5 781.5 910.5 c 0
 805.166992188 931.5 821 968 829 1020 c 0
 858 1196 l 0
 860.666992188 1218 862 1233.66699219 862 1243 c 0
 862 1275.66699219 852.5 1299.16699219 833.5 1313.5 c 0
 814.5 1327.83300781 783.666992188 1335 741 1335 c 0
 594 1335 l 0
 544.666992188 1335 507 1325.5 481 1306.5 c 0
 455 1287.5 438 1250.66699219 430 1196 c 0
 401 1020 l 0
 398.333007812 995.333007812 397 979 397 971 c 0
 397 938.333007812 406.666992188 914.833007812 426 900.5 c 0
 445.333007812 886.166992188 476 879 518 879 c 0
 666 879 l 0
1589 1499 m 0
 1757 1499 l 0
 610 0 l 0
 436 0 l 0
 1589 1499 l 0
282.5 763 m 0
 245.5 795 227 843 227 907 c 0
 227 931.666992188 229 957 233 983 c 0
 272 1231 l 0
 285.333007812 1321 316.666992188 1388.16699219 366 1432.5 c 0
 415.333007812 1476.83300781 490 1499 590 1499 c 0
 797 1499 l 0
 880.333007812 1499 940.666992188 1483 978 1451 c 0
 1015.33300781 1419 1034 1371 1034 1307 c 0
 1034 1283.66699219 1032 1258.33300781 1028 1231 c 0
 989 983 l 0
 973.666992188 893 941.166992188 825.833007812 891.5 781.5 c 0
 841.833007812 737.166992188 767.333007812 715 668 715 c 0
 461 715 l 0
 379 715 319.5 731 282.5 763 c 0
EndSplineSet
EndChar

StartChar: ampersand
Encoding: 9 38 9
Width: 1411
VWidth: 1024
Flags: HW
LayerCount: 2
Fore
SplineSet
658.5 240.5 m 0
 694.833007812 253.5 733.333007812 277 774 311 c 0
 840 367 l 0
 635 711 l 0
 551 664 l 0
 484.333007812 627.333007812 439 588 415 546 c 0
 391 504 379 452.333007812 379 391 c 0
 379 339 393.666992188 297.666992188 423 267 c 0
 452.333007812 236.333007812 493 221 545 221 c 0
 584.333007812 221 622.166992188 227.5 658.5 240.5 c 0
216 81 m 0
 152.666992188 143 121 226 121 330 c 0
 121 440.666992188 142.5 532.833007812 185.5 606.5 c 0
 228.5 680.166992188 298.333007812 745 395 801 c 0
 541 885 l 0
 516 932 l 0
 475.333007812 1008.66699219 455 1087 455 1167 c 0
 455 1269.66699219 491.5 1352 564.5 1414 c 0
 637.5 1476 743.666992188 1507 883 1507 c 0
 989.666992188 1507 1101 1494 1217 1468 c 0
 1188 1284 l 0
 895 1284 l 0
 833.666992188 1284 787 1272 755 1248 c 0
 723 1224 707 1189 707 1143 c 0
 707 1092.33300781 729.333007812 1028.66699219 774 952 c 0
 1030 504 l 0
 1372 776 l 0
 1446 664 l 0
 1284 444 l 0
 1139 324 l 0
 1331 0 l 0
 1069 0 l 0
 946 197 l 0
 862 131 l 0
 795.333007812 79 731.333007812 42.1669921875 670 20.5 c 0
 608.666992188 -1.1669921875 541.666992188 -12 469 -12 c 0
 363.666992188 -12 279.333007812 19 216 81 c 0
EndSplineSet
EndChar

StartChar: quotesingle
Encoding: 10 39 10
Width: 403
VWidth: 1024
Flags: HW
LayerCount: 2
Fore
SplineSet
297 1401 m 0
 317 1538 l 0
 561 1538 l 0
 541 1401 l 0
 465 1026 l 0
 256 1026 l 0
 297 1401 l 0
EndSplineSet
EndChar

StartChar: parenleft
Encoding: 11 40 11
Width: 763
VWidth: 1024
Flags: HW
LayerCount: 2
Fore
SplineSet
215 348 m 0
 215 513.333007812 240 684.666992188 290 862 c 0
 340 1039.33300781 408 1207 494 1365 c 0
 580 1523 674 1655 776 1761 c 0
 1006 1761 l 0
 904.666992188 1639.66699219 813.333007812 1500.83300781 732 1344.5 c 0
 650.666992188 1188.16699219 586.5 1025 539.5 855 c 0
 492.5 685 469 521.666992188 469 365 c 0
 469 224.333007812 485 89.5 517 -39.5 c 0
 549 -168.5 596.333007812 -298.666992188 659 -430 c 0
 430 -430 l 0
 286.666992188 -206 215 53.3330078125 215 348 c 0
EndSplineSet
EndChar

StartChar: parenright
Encoding: 12 41 12
Width: 761
VWidth: 1024
Flags: HW
LayerCount: 2
Fore
SplineSet
355.5 246 m 0
 454.5 497.333007812 504 740.333007812 504 975 c 0
 504 1114.33300781 488.666992188 1246.5 458 1371.5 c 0
 427.333007812 1496.5 379.666992188 1626.33300781 315 1761 c 0
 543 1761 l 0
 612.333007812 1650.33300781 665.5 1532.66699219 702.5 1408 c 0
 739.5 1283.33300781 758 1143.66699219 758 989 c 0
 758 823.666992188 733.333007812 653 684 477 c 0
 634.666992188 301 567.666992188 134.5 483 -22.5 c 0
 398.333007812 -179.5 303 -315.333007812 197 -430 c 0
 -31 -430 l 0
 127.666992188 -230.666992188 256.5 -5.3330078125 355.5 246 c 0
EndSplineSet
EndChar

StartChar: asterisk
Encoding: 13 42 13
Width: 909
VWidth: 1024
Flags: HW
LayerCount: 2
Fore
SplineSet
547 971 m 0
 639 1085 l 0
 846 907 l 0
 778 831 l 0
 547 971 l 0
332 848 m 0
 434 1128 l 0
 561 1096 l 0
 418 819 l 0
 332 848 l 0
272 1278 m 0
 565 1303 l 0
 551 1169 l 0
 258 1182 l 0
 272 1278 l 0
680 1153 m 0
 944 1321 l 0
 987 1243 l 0
 748 1049 l 0
 680 1153 l 0
578 1479 m 0
 674 1509 l 0
 764 1253 l 0
 631 1204 l 0
 578 1479 l 0
EndSplineSet
EndChar

StartChar: plus
Encoding: 14 43 14
Width: 1247
VWidth: 1024
Flags: HW
LayerCount: 2
Fore
SplineSet
1182 627 m 0
 825 627 l 0
 770 270 l 0
 563 270 l 0
 618 627 l 0
 264 627 l 0
 295 831 l 0
 651 831 l 0
 707 1188 l 0
 913 1188 l 0
 858 831 l 0
 1212 831 l 0
 1182 627 l 0
EndSplineSet
EndChar

StartChar: comma
Encoding: 15 44 15
Width: 454
VWidth: 1024
Flags: HW
LayerCount: 2
Fore
SplineSet
127 -170 m 0
 111.666992188 -167.333007812 102 -165.333007812 98 -164 c 0
 111 -84 l 0
 129 -84 142.333007812 -81.3330078125 151 -76 c 0
 159.666992188 -70.6669921875 165.333007812 -60.3330078125 168 -45 c 0
 176 16 l 0
 158 16 l 0
 136 16 125 27 125 49 c 0
 129 80 l 0
 154 225 l 0
 155.333007812 238.333007812 160 248.833007812 168 256.5 c 0
 176 264.166992188 186.333007812 268 199 268 c 0
 342 268 l 0
 364 268 375 258 375 238 c 0
 371 203 l 0
 330 -45 l 0
 314.666992188 -131 263.333007812 -174 176 -174 c 0
 158.666992188 -174 142.333007812 -172.666992188 127 -170 c 0
EndSplineSet
EndChar

StartChar: hyphen
Encoding: 16 45 16
Width: 704
VWidth: 1024
Flags: HW
LayerCount: 2
Fore
SplineSet
156 696 m 0
 772 696 l 0
 739 492 l 0
 123 492 l 0
 156 696 l 0
EndSplineSet
EndChar

StartChar: period
Encoding: 17 46 17
Width: 454
VWidth: 1024
Flags: HW
LayerCount: 2
Fore
SplineSet
130 6 m 0
 124 11.3330078125 121 19 121 29 c 0
 121 35 l 0
 154 229 l 0
 156.666992188 255 171.666992188 268 199 268 c 0
 344 268 l 0
 366 268 377 258.666992188 377 240 c 0
 377 229 l 0
 346 35 l 0
 342 10.3330078125 327 -2 301 -2 c 0
 156 -2 l 0
 144.666992188 -2 136 0.6669921875 130 6 c 0
EndSplineSet
EndChar

StartChar: slash
Encoding: 18 47 18
Width: 903
VWidth: 1024
Flags: HW
LayerCount: 2
Fore
SplineSet
862 1577 m 0
 1116 1577 l 0
 268 -147 l 0
 14 -147 l 0
 862 1577 l 0
EndSplineSet
EndChar

StartChar: zero
Encoding: 19 48 19
Width: 1331
VWidth: 1024
Flags: HW
LayerCount: 2
Fore
SplineSet
795 221 m 0
 921.666992188 221 994.666992188 284 1014 410 c 0
 1124 1108 l 0
 1126.66699219 1120 1128 1137 1128 1159 c 0
 1128 1250.33300781 1077 1296 975 1296 c 0
 772 1296 l 0
 712 1296 663.5 1280 626.5 1248 c 0
 589.5 1216 566.333007812 1169.33300781 557 1108 c 0
 446 410 l 0
 443.333007812 388 442 372 442 362 c 0
 442 268 498 221 610 221 c 0
 795 221 l 0
267 65.5 m 0
 209 114.5 180 187.666992188 180 285 c 0
 180 313.666992188 182 343 186 373 c 0
 307 1133 l 0
 327.666992188 1258.33300781 378 1354.83300781 458 1422.5 c 0
 538 1490.16699219 638.666992188 1524 760 1524 c 0
 1069 1524 l 0
 1175.66699219 1524 1256 1498.33300781 1310 1447 c 0
 1364 1395.66699219 1391 1322.33300781 1391 1227 c 0
 1391 1210.33300781 1388 1179 1382 1133 c 0
 1262 373 l 0
 1242.66699219 249 1194.83300781 154.5 1118.5 89.5 c 0
 1042.16699219 24.5 943.666992188 -8 823 -8 c 0
 516 -8 l 0
 408 -8 325 16.5 267 65.5 c 0
EndSplineSet
EndChar

StartChar: one
Encoding: 20 49 20
Width: 755
VWidth: 1024
Flags: HW
LayerCount: 2
Fore
SplineSet
559 1280 m 0
 266 1217 l 0
 291 1380 l 0
 623 1511 l 0
 850 1511 l 0
 610 0 l 0
 356 0 l 0
 559 1280 l 0
EndSplineSet
EndChar

StartChar: two
Encoding: 21 50 21
Width: 1206
VWidth: 1024
Flags: HW
LayerCount: 2
Fore
SplineSet
131 205 m 0
 721 719 l 0
 809.666992188 795.666992188 875.5 868.666992188 918.5 938 c 0
 961.5 1007.33300781 983 1071.33300781 983 1130 c 0
 983 1179.33300781 967 1217.33300781 935 1244 c 0
 903 1270.66699219 849.333007812 1284 774 1284 c 0
 344 1284 l 0
 377 1483 l 0
 461.666992188 1495 539.166992188 1504.83300781 609.5 1512.5 c 0
 679.833007812 1520.16699219 753.666992188 1524 831 1524 c 0
 973 1524 1076.16699219 1495 1140.5 1437 c 0
 1204.83300781 1379 1237 1300 1237 1200 c 0
 1237 994 1129 795.333007812 913 604 c 0
 487 229 l 0
 1161 229 l 0
 1124 0 l 0
 100 0 l 0
 131 205 l 0
EndSplineSet
EndChar

StartChar: three
Encoding: 22 51 22
Width: 1189
VWidth: 1024
Flags: HW
LayerCount: 2
Fore
SplineSet
86 25 m 0
 115 215 l 0
 590 215 l 0
 680 215 748.5 228.333007812 795.5 255 c 0
 842.5 281.666992188 872.333007812 328.333007812 885 395 c 0
 895.666992188 449.666992188 901 484.666992188 901 500 c 0
 901 550.666992188 879.833007812 588.833007812 837.5 614.5 c 0
 795.166992188 640.166992188 740.666992188 654.333007812 674 657 c 0
 328 672 l 0
 356 852 l 0
 727 870 l 0
 869 876.666992188 949 931.333007812 967 1034 c 0
 975 1088.66699219 979 1124.33300781 979 1141 c 0
 979 1245 902.666992188 1296.66699219 750 1296 c 0
 326 1296 l 0
 356 1487 l 0
 544.666992188 1511.66699219 714.666992188 1524 866 1524 c 0
 991.333007812 1524 1085.5 1501 1148.5 1455 c 0
 1211.5 1409 1243 1335.66699219 1243 1235 c 0
 1243 1202.33300781 1235 1137.33300781 1219 1040 c 0
 1207 962 1178.33300781 900.166992188 1133 854.5 c 0
 1087.66699219 808.833007812 1035 778 975 762 c 0
 1024.33300781 748.666992188 1066.33300781 720.666992188 1101 678 c 0
 1135.66699219 635.333007812 1153 580.666992188 1153 514 c 0
 1153 490.666992188 1146.33300781 437.333007812 1133 354 c 0
 1115 235.333007812 1063.33300781 144.666992188 978 82 c 0
 892.666992188 19.3330078125 782.333007812 -12 647 -12 c 0
 434.333007812 -12 247.333007812 0.3330078125 86 25 c 0
EndSplineSet
EndChar

StartChar: four
Encoding: 23 52 23
Width: 1249
VWidth: 1024
Flags: HW
LayerCount: 2
Fore
SplineSet
834 344 m 0
 154 344 l 0
 123 469 l 0
 807 1511 l 0
 1067 1511 l 0
 438 559 l 0
 868 559 l 0
 922 893 l 0
 997 1055 l 0
 1200 1055 l 0
 1122 559 l 0
 1296 559 l 0
 1268 385 l 0
 1087 344 l 0
 1032 2 l 0
 780 2 l 0
 834 344 l 0
EndSplineSet
EndChar

StartChar: five
Encoding: 24 53 24
Width: 1261
VWidth: 1024
Flags: HW
LayerCount: 2
Fore
SplineSet
166 18 m 0
 199 217 l 0
 705 217 l 0
 781.666992188 217 842.333007812 235.833007812 887 273.5 c 0
 931.666992188 311.166992188 959 358.666992188 969 416 c 0
 987 543 l 0
 989.666992188 565 991 581.333007812 991 592 c 0
 991 683.333007812 936.333007812 729 827 729 c 0
 694 729 l 0
 642 729 601 718.5 571 697.5 c 0
 541 676.5 518.666992188 642.666992188 504 596 c 0
 262 596 l 0
 449 1511 l 0
 1339 1511 l 0
 1303 1284 l 0
 655 1284 l 0
 569 866 l 0
 592.333007812 889.333007812 622.166992188 908.5 658.5 923.5 c 0
 694.833007812 938.5 734.666992188 946 778 946 c 0
 948 946 l 0
 1048 946 1123.83300781 920.5 1175.5 869.5 c 0
 1227.16699219 818.5 1253 750.666992188 1253 666 c 0
 1253 649.333007812 1251.66699219 623.333007812 1249 588 c 0
 1212 365 l 0
 1192.66699219 238.333007812 1135.66699219 144.166992188 1041 82.5 c 0
 946.333007812 20.8330078125 818.333007812 -10 657 -10 c 0
 526.333007812 -10.6669921875 362.666992188 -1.3330078125 166 18 c 0
EndSplineSet
EndChar

StartChar: six
Encoding: 25 54 25
Width: 1255
VWidth: 1024
Flags: HW
LayerCount: 2
Fore
SplineSet
764 219 m 0
 817.333007812 219 860.666992188 232 894 258 c 0
 927.333007812 284 948.666992188 327 958 387 c 0
 977 508 l 0
 979.666992188 532.666992188 981 549 981 557 c 0
 981 602.333007812 965 633.5 933 650.5 c 0
 901 667.5 850 676 780 676 c 0
 479 676 l 0
 465.666992188 576 459 502.333007812 459 455 c 0
 459 367.666992188 474 306.5 504 271.5 c 0
 534 236.5 580.333007812 219 643 219 c 0
 764 219 l 0
294 87 m 0
 236 150.333007812 207 263.333007812 207 426 c 0
 207 755.333007812 264.666992188 1020.66699219 380 1222 c 0
 495.333007812 1423.33300781 675.333007812 1524 920 1524 c 0
 1060.66699219 1524 1186 1514.33300781 1296 1495 c 0
 1264 1296 l 0
 903 1296 l 0
 797.666992188 1296 711.333007812 1259.16699219 644 1185.5 c 0
 576.666992188 1111.83300781 531.333007812 1003.33300781 508 860 c 0
 598 880.666992188 723 891 883 891 c 0
 1005.66699219 891 1096.66699219 870.166992188 1156 828.5 c 0
 1215.33300781 786.833007812 1245 723.666992188 1245 639 c 0
 1245 621 1242.33300781 593 1237 555 c 0
 1202 340 l 0
 1182.66699219 220 1135.83300781 132 1061.5 76 c 0
 987.166992188 20 894 -8 782 -8 c 0
 557 -8 l 0
 439.666992188 -8 352 23.6669921875 294 87 c 0
EndSplineSet
EndChar

StartChar: seven
Encoding: 26 55 26
Width: 1126
VWidth: 1024
Flags: HW
LayerCount: 2
Fore
SplineSet
946 1260 m 0
 262 1260 l 0
 303 1511 l 0
 1243 1511 l 0
 1294 1399 l 0
 555 0 l 0
 258 0 l 0
 946 1260 l 0
EndSplineSet
EndChar

StartChar: eight
Encoding: 27 56 27
Width: 1296
VWidth: 1024
Flags: HW
LayerCount: 2
Fore
SplineSet
776 209 m 0
 836 209 880.666992188 221.333007812 910 246 c 0
 939.333007812 270.666992188 957.666992188 307.333007812 965 356 c 0
 989 510 l 0
 991.666992188 529.333007812 993 542.333007812 993 549 c 0
 993 588.333007812 981.166992188 617.333007812 957.5 636 c 0
 933.833007812 654.666992188 896 664 844 664 c 0
 670 664 l 0
 624.666992188 664 582.166992188 651 542.5 625 c 0
 502.833007812 599 479 560.666992188 471 510 c 0
 446 356 l 0
 443.333007812 336.666992188 442 324.333007812 442 319 c 0
 442 245 494 208.333007812 598 209 c 0
 776 209 l 0
877 881 m 0
 930.333007812 881 970.5 895.333007812 997.5 924 c 0
 1024.5 952.666992188 1041.66699219 990 1049 1036 c 0
 1065 1149 l 0
 1069 1168.33300781 1071 1185.33300781 1071 1200 c 0
 1071 1239.33300781 1061.16699219 1267.33300781 1041.5 1284 c 0
 1021.83300781 1300.66699219 991.333007812 1309 950 1309 c 0
 774 1309 l 0
 719.333007812 1309 678 1297 650 1273 c 0
 622 1249 603.333007812 1207.66699219 594 1149 c 0
 578 1036 l 0
 575.333007812 1011.33300781 573.666992188 996.333007812 573 991 c 0
 573 917 617 880.333007812 705 881 c 0
 877 881 l 0
178 229 m 0
 178 255 180 280.333007812 184 305 c 0
 219 522 l 0
 228.333007812 584.666992188 253.5 638.666992188 294.5 684 c 0
 335.5 729.333007812 382 757.333007812 434 768 c 0
 358.666992188 806 321.333007812 866 322 948 c 0
 322 967.333007812 324.666992188 996 330 1034 c 0
 356 1210 l 0
 390 1418.66699219 522.666992188 1523.33300781 754 1524 c 0
 1057 1524 l 0
 1148.33300781 1524 1216.83300781 1506.16699219 1262.5 1470.5 c 0
 1308.16699219 1434.83300781 1331 1376.66699219 1331 1296 c 0
 1331 1280.66699219 1328.33300781 1251.33300781 1323 1208 c 0
 1296 1034 l 0
 1288 984.666992188 1268.33300781 934.833007812 1237 884.5 c 0
 1205.66699219 834.166992188 1165.33300781 803.666992188 1116 793 c 0
 1162.66699219 782.333007812 1196.83300781 759.5 1218.5 724.5 c 0
 1240.16699219 689.5 1251 647.333007812 1251 598 c 0
 1251 580 1249.66699219 557.333007812 1247 530 c 0
 1210 311 l 0
 1192 195 1148.33300781 112.833007812 1079 64.5 c 0
 1009.66699219 16.1669921875 920.333007812 -8 811 -8 c 0
 510 -8 l 0
 288.666992188 -8.6669921875 178 70.3330078125 178 229 c 0
EndSplineSet
EndChar

StartChar: nine
Encoding: 28 57 28
Width: 1255
VWidth: 1024
Flags: HW
LayerCount: 2
Fore
SplineSet
729 1294 m 0
 675.666992188 1294 632.333007812 1281.16699219 599 1255.5 c 0
 565.666992188 1229.83300781 544.333007812 1186.66699219 535 1126 c 0
 516 1006 l 0
 513.333007812 981.333007812 512 964.666992188 512 956 c 0
 512 910.666992188 528 879.666992188 560 863 c 0
 592 846.333007812 643 838 713 838 c 0
 1014 838 l 0
 1027.33300781 938 1034 1011.66699219 1034 1059 c 0
 1034 1146.33300781 1019 1207.33300781 989 1242 c 0
 959 1276.66699219 912.666992188 1294 850 1294 c 0
 729 1294 l 0
1199 1426.5 m 0
 1257 1362.83300781 1286 1249.66699219 1286 1087 c 0
 1286 757.666992188 1228.33300781 492.5 1113 291.5 c 0
 997.666992188 90.5 817.666992188 -10 573 -10 c 0
 432.333007812 -10 307 -0.6669921875 197 18 c 0
 229 217 l 0
 590 217 l 0
 695.333007812 217 781.666992188 253.833007812 849 327.5 c 0
 916.333007812 401.166992188 961.666992188 509.666992188 985 653 c 0
 895 632.333007812 770 622.333007812 610 623 c 0
 487.333007812 623 396.333007812 643.833007812 337 685.5 c 0
 277.666992188 727.166992188 248 790 248 874 c 0
 248 892 250.666992188 920 256 958 c 0
 291 1174 l 0
 310.333007812 1294 357.166992188 1382 431.5 1438 c 0
 505.833007812 1494 599 1522 711 1522 c 0
 936 1522 l 0
 1053.33300781 1522 1141 1490.16699219 1199 1426.5 c 0
EndSplineSet
EndChar

StartChar: colon
Encoding: 29 58 29
Width: 454
VWidth: 1024
Flags: HW
LayerCount: 2
Fore
SplineSet
472 895 m 0
 472 875.666666667 468.333333333 857.666666667 461 841 c 0
 453.666666667 823.666666667 443.333333333 808.666666667 430 796 c 0
 417.333333333 783.333333333 402.333333333 773.333333333 385 766 c 0
 367.666666667 758.666666667 349.333333333 755 330 755 c 0
 310 755 291.333333333 758.666666667 274 766 c 0
 256.666666667 773.333333333 242 783.333333333 230 796 c 0
 217.333333333 808.666666667 207.333333333 823.666666667 200 841 c 0
 192.666666667 858.333333333 188.666666667 876.333333333 188 895 c 0
 188 914.333333333 192 932.666666667 200 950 c 0
 207.333333333 967.333333333 217.333333333 982.333333333 230 995 c 0
 242.666666667 1007.66666667 257.333333333 1017.66666667 274 1025 c 0
 291.333333333 1032.33333333 310 1036 330 1036 c 0
 349.333333333 1036 367.666666667 1032.33333333 385 1025 c 0
 402.333333333 1017.66666667 417.333333333 1007.66666667 430 995 c 0
 442.666666667 982.333333333 453 967.333333333 461 950 c 0
 468.333333333 932.666666667 472 914.333333333 472 895 c 0
318 116 m 0
 318 96 314.333333333 77.3333333333 307 60 c 0
 299.666666667 42.6666666667 289.333333333 28 276 16 c 0
 263.333333333 3.33333333333 248.333333333 -6.66666666667 231 -14 c 0
 213.666666667 -21.3333333333 195.333333333 -25.3333333333 176 -26 c 0
 156 -26 137.666666667 -22 121 -14 c 0
 104.333333333 -6.66666666667 89.6666666667 3.33333333333 77 16 c 0
 64.3333333333 28.6666666667 54.3333333333 43.3333333333 47 60 c 0
 39.6666666667 77.3333333333 36 96 36 116 c 0
 36 135.333333333 39.6666666667 153.333333333 47 170 c 0
 54.3333333333 187.333333333 64.3333333333 202.333333333 77 215 c 0
 89.6666666667 227.666666667 104.333333333 237.666666667 121 245 c 0
 137.666666667 252.333333333 156 256 176 256 c 0
 195.333333333 256 213.666666667 252.333333333 231 245 c 0
 248.333333333 237.666666667 263.333333333 227.666666667 276 215 c 0
 288.666666667 202.333333333 299 187.333333333 307 170 c 0
 314.333333333 153.333333333 318 135.333333333 318 116 c 0
EndSplineSet
Refer: 17 46 N 1 0 0 1 133 831 2
Refer: 17 46 N 1 0 0 1 0 0 2
EndChar

StartChar: semicolon
Encoding: 30 59 30
Width: 454
VWidth: 1024
Flags: HW
LayerCount: 2
Fore
SplineSet
472 895 m 0
 472 875.666666667 468.333333333 857.666666667 461 841 c 0
 453.666666667 823.666666667 443.333333333 808.666666667 430 796 c 0
 417.333333333 783.333333333 402.333333333 773.333333333 385 766 c 0
 367.666666667 758.666666667 349.333333333 755 330 755 c 0
 310 755 291.333333333 758.666666667 274 766 c 0
 256.666666667 773.333333333 242 783.333333333 230 796 c 0
 217.333333333 808.666666667 207.333333333 823.666666667 200 841 c 0
 192.666666667 858.333333333 188.666666667 876.333333333 188 895 c 0
 188 914.333333333 192 932.666666667 200 950 c 0
 207.333333333 967.333333333 217.333333333 982.333333333 230 995 c 0
 242.666666667 1007.66666667 257.333333333 1017.66666667 274 1025 c 0
 291.333333333 1032.33333333 310 1036 330 1036 c 0
 349.333333333 1036 367.666666667 1032.33333333 385 1025 c 0
 402.333333333 1017.66666667 417.333333333 1007.66666667 430 995 c 0
 442.666666667 982.333333333 453 967.333333333 461 950 c 0
 468.333333333 932.666666667 472 914.333333333 472 895 c 0
334 100 m 0
 334 40.6666666667 321.333333333 -15.6666666667 296 -69 c 0
 270.666666667 -122.333333333 237 -169.333333333 195 -210 c 0
 153 -250.666666667 105 -284 51 -310 c 0
 -3 -336 -58.6666666667 -351.333333333 -116 -356 c 0
 -100 -281 l 0
 -56.6666666667 -272.333333333 -19 -260 13 -244 c 0
 45.6666666667 -228 73.6666666667 -208.333333333 97 -185 c 0
 120.333333333 -161.666666667 139.666666667 -133.333333333 155 -100 c 0
 170.333333333 -67.3333333333 181.333333333 -29.3333333333 188 14 c 0
 56 14 l 0
 48.6666666667 23.3333333333 43.3333333333 35 40 49 c 0
 36.6666666667 62.3333333333 35.3333333333 74.6666666667 36 86 c 0
 36 106.666666667 40.3333333333 127 49 147 c 0
 57.6666666667 167 69.6666666667 185.333333333 85 202 c 0
 100.333333333 218.666666667 117.666666667 231.666666667 137 241 c 0
 156.333333333 251 176.666666667 256 198 256 c 0
 222 256 242.666666667 252 260 244 c 0
 277.333333333 236 291.333333333 225 302 211 c 0
 312.666666667 197 320.666666667 180.666666667 326 162 c 0
 331.333333333 142.666666667 334 122 334 100 c 0
EndSplineSet
Refer: 15 44 N 1 0 0 1 0 0 2
Refer: 17 46 N 1 0 0 1 133 831 2
EndChar

StartChar: less
Encoding: 31 60 31
Width: 1247
VWidth: 1024
Flags: HW
LayerCount: 2
Fore
SplineSet
272 604 m 0
 309 829 l 0
 1202 1100 l 0
 1167 879 l 0
 537 719 l 0
 1114 547 l 0
 1079 326 l 0
 272 604 l 0
EndSplineSet
EndChar

StartChar: equal
Encoding: 32 61 32
Width: 1247
VWidth: 1024
Flags: HW
LayerCount: 2
Fore
SplineSet
420 755 m 0
 420 885 l 0
 1677 885 l 0
 1677 755 l 0
 420 755 l 0
420 374 m 0
 420 504 l 0
 1677 504 l 0
 1677 374 l 0
 420 374 l 0
EndSplineSet
Refer: 387 8722 N 1 0 0 1 39 246 2
Refer: 387 8722 N 1 0 0 1 -39 -246 2
EndChar

StartChar: greater
Encoding: 33 62 33
Width: 1247
VWidth: 1024
Flags: HW
LayerCount: 2
Fore
SplineSet
295 547 m 0
 926 719 l 0
 348 879 l 0
 383 1100 l 0
 1190 829 l 0
 1153 604 l 0
 260 326 l 0
 295 547 l 0
EndSplineSet
EndChar

StartChar: question
Encoding: 34 63 34
Width: 1085
VWidth: 1024
Flags: HW
LayerCount: 2
Fore
SplineSet
322.5 6 m 0
 316.166992188 11.3330078125 313 19 313 29 c 0
 313 35 l 0
 346 229 l 0
 348.666992188 255 363.666992188 268 391 268 c 0
 537 268 l 0
 559 268 569.666992188 258.666992188 569 240 c 0
 569 229 l 0
 539 35 l 0
 535 10.3330078125 520 -2 494 -2 c 0
 348 -2 l 0
 337.333007812 -2 328.833007812 0.6669921875 322.5 6 c 0
444 788 m 0
 571 788 l 0
 659.666992188 788 726 801.666992188 770 829 c 0
 814 856.333007812 841.333007812 905.666992188 852 977 c 0
 866 1063 l 0
 868.666992188 1079.66699219 870 1100.66699219 870 1126 c 0
 870 1182 852.333007812 1222.66699219 817 1248 c 0
 781.666992188 1273.33300781 727 1286 653 1286 c 0
 593 1286 533.666992188 1280.16699219 475 1268.5 c 0
 416.333007812 1256.83300781 352.333007812 1238.66699219 283 1214 c 0
 311 1399 l 0
 453 1475.66699219 605.333007812 1513.66699219 768 1513 c 0
 889.333007812 1513 980.833007812 1485.16699219 1042.5 1429.5 c 0
 1104.16699219 1373.83300781 1135 1297.33300781 1135 1200 c 0
 1135 1166 1132 1133.33300781 1126 1102 c 0
 1104 973 l 0
 1084.66699219 846.333007812 1034.33300781 751.833007812 953 689.5 c 0
 871.666992188 627.166992188 755.333007812 596 604 596 c 0
 578 412 l 0
 385 412 l 0
 444 788 l 0
EndSplineSet
EndChar

StartChar: at
Encoding: 35 64 35
Width: 1894
VWidth: 1024
Flags: HW
LayerCount: 2
Fore
SplineSet
1065 207.5 m 0
 1117 223.166992188 1162.66699219 248.333007812 1202 283 c 0
 1290 872 l 0
 1219.33300781 900.666992188 1149.66699219 915 1081 915 c 0
 1014.33300781 915 954 894.333007812 900 853 c 0
 846 811.666992188 804 752.333007812 774 675 c 0
 744 597.666992188 729 508 729 406 c 0
 729 258.666992188 787.666992188 184.666992188 905 184 c 0
 959.666992188 184 1013 191.833007812 1065 207.5 c 0
201.5 -289.5 m 0
 136.5 -221.833007812 104 -134.333007812 104 -27 c 0
 104 -3.6669921875 107 31.3330078125 113 78 c 0
 270 1067 l 0
 294.666992188 1214.33300781 350 1320.16699219 436 1384.5 c 0
 522 1448.83300781 643 1481 799 1481 c 0
 1559 1481 l 0
 1680.33300781 1481 1772 1448.83300781 1834 1384.5 c 0
 1896 1320.16699219 1927 1234 1927 1126 c 0
 1927 1089.33300781 1923.66699219 1045.66699219 1917 995 c 0
 1825 379 l 0
 1808.33300781 269.666992188 1763.16699219 179.166992188 1689.5 107.5 c 0
 1615.83300781 35.8330078125 1513.33300781 0 1382 0 c 0
 1221 0 l 0
 1182 117 l 0
 1156 84.3330078125 1109.5 54.6669921875 1042.5 28 c 0
 975.5 1.3330078125 908.666992188 -12 842 -12 c 0
 750.666992188 -12 676.166992188 19 618.5 81 c 0
 560.833007812 143 532 241.666992188 532 377 c 0
 532 527 557.666992188 657 609 767 c 0
 660.333007812 877 728.666992188 961 814 1019 c 0
 899.333007812 1077 993.333007812 1106 1096 1106 c 0
 1261.33300781 1106 1397 1060.33300781 1503 969 c 0
 1382 172 l 0
 1444.66699219 172 1498.33300781 187 1543 217 c 0
 1587.66699219 247 1616.66699219 308.333007812 1630 401 c 0
 1722 1020 l 0
 1727.33300781 1064 1730.33300781 1093.33300781 1731 1108 c 0
 1731 1173.33300781 1710.83300781 1221 1670.5 1251 c 0
 1630.16699219 1281 1575 1296 1505 1296 c 0
 762 1296 l 0
 664 1296 592.666992188 1270.5 548 1219.5 c 0
 503.333007812 1168.5 475 1102 463 1020 c 0
 309 55 l 0
 305 33 303 11.3330078125 303 -10 c 0
 303 -71.3330078125 321.5 -119.833007812 358.5 -155.5 c 0
 395.5 -191.166992188 450 -209 522 -209 c 0
 1311 -209 l 0
 1288 -350 l 0
 1229.33300781 -360.666992188 1145 -370.166992188 1035 -378.5 c 0
 925 -386.833007812 810.666992188 -391 692 -391 c 0
 504 -391 l 0
 367.333007812 -391 266.5 -357.166992188 201.5 -289.5 c 0
EndSplineSet
EndChar

StartChar: A
Encoding: 36 65 36
Width: 1411
VWidth: 1024
Flags: HW
LayerCount: 2
Fore
SplineSet
1014 584 m 0
 915 1292 l 0
 586 584 l 0
 1014 584 l 0
793 1511 m 0
 1112 1511 l 0
 1358 0 l 0
 1096 0 l 0
 1038 356 l 0
 489 356 l 0
 317 0 l 0
 55 0 l 0
 793 1511 l 0
EndSplineSet
EndChar

StartChar: B
Encoding: 37 66 37
Width: 1286
VWidth: 1024
Flags: HW
LayerCount: 2
Fore
SplineSet
748 227 m 0
 828.666992188 227 888.666992188 244.5 928 279.5 c 0
 967.333007812 314.5 994.666992188 369.333007812 1010 444 c 0
 1012.66699219 460.666992188 1014 482.666992188 1014 510 c 0
 1014 564.666992188 997.166992188 606.666992188 963.5 636 c 0
 929.833007812 665.333007812 881 680 817 680 c 0
 496 680 l 0
 424 227 l 0
 748 227 l 0
846 874 m 0
 960.666992188 874 1031.66699219 935.666992188 1059 1059 c 0
 1065.66699219 1095.66699219 1069 1123.66699219 1069 1143 c 0
 1069 1192.33300781 1053.66699219 1228.16699219 1023 1250.5 c 0
 992.333007812 1272.83300781 947 1284 887 1284 c 0
 592 1284 l 0
 526 874 l 0
 846 874 l 0
373 1511 m 0
 938 1511 l 0
 1076 1511 1174 1485.16699219 1232 1433.5 c 0
 1290 1381.83300781 1319 1306.66699219 1319 1208 c 0
 1319 1171.33300781 1316.33300781 1136.66699219 1311 1104 c 0
 1299 1022 1268 953 1218 897 c 0
 1168 841 1106 804.666992188 1032 788 c 0
 1179.33300781 747.333007812 1253 646.333007812 1253 485 c 0
 1253 443 1249 402 1241 362 c 0
 1219 236.666992188 1164.33300781 145 1077 87 c 0
 989.666992188 29 869 0 715 0 c 0
 135 0 l 0
 373 1511 l 0
EndSplineSet
EndChar

StartChar: C
Encoding: 38 67 38
Width: 1210
VWidth: 1024
Flags: HW
LayerCount: 2
Fore
SplineSet
201 487 m 0
 201 583.666992188 209.666992188 687.666992188 227 799 c 0
 265 1043.66699219 333.333007812 1225.66699219 432 1345 c 0
 530.666992188 1464.33300781 672.666992188 1524 858 1524 c 0
 1026 1524 1185.66699219 1498.66699219 1337 1448 c 0
 1305 1249 l 0
 1163 1280.33300781 1028.33300781 1296 901 1296 c 0
 820.333007812 1296 753.5 1280.33300781 700.5 1249 c 0
 647.5 1217.66699219 603.166992188 1162.5 567.5 1083.5 c 0
 531.833007812 1004.5 502.333007812 893.333007812 479 750 c 0
 461 647.333007812 452.333007812 559 453 485 c 0
 453 389.666992188 474.833007812 320.833007812 518.5 278.5 c 0
 562.166992188 236.166992188 636.333007812 215 741 215 c 0
 828.333007812 215 901.5 217 960.5 221 c 0
 1019.5 225 1081 232 1145 242 c 0
 1112 43 l 0
 996 6.3330078125 850 -12 674 -12 c 0
 358.666992188 -12.6669921875 201 153.666992188 201 487 c 0
EndSplineSet
EndChar

StartChar: D
Encoding: 39 68 39
Width: 1396
VWidth: 1024
Flags: HW
LayerCount: 2
Fore
SplineSet
721 227 m 0
 846.333007812 227 943.166992188 272.5 1011.5 363.5 c 0
 1079.83300781 454.5 1127.66699219 586 1155 758 c 0
 1170.33300781 854.666992188 1178 927.666992188 1178 977 c 0
 1178 1086.33300781 1155.33300781 1164.83300781 1110 1212.5 c 0
 1064.66699219 1260.16699219 986 1284 874 1284 c 0
 590 1284 l 0
 424 227 l 0
 721 227 l 0
373 1511 m 0
 936 1511 l 0
 1118.66699219 1511 1247 1467 1321 1379 c 0
 1395 1291 1432 1159.66699219 1432 985 c 0
 1432 899 1424.33300781 809 1409 715 c 0
 1371 475 1294.66699219 295.833007812 1180 177.5 c 0
 1065.33300781 59.1669921875 904 0 696 0 c 0
 133 0 l 0
 373 1511 l 0
EndSplineSet
EndChar

StartChar: E
Encoding: 40 69 40
Width: 1204
VWidth: 1024
Flags: HW
LayerCount: 2
Fore
SplineSet
267 44 m 0
 206.333007812 81.3330078125 176 148 176 244 c 0
 176 266 178 289.666992188 182 315 c 0
 322 1182 l 0
 340 1298 382.333007812 1381.83300781 449 1433.5 c 0
 515.666992188 1485.16699219 598.666992188 1511 698 1511 c 0
 852 1511 1059.66699219 1503.66699219 1321 1489 c 0
 1288 1278 l 0
 739 1278 l 0
 687 1278 647.166992188 1265.33300781 619.5 1240 c 0
 591.833007812 1214.66699219 573 1174 563 1118 c 0
 524 870 l 0
 1124 854 l 0
 1094 655 l 0
 487 641 l 0
 449 379 l 0
 446.333007812 357 444.666992188 342.666992188 444 336 c 0
 444 296.666992188 455.666992188 268.333007812 479 251 c 0
 502.333007812 233.666992188 537.333007812 225 584 225 c 0
 1124 225 l 0
 1090 14 l 0
 833.333007812 -2.6669921875 631.666992188 -11.3330078125 485 -12 c 0
 400.333007812 -12 327.666992188 6.6669921875 267 44 c 0
EndSplineSet
EndChar

StartChar: F
Encoding: 41 70 41
Width: 1146
VWidth: 1024
Flags: HW
LayerCount: 2
Fore
SplineSet
322 1182 m 0
 357.333007812 1402 481.333007812 1511.66699219 694 1511 c 0
 867.333007812 1511 1075.66699219 1503.66699219 1319 1489 c 0
 1286 1278 l 0
 735 1278 l 0
 683 1278 643.833007812 1265.33300781 617.5 1240 c 0
 591.166992188 1214.66699219 573 1174.66699219 563 1120 c 0
 518 834 l 0
 1120 817 l 0
 1087 618 l 0
 483 604 l 0
 387 0 l 0
 133 0 l 0
 322 1182 l 0
EndSplineSet
EndChar

StartChar: G
Encoding: 42 71 42
Width: 1339
VWidth: 1024
Flags: HW
LayerCount: 2
Fore
SplineSet
287 100.5 m 0
 227 175.5 197 295.666992188 197 461 c 0
 197 553.666992188 207.666992188 670.333007812 229 811 c 0
 267 1047 338.666992188 1225.16699219 444 1345.5 c 0
 549.333007812 1465.83300781 695 1526 881 1526 c 0
 991.666992188 1526 1086.16699219 1520.16699219 1164.5 1508.5 c 0
 1242.83300781 1496.83300781 1317.66699219 1480 1389 1458 c 0
 1358 1262 l 0
 1225.33300781 1288 1075 1300.66699219 907 1300 c 0
 815.666992188 1300 742.333007812 1281.33300781 687 1244 c 0
 631.666992188 1206.66699219 588.333007812 1149 557 1071 c 0
 525.666992188 993 499.666992188 887.333007812 479 754 c 0
 461 643.333007812 452.333007812 551 453 477 c 0
 453 389.666992188 470.666992188 325.166992188 506 283.5 c 0
 541.333007812 241.833007812 598 221 676 221 c 0
 728 221 788.833007812 227.5 858.5 240.5 c 0
 928.166992188 253.5 981.333007812 266.333007812 1018 279 c 0
 1073 629 l 0
 768 629 l 0
 799 827 l 0
 897 837.666992188 1011.66699219 843.333007812 1143 844 c 0
 1218.33300781 844 1287.33300781 842.666992188 1350 840 c 0
 1217 0 l 0
 1028 0 l 0
 1008 104 l 0
 962.666992188 79.3330078125 896.666992188 53.8330078125 810 27.5 c 0
 723.333007812 1.1669921875 649.333007812 -12 588 -12 c 0
 447.333007812 -12 347 25.5 287 100.5 c 0
EndSplineSet
EndChar

StartChar: H
Encoding: 43 72 43
Width: 1396
VWidth: 1024
Flags: HW
LayerCount: 2
Fore
SplineSet
373 1511 m 0
 627 1511 l 0
 522 858 l 0
 1157 858 l 0
 1262 1511 l 0
 1516 1511 l 0
 1276 0 l 0
 1022 0 l 0
 1122 631 l 0
 487 631 l 0
 387 0 l 0
 133 0 l 0
 373 1511 l 0
EndSplineSet
EndChar

StartChar: I
Encoding: 44 73 44
Width: 522
VWidth: 1024
Flags: HW
LayerCount: 2
Fore
SplineSet
373 1511 m 0
 627 1511 l 0
 387 0 l 0
 133 0 l 0
 373 1511 l 0
EndSplineSet
EndChar

StartChar: J
Encoding: 45 74 45
Width: 772
VWidth: 1024
Flags: HW
LayerCount: 2
Fore
SplineSet
169.5 1 m 0
 127.166992188 9.6669921875 93.3330078125 21 68 35 c 0
 100 233 l 0
 146.666992188 223.666992188 199.333007812 219 258 219 c 0
 322 219 371.5 235 406.5 267 c 0
 441.5 299 464.333007812 349.333007812 475 418 c 0
 649 1511 l 0
 903 1511 l 0
 721 367 l 0
 699 231.666992188 654.833007812 134.666992188 588.5 76 c 0
 522.166992188 17.3330078125 425.666992188 -12 299 -12 c 0
 255 -12 211.833007812 -7.6669921875 169.5 1 c 0
EndSplineSet
EndChar

StartChar: K
Encoding: 46 75 46
Width: 1282
VWidth: 1024
Flags: HW
LayerCount: 2
Fore
SplineSet
373 1511 m 0
 627 1511 l 0
 526 872 l 0
 748 872 l 0
 1198 1511 l 0
 1458 1511 l 0
 936 754 l 0
 1251 0 l 0
 997 0 l 0
 727 645 l 0
 489 645 l 0
 387 0 l 0
 133 0 l 0
 373 1511 l 0
EndSplineSet
EndChar

StartChar: L
Encoding: 47 76 47
Width: 1083
VWidth: 1024
Flags: HW
LayerCount: 2
Fore
SplineSet
182 258 m 0
 182 286.666992188 184 316 188 346 c 0
 373 1511 l 0
 627 1511 l 0
 449 379 l 0
 446.333007812 368.333007812 444.666992188 353.333007812 444 334 c 0
 444 296 455.333007812 268.666992188 478 252 c 0
 500.666992188 235.333007812 533 227 575 227 c 0
 1073 227 l 0
 1038 0 l 0
 471 0 l 0
 278.333007812 0 182 86 182 258 c 0
EndSplineSet
EndChar

StartChar: M
Encoding: 48 77 48
Width: 1740
VWidth: 1024
Flags: HW
LayerCount: 2
Fore
SplineSet
516 1511 m 0
 754 1511 l 0
 938 307 l 0
 1503 1511 l 0
 1739 1511 l 0
 1677 0 l 0
 1432 0 l 0
 1479 1057 l 0
 1006 0 l 0
 768 0 l 0
 631 1049 l 0
 348 0 l 0
 96 0 l 0
 516 1511 l 0
EndSplineSet
EndChar

StartChar: N
Encoding: 49 78 49
Width: 1400
VWidth: 1024
Flags: HW
LayerCount: 2
Fore
SplineSet
373 1511 m 0
 578 1511 l 0
 1094 430 l 0
 1266 1511 l 0
 1520 1511 l 0
 1280 0 l 0
 1075 0 l 0
 559 1083 l 0
 387 0 l 0
 133 0 l 0
 373 1511 l 0
EndSplineSet
EndChar

StartChar: O
Encoding: 50 79 50
Width: 1419
VWidth: 1024
Flags: HW
LayerCount: 2
Fore
SplineSet
962.5 264 m 0
 1016.83300781 295.333007812 1060.83300781 348.333007812 1094.5 423 c 0
 1128.16699219 497.666992188 1156 603 1178 739 c 0
 1197.33300781 860.333007812 1206.66699219 958 1206 1032 c 0
 1206 1102.66699219 1195.5 1157.16699219 1174.5 1195.5 c 0
 1153.5 1233.83300781 1122.16699219 1260.16699219 1080.5 1274.5 c 0
 1038.83300781 1288.83300781 983.666992188 1296 915 1296 c 0
 825 1296 753 1281.33300781 699 1252 c 0
 645 1222.66699219 600.666992188 1169.16699219 566 1091.5 c 0
 531.333007812 1013.83300781 502.333007812 901.333007812 479 754 c 0
 458.333007812 628.666992188 448.333007812 533 449 467 c 0
 449 400.333007812 459.166992188 348.833007812 479.5 312.5 c 0
 499.833007812 276.166992188 531.166992188 251.166992188 573.5 237.5 c 0
 615.833007812 223.833007812 673 217 745 217 c 0
 835.666992188 217 908.166992188 232.666992188 962.5 264 c 0
427 25.5 m 0
 353.666992188 50.5 296.666992188 97.5 256 166.5 c 0
 215.333007812 235.5 195 332.333007812 195 457 c 0
 195 543 205 654.333007812 225 791 c 0
 255 983.666992188 299.333007812 1132.5 358 1237.5 c 0
 416.666992188 1342.5 493.166992188 1416.5 587.5 1459.5 c 0
 681.833007812 1502.5 803.333007812 1524 952 1524 c 0
 1061.33300781 1524 1152.5 1510.33300781 1225.5 1483 c 0
 1298.5 1455.66699219 1355.83300781 1406.5 1397.5 1335.5 c 0
 1439.16699219 1264.5 1460 1164 1460 1034 c 0
 1460 938.666992188 1450 828 1430 702 c 0
 1398.66699219 506.666992188 1353.83300781 357.833007812 1295.5 255.5 c 0
 1237.16699219 153.166992188 1162 83 1070 45 c 0
 978 7 856.333007812 -12 705 -12 c 0
 593 -12 500.333007812 0.5 427 25.5 c 0
EndSplineSet
EndChar

StartChar: P
Encoding: 51 80 51
Width: 1241
VWidth: 1024
Flags: HW
LayerCount: 2
Fore
SplineSet
821 729 m 0
 887.666992188 729 943.333007812 751.5 988 796.5 c 0
 1032.66699219 841.5 1061.66699219 909.666992188 1075 1001 c 0
 1083 1050.33300781 1087 1084.66699219 1087 1104 c 0
 1087 1168 1072.66699219 1214 1044 1242 c 0
 1015.33300781 1270 973.333007812 1284 918 1284 c 0
 590 1284 l 0
 502 729 l 0
 821 729 l 0
373 1511 m 0
 967 1511 l 0
 1084.33300781 1511 1176.83300781 1482 1244.5 1424 c 0
 1312.16699219 1366 1346 1267.33300781 1346 1128 c 0
 1346 1096.66699219 1339.66699219 1045.66699219 1327 975 c 0
 1301 805.666992188 1244.33300781 684.5 1157 611.5 c 0
 1069.66699219 538.5 968 502 852 502 c 0
 734.666992188 502 608.333007812 512 473 532 c 0
 387 0 l 0
 133 0 l 0
 373 1511 l 0
EndSplineSet
EndChar

StartChar: Q
Encoding: 52 81 52
Width: 1419
VWidth: 1024
Flags: HW
LayerCount: 2
Fore
SplineSet
757 -308 m 0
 693.666992188 -258 660.333007812 -181.333007812 657 -78 c 0
 834 -78 l 0
 840.666992188 -123.333007812 858 -155.5 886 -174.5 c 0
 914 -193.5 954.666992188 -203 1008 -203 c 0
 1052 -203 1105 -196 1167 -182 c 0
 1139 -369 l 0
 1102.33300781 -378.333007812 1059.33300781 -383 1010 -383 c 0
 904.666992188 -383 820.333007812 -358 757 -308 c 0
962.5 264 m 0
 1016.83300781 295.333007812 1060.83300781 348.333007812 1094.5 423 c 0
 1128.16699219 497.666992188 1156 603 1178 739 c 0
 1197.33300781 860.333007812 1206.66699219 958 1206 1032 c 0
 1206 1102.66699219 1195.5 1157.16699219 1174.5 1195.5 c 0
 1153.5 1233.83300781 1122.16699219 1260.16699219 1080.5 1274.5 c 0
 1038.83300781 1288.83300781 983.666992188 1296 915 1296 c 0
 825 1296 753 1281.33300781 699 1252 c 0
 645 1222.66699219 600.666992188 1169.16699219 566 1091.5 c 0
 531.333007812 1013.83300781 502.333007812 901.333007812 479 754 c 0
 458.333007812 628.666992188 448.333007812 533 449 467 c 0
 449 400.333007812 459.166992188 348.833007812 479.5 312.5 c 0
 499.833007812 276.166992188 531.166992188 251.166992188 573.5 237.5 c 0
 615.833007812 223.833007812 673 217 745 217 c 0
 835.666992188 217 908.166992188 232.666992188 962.5 264 c 0
427 25.5 m 0
 353.666992188 50.5 296.666992188 97.5 256 166.5 c 0
 215.333007812 235.5 195 332.333007812 195 457 c 0
 195 543 205 654.333007812 225 791 c 0
 255 983.666992188 299.333007812 1132.5 358 1237.5 c 0
 416.666992188 1342.5 493.166992188 1416.5 587.5 1459.5 c 0
 681.833007812 1502.5 803.333007812 1524 952 1524 c 0
 1061.33300781 1524 1152.5 1510.33300781 1225.5 1483 c 0
 1298.5 1455.66699219 1355.83300781 1406.5 1397.5 1335.5 c 0
 1439.16699219 1264.5 1460 1164 1460 1034 c 0
 1460 938.666992188 1450 828 1430 702 c 0
 1398.66699219 506.666992188 1353.83300781 357.833007812 1295.5 255.5 c 0
 1237.16699219 153.166992188 1162 83 1070 45 c 0
 978 7 856.333007812 -12 705 -12 c 0
 593 -12 500.333007812 0.5 427 25.5 c 0
EndSplineSet
EndChar

StartChar: R
Encoding: 53 82 53
Width: 1286
VWidth: 1024
Flags: HW
LayerCount: 2
Fore
SplineSet
813 786 m 0
 887 786 944.5 804.166992188 985.5 840.5 c 0
 1026.5 876.833007812 1054.33300781 942 1069 1036 c 0
 1071.66699219 1054 1073 1078.66699219 1073 1110 c 0
 1073 1226 1012.33300781 1284 891 1284 c 0
 590 1284 l 0
 512 786 l 0
 813 786 l 0
373 1511 m 0
 942 1511 l 0
 1204 1511 1335 1389.66699219 1335 1147 c 0
 1335 1113 1331.66699219 1070 1325 1018 c 0
 1304.33300781 886.666992188 1264.66699219 793.333007812 1206 738 c 0
 1147.33300781 682.666992188 1082 644.333007812 1010 623 c 0
 1202 0 l 0
 944 0 l 0
 776 582 l 0
 481 588 l 0
 387 0 l 0
 133 0 l 0
 373 1511 l 0
EndSplineSet
EndChar

StartChar: S
Encoding: 54 83 54
Width: 1169
VWidth: 1024
Flags: HW
LayerCount: 2
Fore
SplineSet
350 0 m 0
 262.666992188 8 190.333007812 19 133 33 c 0
 164 231 l 0
 292.666992188 220.333007812 445 215 621 215 c 0
 717.666992188 215 789.5 227.666992188 836.5 253 c 0
 883.5 278.333007812 912.666992188 325 924 393 c 0
 934 463 l 0
 936.666992188 473.666992188 938 489.333007812 938 510 c 0
 938 554 923.333007812 585.5 894 604.5 c 0
 864.666992188 623.5 817.333007812 633 752 633 c 0
 608 633 l 0
 498.666992188 633 414 659.666992188 354 713 c 0
 294 766.333007812 264 840 264 934 c 0
 264 961.333007812 266 989.333007812 270 1018 c 0
 291 1143 l 0
 313 1282.33300781 367.333007812 1380.66699219 454 1438 c 0
 540.666992188 1495.33300781 659.666992188 1524 811 1524 c 0
 876.333007812 1524 952 1519.83300781 1038 1511.5 c 0
 1124 1503.16699219 1200 1491.66699219 1266 1477 c 0
 1235 1278 l 0
 1111 1288.66699219 960 1294 782 1294 c 0
 705.333007812 1294 646.666992188 1281.5 606 1256.5 c 0
 565.333007812 1231.5 539.333007812 1184.66699219 528 1116 c 0
 518 1047 l 0
 514 1029 512 1011.66699219 512 995 c 0
 512 951 524.333007812 919.833007812 549 901.5 c 0
 573.666992188 883.166992188 613.333007812 874 668 874 c 0
 817 874 l 0
 937 874 1028.5 847.166992188 1091.5 793.5 c 0
 1154.5 739.833007812 1186 665.666992188 1186 571 c 0
 1186 545 1184 517.666992188 1180 489 c 0
 1157 348 l 0
 1137.66699219 219.333007812 1085.66699219 127.166992188 1001 71.5 c 0
 916.333007812 15.8330078125 790.333007812 -12 623 -12 c 0
 528.333007812 -12 437.333007812 -8 350 0 c 0
EndSplineSet
EndChar

StartChar: T
Encoding: 55 84 55
Width: 1245
VWidth: 1024
Flags: HW
LayerCount: 2
Fore
SplineSet
688 1284 m 0
 252 1284 l 0
 289 1511 l 0
 1415 1511 l 0
 1378 1284 l 0
 942 1284 l 0
 739 0 l 0
 485 0 l 0
 688 1284 l 0
EndSplineSet
EndChar

StartChar: U
Encoding: 56 85 56
Width: 1400
VWidth: 1024
Flags: HW
LayerCount: 2
Fore
SplineSet
337 92.5 m 0
 257 162.166992188 217 275.333007812 217 432 c 0
 217 502.666992188 226 589.333007812 244 692 c 0
 373 1511 l 0
 627 1511 l 0
 492 655 l 0
 478.666992188 553.666992188 471.666992188 485.666992188 471 451 c 0
 471 367.666992188 492.166992188 307.5 534.5 270.5 c 0
 576.833007812 233.5 643.666992188 215 735 215 c 0
 810.333007812 215 871.833007812 226.666992188 919.5 250 c 0
 967.166992188 273.333007812 1007.5 316.666992188 1040.5 380 c 0
 1073.5 443.333007812 1099.33300781 535 1118 655 c 0
 1253 1511 l 0
 1507 1511 l 0
 1366 618 l 0
 1338.66699219 443.333007812 1296.33300781 310.666992188 1239 220 c 0
 1181.66699219 129.333007812 1111 68 1027 36 c 0
 943 4 834.666992188 -12 702 -12 c 0
 538.666992188 -12 417 22.8330078125 337 92.5 c 0
EndSplineSet
EndChar

StartChar: V
Encoding: 57 86 57
Width: 1411
VWidth: 1024
Flags: HW
LayerCount: 2
Fore
SplineSet
295 1511 m 0
 557 1511 l 0
 745 276 l 0
 1337 1511 l 0
 1597 1511 l 0
 860 0 l 0
 541 0 l 0
 295 1511 l 0
EndSplineSet
EndChar

StartChar: W
Encoding: 58 87 58
Width: 2091
VWidth: 1024
Flags: HW
LayerCount: 2
Fore
SplineSet
297 1511 m 0
 559 1511 l 0
 676 371 l 0
 1143 1511 l 0
 1380 1511 l 0
 1475 373 l 0
 1964 1511 l 0
 2228 1511 l 0
 1577 0 l 0
 1315 0 l 0
 1202 1139 l 0
 719 0 l 0
 457 0 l 0
 297 1511 l 0
EndSplineSet
EndChar

StartChar: X
Encoding: 59 88 59
Width: 1312
VWidth: 1024
Flags: HW
LayerCount: 2
Fore
SplineSet
920 739 m 0
 1272 0 l 0
 995 0 l 0
 741 547 l 0
 334 0 l 0
 49 0 l 0
 637 766 l 0
 283 1511 l 0
 561 1511 l 0
 819 954 l 0
 1237 1511 l 0
 1522 1511 l 0
 920 739 l 0
EndSplineSet
EndChar

StartChar: Y
Encoding: 60 89 60
Width: 1292
VWidth: 1024
Flags: HW
LayerCount: 2
Fore
SplineSet
578 461 m 0
 276 1511 l 0
 555 1511 l 0
 745 737 l 0
 1206 1511 l 0
 1495 1511 l 0
 831 461 l 0
 758 0 l 0
 504 0 l 0
 578 461 l 0
EndSplineSet
EndChar

StartChar: Z
Encoding: 61 90 61
Width: 1157
VWidth: 1024
Flags: HW
LayerCount: 2
Fore
SplineSet
109 215 m 0
 975 1284 l 0
 276 1284 l 0
 313 1511 l 0
 1303 1511 l 0
 1268 1296 l 0
 401 227 l 0
 1118 227 l 0
 1083 0 l 0
 74 0 l 0
 109 215 l 0
EndSplineSet
EndChar

StartChar: bracketleft
Encoding: 62 91 62
Width: 690
VWidth: 1024
Flags: HW
LayerCount: 2
Fore
SplineSet
207.5 -346 m 0
 163.166992188 -290 141 -219 141 -133 c 0
 141 -115 144.666992188 -76.6669921875 152 -18 c 0
 367 1335 l 0
 385 1452.33300781 426.666992188 1546.5 492 1617.5 c 0
 557.333007812 1688.5 652.666992188 1724 778 1724 c 0
 928 1724 l 0
 897 1520 l 0
 819 1520 l 0
 707 1520 638.666992188 1446.66699219 614 1300 c 0
 408 -6 l 0
 404 -30.6669921875 401.666992188 -53.3330078125 401 -74 c 0
 401 -175.333007812 447.666992188 -225.666992188 541 -225 c 0
 621 -225 l 0
 588 -430 l 0
 438 -430 l 0
 328.666992188 -430 251.833007812 -402 207.5 -346 c 0
EndSplineSet
EndChar

StartChar: backslash
Encoding: 63 92 63
Width: 903
VWidth: 1024
Flags: HW
LayerCount: 2
Fore
SplineSet
287 1577 m 0
 541 1577 l 0
 844 -147 l 0
 590 -147 l 0
 287 1577 l 0
EndSplineSet
EndChar

StartChar: bracketright
Encoding: 64 93 64
Width: 690
VWidth: 1024
Flags: HW
LayerCount: 2
Fore
SplineSet
0 -225 m 0
 78 -225 l 0
 191.333007812 -225 259.666992188 -152 283 -6 c 0
 489 1300 l 0
 493 1327.33300781 495.333007812 1350.66699219 496 1370 c 0
 496 1470 449.333007812 1520 356 1520 c 0
 276 1520 l 0
 309 1724 l 0
 459 1724 l 0
 658.333007812 1724 758 1630.66699219 758 1444 c 0
 758 1403.33300781 754.666992188 1367 748 1335 c 0
 535 -18 l 0
 517 -130 477 -226.666992188 415 -308 c 0
 353 -389.333007812 254.333007812 -430 119 -430 c 0
 -31 -430 l 0
 0 -225 l 0
EndSplineSet
EndChar

StartChar: asciicircum
Encoding: 65 94 65
Width: 798
VWidth: 1024
Flags: HW
LayerCount: 2
Fore
SplineSet
539 1366 m 0
 715 1366 l 0
 881 1087 l 0
 731 1087 l 0
 602 1245 l 0
 414 1087 l 0
 264 1087 l 0
 539 1366 l 0
EndSplineSet
EndChar

StartChar: underscore
Encoding: 66 95 66
Width: 1247
VWidth: 1024
Flags: HW
LayerCount: 2
Fore
SplineSet
-27 -168 m 0
 1221 -168 l 0
 1190 -373 l 0
 -57 -373 l 0
 -27 -168 l 0
EndSplineSet
EndChar

StartChar: grave
Encoding: 67 96 67
Width: 462
VWidth: 1024
Flags: HW
LayerCount: 2
Fore
SplineSet
287 1577 m 0
 494 1577 l 0
 633 1292 l 0
 483 1292 l 0
 287 1577 l 0
EndSplineSet
EndChar

StartChar: a
Encoding: 68 97 68
Width: 1163
VWidth: 1024
Flags: HW
LayerCount: 2
Fore
SplineSet
708.5 215.5 m 0
 746.833007812 230.5 789.333007812 251.666992188 836 279 c 0
 928 862 l 0
 910 872.666992188 884 882.5 850 891.5 c 0
 816 900.5 779.666992188 905 741 905 c 0
 644.333007812 905 572.5 877.666992188 525.5 823 c 0
 478.5 768.333007812 445.333007812 682.333007812 426 565 c 0
 415.333007812 495.666992188 410 443.333007812 410 408 c 0
 410 341.333007812 424.666992188 288.833007812 454 250.5 c 0
 483.333007812 212.166992188 526 193 582 193 c 0
 628 193 670.166992188 200.5 708.5 215.5 c 0
242 81 m 0
 184.666992188 143 156 236.666992188 156 362 c 0
 156 406 163.333007812 480.666992188 178 586 c 0
 206.666992188 766 266.5 898.333007812 357.5 983 c 0
 448.5 1067.66699219 580.666992188 1110 754 1110 c 0
 841.333007812 1110 925.833007812 1098.66699219 1007.5 1076 c 0
 1089.16699219 1053.33300781 1154 1022.33300781 1202 983 c 0
 1047 0 l 0
 823 0 l 0
 811 113 l 0
 775.666992188 84.3330078125 724.166992188 56.3330078125 656.5 29 c 0
 588.833007812 1.6669921875 524.333007812 -12 463 -12 c 0
 373 -12 299.333007812 19 242 81 c 0
EndSplineSet
EndChar

StartChar: b
Encoding: 69 98 69
Width: 1181
VWidth: 1024
Flags: HW
LayerCount: 2
Fore
SplineSet
837.5 277.5 m 0
 881.166992188 333.833007812 912 424.333007812 930 549 c 0
 939.333007812 613 944 660.666992188 944 692 c 0
 944 767.333007812 928.666992188 821.666992188 898 855 c 0
 867.333007812 888.333007812 826 905 774 905 c 0
 732 905 687.666992188 898.833007812 641 886.5 c 0
 594.333007812 874.166992188 550 857.333007812 508 836 c 0
 418 268 l 0
 452 243.333007812 487.833007812 224.666992188 525.5 212 c 0
 563.166992188 199.333007812 607.666992188 193 659 193 c 0
 734.333007812 193 793.833007812 221.166992188 837.5 277.5 c 0
547 21.5 m 0
 485.666992188 43.8330078125 434.333007812 72 393 106 c 0
 344 0 l 0
 121 0 l 0
 369 1563 l 0
 623 1563 l 0
 537 1018 l 0
 587.666992188 1045.33300781 642.666992188 1067.5 702 1084.5 c 0
 761.333007812 1101.5 812.666992188 1110 856 1110 c 0
 961.333007812 1110 1044.33300781 1077.16699219 1105 1011.5 c 0
 1165.66699219 945.833007812 1196 852.333007812 1196 731 c 0
 1196 676.333007812 1187.66699219 593.666992188 1171 483 c 0
 1147.66699219 327.666992188 1097.83300781 206.333007812 1021.5 119 c 0
 945.166992188 31.6669921875 849 -12 733 -12 c 0
 670.333007812 -12 608.333007812 -0.8330078125 547 21.5 c 0
EndSplineSet
EndChar

StartChar: c
Encoding: 70 99 70
Width: 976
VWidth: 1024
Flags: HW
LayerCount: 2
Fore
SplineSet
263.5 80 m 0
 195.833007812 141.333007812 162 247 162 397 c 0
 162 450.333007812 168 515.333007812 180 592 c 0
 234.666992188 937.333007812 404.666992188 1110 690 1110 c 0
 791.333007812 1110 915 1093.66699219 1061 1061 c 0
 1036 913 l 0
 745 913 l 0
 655 913 585.166992188 884.333007812 535.5 827 c 0
 485.833007812 769.666992188 450 676.333007812 428 547 c 0
 418.666992188 491 414 448.666992188 414 420 c 0
 414 332.666992188 432.333007812 270.833007812 469 234.5 c 0
 505.666992188 198.166992188 561.666992188 180 637 180 c 0
 940 180 l 0
 918 37 l 0
 812.666992188 4.3330078125 692.333007812 -12 557 -12 c 0
 429 -12 331.166992188 18.6669921875 263.5 80 c 0
EndSplineSet
EndChar

StartChar: d
Encoding: 71 100 71
Width: 1171
VWidth: 1024
Flags: HW
LayerCount: 2
Fore
SplineSet
709.5 215.5 m 0
 749.833007812 230.5 793.333007812 251.666992188 840 279 c 0
 932 862 l 0
 878.666992188 890.666992188 815.666992188 905 743 905 c 0
 681.666992188 905 630.833007812 894.166992188 590.5 872.5 c 0
 550.166992188 850.833007812 517.166992188 814.333007812 491.5 763 c 0
 465.833007812 711.666992188 444.666992188 640.333007812 428 549 c 0
 418.666992188 499.666992188 414 452 414 406 c 0
 414 330.666992188 429.333007812 276.333007812 460 243 c 0
 490.666992188 209.666992188 530.666992188 193 580 193 c 0
 626 193 669.166992188 200.5 709.5 215.5 c 0
243 86 m 0
 187.666992188 151.333007812 160 243.333007812 160 362 c 0
 160 432.666992188 167.333007812 510 182 594 c 0
 204 710 234.166992188 804.833007812 272.5 878.5 c 0
 310.833007812 952.166992188 366.833007812 1009.16699219 440.5 1049.5 c 0
 514.166992188 1089.83300781 611.666992188 1110 733 1110 c 0
 823 1110 901 1097 967 1071 c 0
 1042 1563 l 0
 1296 1563 l 0
 1049 0 l 0
 825 0 l 0
 813 113 l 0
 766.333007812 77.6669921875 713 48 653 24 c 0
 593 0 533 -12 473 -12 c 0
 375 -12 298.333007812 20.6669921875 243 86 c 0
EndSplineSet
EndChar

StartChar: e
Encoding: 72 101 72
Width: 1122
VWidth: 1024
Flags: HW
LayerCount: 2
Fore
SplineSet
845 617.5 m 0
 897.666992188 647.166992188 924 697.333007812 924 768 c 0
 924 820 908.166992188 858 876.5 882 c 0
 844.833007812 906 797 918 733 918 c 0
 641.666992188 918 573.5 890.666992188 528.5 836 c 0
 483.5 781.333007812 452 698.666992188 434 588 c 0
 487.333007812 578.666992188 543.333007812 573.666992188 602 573 c 0
 711.333007812 573 792.333007812 587.833007812 845 617.5 c 0
265.5 88 m 0
 196.5 154.666992188 162 255 162 389 c 0
 162 443.666992188 168.666992188 516 182 606 c 0
 208 779.333007812 267.833007812 907 361.5 989 c 0
 455.166992188 1071 584.666992188 1112 750 1112 c 0
 875.333007812 1112 974.833007812 1088.5 1048.5 1041.5 c 0
 1122.16699219 994.5 1159 912.333007812 1159 795 c 0
 1159 655.666992188 1115.33300781 559.666992188 1028 507 c 0
 940.666992188 454.333007812 822 428 672 428 c 0
 568 428 483.333007812 436.333007812 418 453 c 0
 414 423 412 392 412 360 c 0
 412 296 434.5 249.333007812 479.5 220 c 0
 524.5 190.666992188 597.333007812 176 698 176 c 0
 1042 176 l 0
 1018 27 l 0
 891.333007812 1 752 -12 600 -12 c 0
 446 -12 334.5 21.3330078125 265.5 88 c 0
EndSplineSet
EndChar

StartChar: f
Encoding: 73 102 73
Width: 786
VWidth: 1024
Flags: HW
LayerCount: 2
Fore
SplineSet
338 891 m 0
 180 891 l 0
 207 1055 l 0
 371 1098 l 0
 399 1262 l 0
 415.666992188 1364.66699219 452.666992188 1442.5 510 1495.5 c 0
 567.333007812 1548.5 655.333007812 1575 774 1575 c 0
 861.333007812 1575 943.333007812 1568.66699219 1020 1556 c 0
 991 1372 l 0
 817 1372 l 0
 758.333007812 1372 716 1358 690 1330 c 0
 664 1302 647 1256.66699219 639 1194 c 0
 625 1098 l 0
 915 1098 l 0
 883 891 l 0
 592 891 l 0
 451 0 l 0
 199 0 l 0
 338 891 l 0
EndSplineSet
EndChar

StartChar: g
Encoding: 74 103 74
Width: 1173
VWidth: 1024
Flags: HW
LayerCount: 2
Fore
SplineSet
703.5 214.5 m 0
 743.833007812 228.833007812 788.666992188 250.333007812 838 279 c 0
 934 891 l 0
 922 892.333007812 894.666992188 895 852 899 c 0
 809.333007812 903 769.666992188 905 733 905 c 0
 649.666992188 905 583.5 879.166992188 534.5 827.5 c 0
 485.5 775.833007812 451.333007812 693.333007812 432 580 c 0
 418.666992188 499.333007812 412 439.666992188 412 401 c 0
 412 331.666992188 426.666992188 279.666992188 456 245 c 0
 485.333007812 210.333007812 525 193 575 193 c 0
 620.333007812 193 663.166992188 200.166992188 703.5 214.5 c 0
84 -463 m 0
 113 -287 l 0
 453 -287 l 0
 649.666992188 -287 758.666992188 -219.333007812 780 -84 c 0
 813 113 l 0
 765 76.3330078125 707.333007812 46.3330078125 640 23 c 0
 572.666992188 -0.3330078125 509.666992188 -12 451 -12 c 0
 361 -12 290 22.5 238 91.5 c 0
 186 160.5 160 249.333007812 160 358 c 0
 160 418 168 501.333007812 184 608 c 0
 212.666992188 786.666992188 274.833007812 915 370.5 993 c 0
 466.166992188 1071 594.666992188 1110 756 1110 c 0
 847.333007812 1110 932.5 1104.16699219 1011.5 1092.5 c 0
 1090.5 1080.83300781 1158 1067 1214 1051 c 0
 1028 -123 l 0
 990 -364.333007812 810.333007812 -485 489 -485 c 0
 449.666992188 -485 409 -483 367 -479 c 0
 84 -463 l 0
EndSplineSet
EndChar

StartChar: h
Encoding: 75 104 75
Width: 1198
VWidth: 1024
Flags: HW
LayerCount: 2
Fore
SplineSet
369 1563 m 0
 623 1563 l 0
 528 983 l 0
 581.333007812 1021 642.166992188 1052 710.5 1076 c 0
 778.833007812 1100 852 1112 930 1112 c 0
 1112.66699219 1112 1204 1021.33300781 1204 840 c 0
 1204 800.666992188 1201.33300781 761 1196 721 c 0
 1079 0 l 0
 827 0 l 0
 934 690 l 0
 938 710.666992188 940 729 940 745 c 0
 940 794.333007812 927 830 901 852 c 0
 875 874 838.333007812 885 791 885 c 0
 735 885 684.666992188 876.833007812 640 860.5 c 0
 595.333007812 844.166992188 548.666992188 818.666992188 500 784 c 0
 375 0 l 0
 121 0 l 0
 369 1563 l 0
EndSplineSet
EndChar

StartChar: i
Encoding: 76 105 76
Width: 491
VWidth: 1024
Flags: HW
LayerCount: 2
Fore
SplineSet
293 1098 m 0
 547 1098 l 0
 373 0 l 0
 119 0 l 0
 293 1098 l 0
328.5 1282 m 0
 322.166992188 1288.66699219 320 1297.66699219 322 1309 c 0
 350 1495 l 0
 354 1522.33300781 369 1536 395 1536 c 0
 588 1536 l 0
 600 1536 608.5 1532.16699219 613.5 1524.5 c 0
 618.5 1516.83300781 619.333007812 1507 616 1495 c 0
 588 1309 l 0
 584 1284.33300781 570.333007812 1272 547 1272 c 0
 354 1272 l 0
 343.333007812 1272 334.833007812 1275.33300781 328.5 1282 c 0
EndSplineSet
EndChar

StartChar: j
Encoding: 77 106 77
Width: 491
VWidth: 1024
Flags: HW
LayerCount: 2
Fore
SplineSet
293 1098 m 0
 547 1098 l 0
 371 -8 l 0
 351.666992188 -139.333007812 304.333007812 -298.333007812 229 -485 c 0
 41 -485 l 0
 293 1098 l 0
328.5 1282 m 0
 322.166992188 1288.66699219 320 1297.66699219 322 1309 c 0
 350 1495 l 0
 354 1522.33300781 369 1536 395 1536 c 0
 588 1536 l 0
 600 1536 608.5 1532.16699219 613.5 1524.5 c 0
 618.5 1516.83300781 619.333007812 1507 616 1495 c 0
 588 1309 l 0
 584 1284.33300781 570.333007812 1272 547 1272 c 0
 354 1272 l 0
 343.333007812 1272 334.833007812 1275.33300781 328.5 1282 c 0
EndSplineSet
EndChar

StartChar: k
Encoding: 78 107 78
Width: 1126
VWidth: 1024
Flags: HW
LayerCount: 2
Fore
SplineSet
369 1563 m 0
 623 1563 l 0
 483 692 l 0
 592.333007812 704 683.833007812 742.5 757.5 807.5 c 0
 831.166992188 872.5 886 969.333007812 922 1098 c 0
 1174 1098 l 0
 1104.66699219 849.333007812 985 682.666992188 815 598 c 0
 1114 0 l 0
 852 0 l 0
 600 520 l 0
 578 514.666992188 553 510 525 506 c 0
 497 502 473 500 453 500 c 0
 375 0 l 0
 121 0 l 0
 369 1563 l 0
EndSplineSet
EndChar

StartChar: l
Encoding: 79 108 79
Width: 638
VWidth: 1024
Flags: HW
LayerCount: 2
Fore
SplineSet
248 62.5 m 0
 196 104.166992188 170 162 170 236 c 0
 170 284 173.333007812 331.666992188 180 379 c 0
 369 1563 l 0
 623 1563 l 0
 446 461 l 0
 444.666992188 453 441.666992188 431.5 437 396.5 c 0
 432.333007812 361.5 430 332.333007812 430 309 c 0
 430 271 439.166992188 243.5 457.5 226.5 c 0
 475.833007812 209.5 504.333007812 199 543 195 c 0
 631 182 l 0
 600 0 l 0
 473 0 l 0
 375 0 300 20.8330078125 248 62.5 c 0
EndSplineSet
EndChar

StartChar: m
Encoding: 80 109 80
Width: 1904
VWidth: 1024
Flags: HW
LayerCount: 2
Fore
SplineSet
293 1098 m 0
 502 1098 l 0
 528 983 l 0
 656.666992188 1069 790.666992188 1112 930 1112 c 0
 998 1112 1053.16699219 1098.66699219 1095.5 1072 c 0
 1137.83300781 1045.33300781 1171.33300781 1004 1196 948 c 0
 1256 1001.33300781 1323.5 1042 1398.5 1070 c 0
 1473.5 1098 1546.66699219 1112 1618 1112 c 0
 1812 1112 1909 1024 1909 848 c 0
 1909 794.666992188 1904.66699219 745.333007812 1896 700 c 0
 1786 0 l 0
 1532 0 l 0
 1642 694 l 0
 1644.66699219 713.333007812 1646.33300781 729.666992188 1647 743 c 0
 1647 837 1594.33300781 884.333007812 1489 885 c 0
 1437 885 1387.83300781 875.666992188 1341.5 857 c 0
 1295.16699219 838.333007812 1246 811.333007812 1194 776 c 0
 1195.33300781 751.333007812 1193.33300781 720 1188 682 c 0
 1079 0 l 0
 827 0 l 0
 934 684 l 0
 938 711.333007812 940 731.666992188 940 745 c 0
 940 837.666992188 888 884.333007812 784 885 c 0
 730.666992188 885 683.666992188 876.833007812 643 860.5 c 0
 602.333007812 844.166992188 554.666992188 818.666992188 500 784 c 0
 375 0 l 0
 121 0 l 0
 293 1098 l 0
EndSplineSet
EndChar

StartChar: n
Encoding: 81 110 81
Width: 1198
VWidth: 1024
Flags: HW
LayerCount: 2
Fore
SplineSet
293 1098 m 0
 502 1098 l 0
 528 983 l 0
 653.333007812 1069 786 1112 926 1112 c 0
 1017.33300781 1112 1086.5 1089.16699219 1133.5 1043.5 c 0
 1180.5 997.833007812 1204 936.666992188 1204 860 c 0
 1204 805.333007812 1197.33300781 734.333007812 1184 647 c 0
 1079 0 l 0
 827 0 l 0
 928 639 l 0
 936 691 940 727.333007812 940 748 c 0
 940 839.333007812 888 885 784 885 c 0
 732 885 683.833007812 876.5 639.5 859.5 c 0
 595.166992188 842.5 548.666992188 817.333007812 500 784 c 0
 375 0 l 0
 121 0 l 0
 293 1098 l 0
EndSplineSet
EndChar

StartChar: o
Encoding: 82 111 82
Width: 1169
VWidth: 1024
Flags: HW
LayerCount: 2
Fore
SplineSet
762 219.5 m 0
 798.666992188 237.166992188 828.666992188 270.166992188 852 318.5 c 0
 875.333007812 366.833007812 894.333007812 438 909 532 c 0
 921 624.666992188 927.333007812 689 928 725 c 0
 928 791.666992188 912.666992188 839 882 867 c 0
 851.333007812 895 799 909 725 909 c 0
 661 909 610.5 898.833007812 573.5 878.5 c 0
 536.5 858.166992188 506.833007812 821.333007812 484.5 768 c 0
 462.166992188 714.666992188 442.666992188 636 426 532 c 0
 416.666992188 461.333007812 412 409.666992188 412 377 c 0
 412 306.333007812 428.333007812 258 461 232 c 0
 493.666992188 206 544 193 612 193 c 0
 675.333007812 193 725.333007812 201.833007812 762 219.5 c 0
162 367 m 0
 162 433.666992188 167.333007812 501.666992188 178 571 c 0
 201.333007812 715.666992188 235.833007812 827 281.5 905 c 0
 327.166992188 983 387.5 1036.66699219 462.5 1066 c 0
 537.5 1095.33300781 636.666992188 1110 760 1110 c 0
 869.333007812 1110 954.333007812 1095.66699219 1015 1067 c 0
 1075.66699219 1038.33300781 1118.33300781 995.666992188 1143 939 c 0
 1167.66699219 882.333007812 1180 807.666992188 1180 715 c 0
 1180 649.666992188 1173.66699219 576.666992188 1161 496 c 0
 1140.33300781 362 1107.16699219 258.5 1061.5 185.5 c 0
 1015.83300781 112.5 955.166992188 61.3330078125 879.5 32 c 0
 803.833007812 2.6669921875 705.333007812 -12 584 -12 c 0
 302.666992188 -12 162 114.333007812 162 367 c 0
EndSplineSet
EndChar

StartChar: p
Encoding: 83 112 83
Width: 1165
VWidth: 1024
Flags: HW
LayerCount: 2
Fore
SplineSet
818.5 287 m 0
 864.166992188 343 897.333007812 433 918 557 c 0
 926 606.333007812 930 647.333007812 930 680 c 0
 930 756.666992188 916 813.333007812 888 850 c 0
 860 886.666992188 815.333007812 905 754 905 c 0
 516 903 l 0
 410 240 l 0
 449.333007812 226.666992188 483.666992188 217.166992188 513 211.5 c 0
 542.333007812 205.833007812 578.333007812 203 621 203 c 0
 707 203 772.833007812 231 818.5 287 c 0
289 1061 m 0
 479 1093.66699219 656.333007812 1110 821 1110 c 0
 945 1110 1035.83300781 1078.33300781 1093.5 1015 c 0
 1151.16699219 951.666992188 1180 854.333007812 1180 723 c 0
 1180 660.333007812 1173 588 1159 506 c 0
 1133 335.333007812 1076.33300781 206.333007812 989 119 c 0
 901.666992188 31.6669921875 788.333007812 -12 649 -12 c 0
 537 -12 447 5 379 39 c 0
 297 -485 l 0
 43 -485 l 0
 289 1061 l 0
EndSplineSet
EndChar

StartChar: q
Encoding: 84 113 84
Width: 1163
VWidth: 1024
Flags: HW
LayerCount: 2
Fore
SplineSet
702.5 215.5 m 0
 744.833007812 230.5 789.333007812 251.666992188 836 279 c 0
 934 891 l 0
 912 893.666992188 896.333007812 895 887 895 c 0
 829.666992188 901.666992188 781 905 741 905 c 0
 644.333007812 905 572.833007812 877.333007812 526.5 822 c 0
 480.166992188 766.666992188 446.666992188 679.666992188 426 561 c 0
 415.333007812 491.666992188 410 439 410 403 c 0
 410 335 424.666992188 283 454 247 c 0
 483.333007812 211 523 193 573 193 c 0
 617 193 660.166992188 200.5 702.5 215.5 c 0
809 113 m 0
 759.666992188 75 702.333007812 44.6669921875 637 22 c 0
 571.666992188 -0.6669921875 510.333007812 -12 453 -12 c 0
 356.333007812 -12 283.333007812 20 234 84 c 0
 184.666992188 148 160 238.666992188 160 356 c 0
 160 414.666992188 166.666992188 490 180 582 c 0
 210 770.666992188 271.833007812 905.833007812 365.5 987.5 c 0
 459.166992188 1069.16699219 588 1110 752 1110 c 0
 836.666992188 1110 921.666992188 1104.16699219 1007 1092.5 c 0
 1092.33300781 1080.83300781 1160.66699219 1067 1212 1051 c 0
 969 -485 l 0
 715 -485 l 0
 809 113 l 0
EndSplineSet
EndChar

StartChar: r
Encoding: 85 114 85
Width: 841
VWidth: 1024
Flags: HW
LayerCount: 2
Fore
SplineSet
295 1098 m 0
 518 1098 l 0
 526 958 l 0
 627.333007812 1059.33300781 732 1110 840 1110 c 0
 889.333007812 1110 928.666992188 1105.33300781 958 1096 c 0
 922 844 l 0
 881.333007812 848 836 850 786 850 c 0
 680.666992188 850 584 818.666992188 496 756 c 0
 375 0 l 0
 121 0 l 0
 295 1098 l 0
EndSplineSet
EndChar

StartChar: s
Encoding: 86 115 86
Width: 1044
VWidth: 1024
Flags: HW
LayerCount: 2
Fore
SplineSet
303 -1 m 0
 222.333007812 6.3330078125 159 17 113 31 c 0
 135 180 l 0
 606 180 l 0
 706 180 761.333007812 214.333007812 772 283 c 0
 780 340 l 0
 782 365 l 0
 782 418.333007812 747.333007812 444.666992188 678 444 c 0
 500 444 l 0
 406 444 332.333007812 461.5 279 496.5 c 0
 225.666992188 531.5 199 583.666992188 199 653 c 0
 199 691 201 721.666992188 205 745 c 0
 219 825 l 0
 234.333007812 916.333007812 275 986.666992188 341 1036 c 0
 407 1085.33300781 509.666992188 1110 649 1110 c 0
 713 1110 786 1105.5 868 1096.5 c 0
 950 1087.5 1015.66699219 1077 1065 1065 c 0
 1040 915 l 0
 602 915 l 0
 551.333007812 915 514.5 906.833007812 491.5 890.5 c 0
 468.5 874.166992188 452.666992188 847 444 809 c 0
 438 766 l 0
 434 744 432 727 432 715 c 0
 432 691.666992188 440.833007812 674.833007812 458.5 664.5 c 0
 476.166992188 654.166992188 506.333007812 649 549 649 c 0
 741 649 l 0
 825.666992188 649 893.333007812 630 944 592 c 0
 994.666992188 554 1020 501.333007812 1020 434 c 0
 1020 409.333007812 1018 382.666992188 1014 354 c 0
 999 256 l 0
 983.666992188 162 938.333007812 93.8330078125 863 51.5 c 0
 787.666992188 9.1669921875 683.666992188 -12 551 -12 c 0
 466.333007812 -12 383.666992188 -8.3330078125 303 -1 c 0
EndSplineSet
EndChar

StartChar: t
Encoding: 87 116 87
Width: 819
VWidth: 1024
Flags: HW
LayerCount: 2
Fore
SplineSet
254 244 m 0
 254 294.666992188 260 356.666992188 272 430 c 0
 356 893 l 0
 182 893 l 0
 209 1057 l 0
 395 1098 l 0
 479 1405 l 0
 678 1405 l 0
 629 1098 l 0
 907 1098 l 0
 877 893 l 0
 598 893 l 0
 524 428 l 0
 514.666992188 380 510 341 510 311 c 0
 510 274.333007812 519.166992188 247.5 537.5 230.5 c 0
 555.833007812 213.5 585.666992188 203 627 199 c 0
 754 186 l 0
 723 0 l 0
 565 0 l 0
 357.666992188 0 254 81.3330078125 254 244 c 0
EndSplineSet
EndChar

StartChar: u
Encoding: 88 117 88
Width: 1198
VWidth: 1024
Flags: HW
LayerCount: 2
Fore
SplineSet
234.5 55.5 m 0
 188.833007812 100.5 166 164 166 246 c 0
 166 291.333007812 169.333007812 333 176 371 c 0
 291 1098 l 0
 545 1098 l 0
 436 399 l 0
 433.333007812 388.333007812 432 370.666992188 432 346 c 0
 432 258.666992188 482.666992188 215 584 215 c 0
 637.333007812 215 685.833007812 223.166992188 729.5 239.5 c 0
 773.166992188 255.833007812 820.666992188 280.333007812 872 313 c 0
 997 1098 l 0
 1251 1098 l 0
 1077 0 l 0
 854 0 l 0
 842 115 l 0
 775.333007812 71 712.5 38.8330078125 653.5 18.5 c 0
 594.5 -1.8330078125 523.333007812 -12 440 -12 c 0
 348.666992188 -12 280.166992188 10.5 234.5 55.5 c 0
EndSplineSet
EndChar

StartChar: v
Encoding: 89 118 89
Width: 1116
VWidth: 1024
Flags: HW
LayerCount: 2
Fore
SplineSet
178 1098 m 0
 438 1098 l 0
 575 240 l 0
 866 815 l 0
 889.333007812 868.333007812 907.833007812 917.833007812 921.5 963.5 c 0
 935.166992188 1009.16699219 944.666992188 1059.33300781 950 1114 c 0
 1182 1114 l 0
 1180.66699219 1050 1168.66699219 984.833007812 1146 918.5 c 0
 1123.33300781 852.166992188 1093 781.666992188 1055 707 c 0
 680 0 l 0
 389 0 l 0
 178 1098 l 0
EndSplineSet
EndChar

StartChar: w
Encoding: 90 119 90
Width: 1720
VWidth: 1024
Flags: HW
LayerCount: 2
Fore
SplineSet
178 1098 m 0
 438 1098 l 0
 557 242 l 0
 907 1098 l 0
 1077 1098 l 0
 1229 242 l 0
 1473 850 l 0
 1486.33300781 886.666992188 1499.83300781 930.333007812 1513.5 981 c 0
 1527.16699219 1031.66699219 1536 1076 1540 1114 c 0
 1786 1114 l 0
 1786 1059.33300781 1776.5 999.333007812 1757.5 934 c 0
 1738.5 868.666992188 1716 808.666992188 1690 754 c 0
 1331 0 l 0
 1063 0 l 0
 934 688 l 0
 635 0 l 0
 365 0 l 0
 178 1098 l 0
EndSplineSet
EndChar

StartChar: x
Encoding: 91 120 91
Width: 1120
VWidth: 1024
Flags: HW
LayerCount: 2
Fore
SplineSet
784 528 m 0
 1090 0 l 0
 827 0 l 0
 612 373 l 0
 293 0 l 0
 31 0 l 0
 504 559 l 0
 190 1098 l 0
 451 1098 l 0
 676 713 l 0
 975 1098 l 0
 1249 1098 l 0
 784 528 l 0
EndSplineSet
EndChar

StartChar: y
Encoding: 92 121 92
Width: 1165
VWidth: 1024
Flags: HW
LayerCount: 2
Fore
SplineSet
197 -303 m 0
 280.333007812 -285 353.333007812 -252.5 416 -205.5 c 0
 478.666992188 -158.5 531.666992188 -90 575 0 c 0
 487.666992188 8 423.166992188 33.1669921875 381.5 75.5 c 0
 339.833007812 117.833007812 312.333007812 186.333007812 299 281 c 0
 190 1098 l 0
 453 1098 l 0
 524 336 l 0
 530.666992188 289.333007812 545.666992188 257.166992188 569 239.5 c 0
 592.333007812 221.833007812 621 211.666992188 655 209 c 0
 932 858 l 0
 970 958 991.666992188 1043.33300781 997 1114 c 0
 1233 1114 l 0
 1233 981.333007812 1196.66699219 838.666992188 1124 686 c 0
 805 12 l 0
 724.333007812 -157.333007812 636.166992188 -279.5 540.5 -354.5 c 0
 444.833007812 -429.5 330.333007812 -473 197 -485 c 0
 197 -303 l 0
EndSplineSet
EndChar

StartChar: z
Encoding: 93 122 93
Width: 1024
VWidth: 1024
Flags: HW
LayerCount: 2
Fore
SplineSet
121 184 m 0
 778 893 l 0
 209 893 l 0
 240 1098 l 0
 1102 1098 l 0
 1073 913 l 0
 416 205 l 0
 977 205 l 0
 974.333007812 183 969.166992188 148.5 961.5 101.5 c 0
 953.833007812 54.5 948 20.6669921875 944 0 c 0
 92 0 l 0
 121 184 l 0
EndSplineSet
EndChar

StartChar: braceleft
Encoding: 94 123 94
Width: 645
VWidth: 1024
Flags: HW
LayerCount: 2
Fore
SplineSet
284 -366.5 m 0
 226 -324.166992188 197 -260.666992188 197 -176 c 0
 197 -138 206.166992188 -65.6669921875 224.5 41 c 0
 242.833007812 147.666992188 253.333007812 209.666992188 256 227 c 0
 280.666992188 362.333007812 293 440.333007812 293 461 c 0
 293 497.666992188 282.666992188 524.166992188 262 540.5 c 0
 241.333007812 556.833007812 208 565 162 565 c 0
 199 801 l 0
 300.333007812 810.333007812 356.333007812 852 367 926 c 0
 432 1343 l 0
 447.333007812 1437 473.333007812 1511.83300781 510 1567.5 c 0
 546.666992188 1623.16699219 597.833007812 1663.16699219 663.5 1687.5 c 0
 729.166992188 1711.83300781 814 1724 918 1724 c 0
 885 1520 l 0
 841 1520 806 1513.83300781 780 1501.5 c 0
 754 1489.16699219 732.833007812 1466.5 716.5 1433.5 c 0
 700.166992188 1400.5 687.333007812 1353.33300781 678 1292 c 0
 614 885 l 0
 604.666992188 822.333007812 579.833007812 774.5 539.5 741.5 c 0
 499.166992188 708.5 448.333007812 689.333007812 387 684 c 0
 440.333007812 674.666992188 481.333007812 655.666992188 510 627 c 0
 538.666992188 598.333007812 553 562 553 518 c 0
 553 496 538 393.666992188 508 211 c 0
 476.666992188 33.6669921875 461 -71.3330078125 461 -104 c 0
 461 -152 472.5 -186.333007812 495.5 -207 c 0
 518.5 -227.666992188 555.333007812 -238 606 -238 c 0
 575 -430 l 0
 439 -430 342 -408.833007812 284 -366.5 c 0
EndSplineSet
EndChar

StartChar: bar
Encoding: 95 124 95
Width: 516
VWidth: 1024
Flags: HW
LayerCount: 2
Fore
SplineSet
406 1577 m 0
 610 1577 l 0
 338 -147 l 0
 133 -147 l 0
 406 1577 l 0
EndSplineSet
EndChar

StartChar: braceright
Encoding: 96 125 96
Width: 645
VWidth: 1024
Flags: HW
LayerCount: 2
Fore
SplineSet
0 -238 m 0
 64 -238 111 -221.833007812 141 -189.5 c 0
 171 -157.166992188 191.666992188 -106.333007812 203 -37 c 0
 283 449 l 0
 291 501 314.166992188 544 352.5 578 c 0
 390.833007812 612 441.333007812 633.666992188 504 643 c 0
 452 647 411.666992188 662 383 688 c 0
 354.333007812 714 340 751.666992188 340 801 c 0
 340 836.333007812 355 945.333007812 385 1128 c 0
 408.333007812 1278 420 1362.66699219 420 1382 c 0
 420 1432.66699219 408.666992188 1468.33300781 386 1489 c 0
 363.333007812 1509.66699219 327.666992188 1520 279 1520 c 0
 311 1724 l 0
 558.333007812 1724 682 1628.66699219 682 1438 c 0
 682 1432.66699219 669.666992188 1348 645 1184 c 0
 639.666992188 1144.66699219 630.833007812 1084.33300781 618.5 1003 c 0
 606.166992188 921.666992188 600 874.666992188 600 862 c 0
 600 802 643.666992188 768 731 760 c 0
 694 524 l 0
 648.666992188 524 611.5 513.833007812 582.5 493.5 c 0
 553.5 473.166992188 535.333007812 441.666992188 528 399 c 0
 453 -78 l 0
 439.666992188 -161.333007812 416.5 -228.166992188 383.5 -278.5 c 0
 350.5 -328.833007812 300.833007812 -366.666992188 234.5 -392 c 0
 168.166992188 -417.333007812 79.6669921875 -430 -31 -430 c 0
 0 -238 l 0
EndSplineSet
EndChar

StartChar: asciitilde
Encoding: 97 126 97
Width: 884
VWidth: 1024
Flags: HW
LayerCount: 2
Fore
SplineSet
688.5 1110 m 0
 670.833007812 1119.33300781 648.333007812 1133 621 1151 c 0
 597.666992188 1167.66699219 578.166992188 1180 562.5 1188 c 0
 546.833007812 1196 531.333007812 1200 516 1200 c 0
 479.333007812 1200 446 1193.5 416 1180.5 c 0
 386 1167.5 348.333007812 1146 303 1116 c 0
 283 1202 l 0
 373 1294.66699219 459 1341 541 1341 c 0
 559 1341 577.5 1336.33300781 596.5 1327 c 0
 615.5 1317.66699219 638 1304 664 1286 c 0
 690 1268 710 1255.33300781 724 1248 c 0
 738 1240.66699219 752 1237 766 1237 c 0
 826 1237 894.333007812 1267.66699219 971 1329 c 0
 991 1235 l 0
 950.333007812 1193 910.166992188 1159.33300781 870.5 1134 c 0
 830.833007812 1108.66699219 789 1096 745 1096 c 0
 725 1096 706.166992188 1100.66699219 688.5 1110 c 0
EndSplineSet
EndChar

StartChar: inherent
Encoding: 98 -1 98
Width: 333
Flags: HW
LayerCount: 2
Fore
SplineSet
655 1509 m 1
 638.333333333 1423 590.666666667 1351.33333333 512 1294 c 1
 435.333333333 1234 350.666666667 1204 258 1204 c 1
 301 1399 l 1
 332.333333333 1399 359 1410 381 1432 c 1
 409.666666667 1454 426.666666667 1479 432 1507 c 2
 461 1647 l 1
 684 1647 l 1
 655 1509 l 1
EndSplineSet
EndChar

StartChar: makewide
Encoding: 99 -1 99
Width: 675
Flags: HW
LayerCount: 2
Fore
SplineSet
930 268 m 2
 913.333333333 195.333333333 878.333333333 132.5 825 79.5 c 128
 771.666666667 26.5 713.666666667 0 651 0 c 2
 360 0 l 2
 297.333333333 0 239.333333333 19.1666666667 186 57.5 c 128
 132.666666667 95.8333333333 89 147 55 211 c 1
 123 530 l 1
 149 427.333333333 190.666666667 346.333333333 248 287 c 1
 308 227 371.333333333 197 438 197 c 2
 621 197 l 2
 641.666666667 197 660 207.666666667 676 229 c 0
 685.333333333 239.666666667 692.5 250.166666667 697.5 260.5 c 128
 702.5 270.833333333 707.666666667 285.666666667 713 305 c 1
 864 1022 l 2
 866.666666667 1041.33333333 868 1055.66666667 868 1065 c 0
 868 1096.33333333 857.833333333 1126.66666667 837.5 1156 c 128
 817.166666667 1185.33333333 782.333333333 1200 733 1200 c 2
 539 1200 l 1
 582 1395 l 1
 1028 1395 l 1
 1038 1200 l 1
 1073.33333333 1162 1091.33333333 1117.66666667 1092 1067 c 0
 1092 1051.66666667 1091.33333333 1040.66666667 1090 1034 c 2
 930 268 l 2
EndSplineSet
EndChar

StartChar: shortrr
Encoding: 100 -1 100
Width: 1601
Flags: HW
LayerCount: 2
Fore
SplineSet
1876 1204 m 1
 942 1204 l 2
 917.333333333 1204 893.166666667 1196.16666667 869.5 1180.5 c 128
 845.833333333 1164.83333333 831 1146 825 1124 c 2
 793 956 l 2
 787.666666667 924.666666667 795 899.666666667 815 881 c 1
 835.666666667 859 861.666666667 848 893 848 c 2
 1239 848 l 1
 1200 653 l 1
 854 653 l 2
 818.666666667 653 786.666666667 642.333333333 758 621 c 1
 728 601.666666667 710.333333333 576.333333333 705 545 c 2
 659 336 l 1
 657.666666667 320.666666667 657 309.666666667 657 303 c 0
 657 291 661.833333333 274 671.5 252 c 128
 681.166666667 230 695.666666667 216.333333333 715 211 c 1
 883 211 l 1
 844 16 l 1
 592 16 l 2
 534.666666667 16 487.666666667 38 451 82 c 0
 426.333333333 112 414 147.333333333 414 188 c 0
 414 197.333333333 415.333333333 213.333333333 418 236 c 1
 485 559 l 1
 491.666666667 607 516.333333333 649.333333333 559 686 c 128
 601.666666667 722.666666667 650.333333333 746 705 756 c 1
 654.333333333 768 617.666666667 789 595 819 c 128
 572.333333333 849 561 879 561 909 c 0
 561 918.333333333 562.333333333 930.666666667 565 946 c 2
 616 1198 l 1
 631.333333333 1260.66666667 665.666666667 1309 719 1343 c 1
 772.333333333 1382.33333333 833 1402.33333333 901 1403 c 2
 1917 1403 l 1
 1876 1204 l 1
EndSplineSet
EndChar

StartChar: anusvara
Encoding: 101 3202 101
Width: 1533
Flags: HW
LayerCount: 2
Fore
SplineSet
1599 305 m 2
 1582.33333333 225.666666667 1542.33333333 155 1479 93 c 128
 1415.66666667 31 1350.66666667 0 1284 0 c 2
 668 0 l 2
 588.666666667 0 524.333333333 33.3333333333 475 100 c 1
 443.666666667 148 428 200 428 256 c 0
 428 280.666666667 430.666666667 306 436 332 c 2
 598 1106 l 2
 614.666666667 1185.33333333 658.833333333 1253 730.5 1309 c 128
 802.166666667 1365 881 1393 967 1393 c 2
 1528 1393 l 2
 1610 1393 1675.33333333 1363 1724 1303 c 1
 1755.33333333 1255 1771.33333333 1204.33333333 1772 1151 c 0
 1772 1129 1769 1105 1763 1079 c 2
 1599 305 l 2
1386 352 m 1
 1538 1063 l 2
 1539.33333333 1072.33333333 1540 1084.66666667 1540 1100 c 0
 1540 1124.66666667 1534.66666667 1145 1524 1161 c 1
 1503.33333333 1187 1477.33333333 1200 1446 1200 c 2
 999 1200 l 2
 959.666666667 1200 921 1187.66666667 883 1163 c 1
 845 1134.33333333 823 1105.66666667 817 1077 c 2
 664 350 l 2
 662.666666667 343.333333333 662 334 662 322 c 0
 662 296 672 270 692 244 c 1
 722 214 757 199 797 199 c 2
 1231 199 l 2
 1265 199 1297.66666667 214.666666667 1329 246 c 128
 1360.33333333 277.333333333 1379.33333333 312.666666667 1386 352 c 1
EndSplineSet
EndChar

StartChar: u0C83
Encoding: 102 3203 102
Width: 991
Flags: HW
LayerCount: 2
Fore
SplineSet
1249 950 m 2
 1238.33333333 896.666666667 1210.16666667 851 1164.5 813 c 128
 1118.83333333 775 1068.66666667 756 1014 756 c 2
 705 756 l 2
 645 756 597.666666667 776.333333333 563 817 c 0
 538.333333333 847 526 882.666666667 526 924 c 0
 526 940.666666667 526.666666667 953.666666667 528 963 c 2
 573 1186 l 1
 588.333333333 1246 621.333333333 1295.16666667 672 1333.5 c 128
 722.666666667 1371.83333333 779.333333333 1391 842 1391 c 2
 1122 1391 l 2
 1160 1391 1194.33333333 1380.66666667 1225 1360 c 1
 1253.66666667 1344.66666667 1275.33333333 1317.33333333 1290 1278 c 0
 1296.66666667 1262.66666667 1300 1243 1300 1219 c 0
 1300 1209.66666667 1298.66666667 1193.66666667 1296 1171 c 1
 1249 950 l 2
1096 221 m 2
 1084 161 1056 109.166666667 1012 65.5 c 128
 968 21.8333333333 921.333333333 0 872 0 c 2
 547 0 l 2
 487 0 440 20.3333333333 406 61 c 0
 380 92.3333333333 367 128 367 168 c 0
 367 174.666666667 368.333333333 187.666666667 371 207 c 2
 416 430 l 2
 428 488.666666667 460.666666667 537.833333333 514 577.5 c 128
 567.333333333 617.166666667 623.333333333 637 682 637 c 2
 963 637 l 2
 1025.66666667 637 1072.66666667 614.333333333 1104 569 c 1
 1126 535 1137 497.666666667 1137 457 c 0
 1137 446.333333333 1135.66666667 430 1133 408 c 1
 1096 221 l 2
1038 1006 m 2
 1063 1130 l 1
 1068.33333333 1149.33333333 1067 1165.5 1059 1178.5 c 128
 1051 1191.5 1036 1198 1014 1198 c 2
 885 1198 l 2
 865.666666667 1198 845.833333333 1191.83333333 825.5 1179.5 c 128
 805.166666667 1167.16666667 792 1150.66666667 786 1130 c 2
 764 1020 l 1
 761.333333333 999.333333333 766.166666667 982.5 778.5 969.5 c 128
 790.833333333 956.5 806.333333333 950 825 950 c 2
 965 950 l 2
 977 950 991.5 955.5 1008.5 966.5 c 128
 1025.5 977.5 1035.33333333 990.666666667 1038 1006 c 2
881 250 m 2
 905 379 l 1
 910.333333333 399.666666667 910.333333333 415.333333333 905 426 c 256
 899.666666667 436.666666667 891.666666667 442 881 442 c 2
 715 442 l 2
 694.333333333 442 676.166666667 437 660.5 427 c 128
 644.833333333 417 635.666666667 404.333333333 633 389 c 2
 608 266 l 1
 606.666666667 246.666666667 608.666666667 229.666666667 614 215 c 1
 623.333333333 199.666666667 634.333333333 192.333333333 647 193 c 2
 815 193 l 2
 830.333333333 193 844.5 198 857.5 208 c 128
 870.5 218 878.333333333 232 881 250 c 2
EndSplineSet
EndChar

StartChar: avowel
Encoding: 103 3205 103
Width: 1990
Flags: HW
LayerCount: 2
Fore
SplineSet
2116 281 m 2
 2099.33333333 204.333333333 2058.16666667 138.333333333 1992.5 83 c 128
 1926.83333333 27.6666666667 1855.33333333 0 1778 0 c 2
 698 0 l 2
 612 0 544 28.6666666667 494 86 c 1
 458.666666667 124 440.666666667 169.666666667 440 223 c 0
 440 247.666666667 441.333333333 266.333333333 444 279 c 2
 621 1118 l 2
 637.666666667 1196 678.666666667 1261.66666667 744 1315 c 128
 809.333333333 1368.33333333 880 1395 956 1395 c 2
 1317 1395 l 1
 1223 948 l 1
 1004 948 l 1
 1055 1200 l 1
 969 1200 l 2
 939 1200 911 1184.33333333 885 1153 c 1
 855 1123 835 1083.33333333 825 1034 c 2
 680 352 l 2
 678.666666667 345.333333333 678 336 678 324 c 0
 678 295.333333333 687.666666667 268.666666667 707 244 c 1
 741 214 777 199 815 199 c 2
 1720 199 l 2
 1748.66666667 199 1777.33333333 207.833333333 1806 225.5 c 128
 1834.66666667 243.166666667 1859.33333333 267 1880 297 c 1
 1890.66666667 316.333333333 1898.83333333 332 1904.5 344 c 128
 1910.16666667 356 1914.33333333 372.333333333 1917 393 c 1
 2064 1092 l 2
 2069.33333333 1120.66666667 2064.66666667 1147 2050 1171 c 1
 2029.33333333 1191.66666667 2004.66666667 1202 1976 1202 c 2
 1890 1202 l 1
 1860 1051 l 2
 1857.33333333 1031.66666667 1855.66666667 1018.66666667 1855 1012 c 0
 1855 954.666666667 1888.66666667 897.333333333 1956 840 c 1
 1917 645 l 1
 1077 645 l 1
 1116 840 l 1
 1704 840 l 1
 1656 900 1632 954.666666667 1632 1004 c 0
 1632 1016 1632.66666667 1024.66666667 1634 1030 c 2
 1710 1393 l 1
 2044 1393 l 2
 2102.66666667 1393 2151 1380.66666667 2189 1356 c 1
 2233 1334 2264.66666667 1303.33333333 2284 1264 c 1
 2294.66666667 1238 2300 1212 2300 1186 c 0
 2300 1164 2298.66666667 1147.66666667 2296 1137 c 2
 2116 281 l 2
EndSplineSet
EndChar

StartChar: aavowel
Encoding: 104 3206 104
Width: 2131
Flags: HW
LayerCount: 2
Fore
SplineSet
2413 1001 m 1
 2401 925.666666667 2363.5 860.5 2300.5 805.5 c 128
 2237.5 750.5 2172.33333333 723 2105 723 c 2
 2019 723 l 1
 2059.66666667 663 2077.66666667 617.333333333 2073 586 c 2
 1997 213 l 2
 1985 154.333333333 1950.16666667 104.166666667 1892.5 62.5 c 128
 1834.83333333 20.8333333333 1771.33333333 0 1702 0 c 2
 651 4 l 2
 578.333333333 4 522.333333333 31.3333333333 483 86 c 0
 454.333333333 124 440 167.666666667 440 217 c 0
 440 237.666666667 443 259 449 281 c 2
 625 1120 l 2
 641.666666667 1198 688.5 1263.66666667 765.5 1317 c 128
 842.5 1370.33333333 926.666666667 1397 1018 1397 c 2
 1298 1397 l 1
 1204 950 l 1
 981 950 l 1
 1032 1202 l 1
 987 1202 l 2
 955.666666667 1202 925 1189.33333333 895 1164 c 128
 865 1138.66666667 847.333333333 1111 842 1081 c 2
 688 354 l 2
 686.666666667 344.666666667 686 332.333333333 686 317 c 0
 686 288.333333333 692.333333333 264 705 244 c 1
 729.666666667 214 759 199 793 199 c 2
 1632 199 l 2
 1670 199 1706.5 214.666666667 1741.5 246 c 128
 1776.5 277.333333333 1797.33333333 313.333333333 1804 354 c 1
 1855 588 l 1
 1861.66666667 626 1846.66666667 672.333333333 1810 727 c 1
 1241 727 l 1
 1280 922 l 1
 1784 922 l 1
 1759.33333333 972.666666667 1747.66666667 1007.33333333 1749 1026 c 1
 1786 1194 l 2
 1796.66666667 1248.66666667 1830 1294.33333333 1886 1331 c 128
 1942 1367.66666667 2005 1386 2075 1386 c 2
 2255 1386 l 2
 2323 1386 2374 1363.66666667 2408 1319 c 1
 2436.66666667 1285 2451 1247.33333333 2451 1206 c 0
 2451 1195.33333333 2449.66666667 1179 2447 1157 c 1
 2413 1001 l 1
2189 1018 m 1
 2212 1114 l 2
 2213.33333333 1123.33333333 2214 1135.66666667 2214 1151 c 0
 2214 1181 2201 1196 2175 1196 c 2
 2093 1196 l 2
 2071 1196 2049.16666667 1187.5 2027.5 1170.5 c 128
 2005.83333333 1153.5 1994.33333333 1134.66666667 1993 1114 c 1
 1978 1047 l 2
 1975.33333333 1031.66666667 1974 1020.66666667 1974 1014 c 0
 1974 997.333333333 1976.5 983.5 1981.5 972.5 c 128
 1986.5 961.5 1995 946 2007 926 c 1
 2101 926 l 2
 2121.66666667 926 2140.5 934.5 2157.5 951.5 c 128
 2174.5 968.5 2185 990.666666667 2189 1018 c 1
EndSplineSet
EndChar

StartChar: ivowel
Encoding: 105 3207 105
Width: 1607
Flags: HW
LayerCount: 2
Fore
SplineSet
1663 0 m 1
 1524 0 l 2
 1456 0 1402 22 1362 66 c 0
 1332 100 1317 136.666666667 1317 176 c 0
 1317 182.666666667 1318.33333333 197 1321 219 c 1
 1350 358 l 1
 1126 358 l 2
 1063.33333333 358 1015 376 981 412 c 0
 955 438 942 469.333333333 942 506 c 0
 942 518 942.666666667 527.666666667 944 535 c 2
 975 686 l 2
 981.666666667 721.333333333 1007.66666667 754 1053 784 c 1
 1102.33333333 810 1153.33333333 823 1206 823 c 2
 1446 823 l 2
 1481.33333333 823 1513.33333333 812.333333333 1542 791 c 1
 1566.66666667 766.333333333 1581.66666667 736.666666667 1587 702 c 1
 1669 1094 l 2
 1674.33333333 1124 1667 1146.33333333 1647 1161 c 1
 1630.33333333 1177.66666667 1602.33333333 1186 1563 1186 c 2
 1411 1186 l 2
 1373 1186 1337.83333333 1174 1305.5 1150 c 128
 1273.16666667 1126 1254.33333333 1101 1249 1075 c 2
 1221 936 l 1
 1001 936 l 1
 1026 1065 l 2
 1032.66666667 1095 1024.83333333 1122.66666667 1002.5 1148 c 128
 980.166666667 1173.33333333 949.666666667 1186 911 1186 c 2
 725 1186 l 2
 691 1186 659.666666667 1174.66666667 631 1152 c 128
 602.333333333 1129.33333333 585.333333333 1103.66666667 580 1075 c 2
 551 936 l 2
 549.666666667 930.666666667 549 924.833333333 549 918.5 c 128
 549 909 549 909 549 907 c 0
 549 887.666666667 554.333333333 872.666666667 565 862 c 1
 575.666666667 840 593.333333333 829 618 829 c 2
 664 829 l 1
 625 635 l 1
 524 635 l 2
 454.666666667 635 399.333333333 661.666666667 358 715 c 0
 329.333333333 753 315 796.666666667 315 846 c 0
 315 868 316.333333333 885 319 897 c 2
 362 1106 l 2
 372.666666667 1156.66666667 396.166666667 1203.5 432.5 1246.5 c 128
 468.833333333 1289.5 511.333333333 1322.83333333 560 1346.5 c 128
 608.666666667 1370.16666667 659.666666667 1382 713 1382 c 2
 979 1382 l 2
 1032.33333333 1382 1077.33333333 1369.5 1114 1344.5 c 128
 1150.66666667 1319.5 1169 1286.33333333 1169 1245 c 1
 1195 1289 1228.66666667 1321.66666667 1270 1343 c 1
 1308 1369 1349.66666667 1382 1395 1382 c 2
 1647 1382 l 2
 1735.66666667 1382 1801.66666667 1354.66666667 1845 1300 c 1
 1879 1262 1896 1216.33333333 1896 1163 c 0
 1896 1141 1893.33333333 1119.33333333 1888 1098 c 2
 1815 745 l 2
 1789 625 1708.33333333 509.666666667 1573 399 c 1
 1544 260 l 1
 1538.66666667 243.333333333 1541.33333333 227 1552 211 c 1
 1567.33333333 195.666666667 1581 188 1593 188 c 2
 1694 188 l 1
 1663 0 l 1
1378 551 m 1
 1386 580 l 1
 1392.66666667 618 1378.33333333 637 1343 637 c 2
 1214 637 l 2
 1203.33333333 637 1194 633.833333333 1186 627.5 c 128
 1178 621.166666667 1172.33333333 612 1169 600 c 0
 1167.66666667 589.333333333 1169.83333333 579.166666667 1175.5 569.5 c 128
 1181.16666667 559.833333333 1188.66666667 555 1198 555 c 2
 1378 551 l 1
EndSplineSet
EndChar

StartChar: iivowel
Encoding: 106 3208 106
Width: 2496
Flags: HW
LayerCount: 2
Fore
SplineSet
2734 827 m 2
 2723.33333333 772.333333333 2692.66666667 718 2642 664 c 1
 2587.33333333 613.333333333 2525.33333333 575.666666667 2456 551 c 1
 2539.33333333 424.333333333 2577.33333333 341.666666667 2570 303 c 2
 2542 164 l 1
 2531.33333333 120 2510.83333333 83 2480.5 53 c 128
 2450.16666667 23 2417.33333333 8 2382 8 c 2
 1925 8 l 1
 1964 203 l 1
 2255 203 l 2
 2271.66666667 203 2290 210.333333333 2310 225 c 1
 2329.33333333 244.333333333 2339.66666667 261.333333333 2341 276 c 1
 2343 287 l 1
 2348.33333333 322.333333333 2336 355 2306 385 c 1
 2204 537 l 1
 1755 537 l 1
 1698 274 l 2
 1681.33333333 201.333333333 1642.66666667 138.5 1582 85.5 c 128
 1521.33333333 32.5 1452.66666667 6 1376 6 c 2
 674 6 l 2
 614 6 564.666666667 30 526 78 c 0
 500 109.333333333 487 149 487 197 c 0
 487 206.333333333 488.666666667 222 492 244 c 1
 553 535 l 1
 334 535 l 1
 373 729 l 1
 592 729 l 1
 631 911 l 1
 650.333333333 1009 726.666666667 1106 860 1202 c 1
 666 1202 l 1
 709 1397 l 1
 1714 1397 l 2
 1740 1397 1761.5 1405.5 1778.5 1422.5 c 128
 1795.5 1439.5 1806.66666667 1459 1812 1481 c 2
 1835 1591 l 1
 2060 1591 l 1
 2038 1481 l 1
 2026 1413 1989.66666667 1351.33333333 1929 1296 c 1
 1874.33333333 1241.33333333 1807.66666667 1206.66666667 1729 1192 c 1
 1774.33333333 1156.66666667 1807 1119 1827 1079 c 0
 1836.33333333 1062.33333333 1842.66666667 1044.5 1846 1025.5 c 128
 1849.33333333 1006.5 1849.66666667 989 1847 973 c 2
 1796 733 l 1
 2087 733 l 1
 2061 763 2048 798.666666667 2048 840 c 0
 2048 856.666666667 2050.66666667 875.666666667 2056 897 c 2
 2087 1051 l 1
 2102.33333333 1115 2135 1169.33333333 2185 1214 c 1
 2242.33333333 1259.33333333 2300.33333333 1282 2359 1282 c 2
 2593 1282 l 2
 2661 1282 2712 1257.33333333 2746 1208 c 1
 2772 1176.66666667 2785 1136.33333333 2785 1087 c 0
 2785 1075 2783.66666667 1058 2781 1036 c 1
 2734 827 l 2
2519 860 m 2
 2550 1012 l 2
 2555.33333333 1034 2553.16666667 1052.83333333 2543.5 1068.5 c 128
 2533.83333333 1084.16666667 2518.33333333 1092 2497 1092 c 2
 2386 1092 l 2
 2366.66666667 1092 2349.16666667 1084.5 2333.5 1069.5 c 128
 2317.83333333 1054.5 2309.33333333 1039.33333333 2308 1024 c 1
 2275 858 l 2
 2269.66666667 833.333333333 2272.66666667 811 2284 791 c 1
 2357 737 l 1
 2395 731.666666667 2430.16666667 742.666666667 2462.5 770 c 128
 2494.83333333 797.333333333 2513.66666667 827.333333333 2519 860 c 2
1571 737 m 1
 1624 989 l 1
 1626.66666667 1011 1628 1027.33333333 1628 1038 c 0
 1628 1112 1596 1169.33333333 1532 1210 c 1
 1098 1210 l 1
 962.666666667 1126.66666667 884 1032.66666667 862 928 c 2
 819 733 l 1
 1571 737 l 1
1495 358 m 1
 1532 539 l 1
 778 539 l 1
 733 330 l 2
 727.666666667 298.666666667 733.5 269.666666667 750.5 243 c 128
 767.5 216.333333333 790.333333333 203 819 203 c 2
 1319 203 l 2
 1354.33333333 203 1389.16666667 217.5 1423.5 246.5 c 128
 1457.83333333 275.5 1481.66666667 312.666666667 1495 358 c 1
EndSplineSet
EndChar

StartChar: uvowel
Encoding: 107 3209 107
Width: 2996
Flags: HW
LayerCount: 2
Fore
SplineSet
3125 297 m 2
 3114.33333333 243.666666667 3092 194.666666667 3058 150 c 1
 3028 104.666666667 2987.66666667 68.6666666667 2937 42 c 128
 2886.33333333 15.3333333333 2836.33333333 2 2787 2 c 2
 2406 2 l 2
 2348.66666667 2 2299.16666667 14.6666666667 2257.5 40 c 128
 2215.83333333 65.3333333333 2185 102 2165 150 c 1
 2154.33333333 181.333333333 2148.66666667 214 2148 248 c 0
 2148 256 2149.33333333 271 2152 293 c 1
 2324 1104 l 2
 2329.33333333 1132.66666667 2324.33333333 1155.5 2309 1172.5 c 128
 2293.66666667 1189.5 2271.66666667 1198 2243 1198 c 2
 1880 1198 l 2
 1859.33333333 1198 1836 1190 1810 1174 c 1
 1788 1153.33333333 1774.33333333 1130.66666667 1769 1106 c 2
 1595 279 l 2
 1583 225.666666667 1560.33333333 178.5 1527 137.5 c 128
 1493.66666667 96.5 1450.33333333 63.3333333333 1397 38 c 128
 1343.66666667 12.6666666667 1288.33333333 0 1231 0 c 2
 727 0 l 2
 635.666666667 0 564.666666667 31.3333333333 514 94 c 1
 476 138 457 189.333333333 457 248 c 0
 457 270 459.666666667 293.666666667 465 319 c 2
 627 1087 l 2
 637.666666667 1141.66666667 658.666666667 1193 690 1241 c 1
 706.666666667 1263 726.166666667 1283.5 748.5 1302.5 c 128
 770.833333333 1321.5 793 1337.33333333 815 1350 c 1
 868.333333333 1376 917.666666667 1389 963 1389 c 2
 1380 1389 l 1
 1294 989 l 2
 1277.33333333 912.333333333 1240.5 848.5 1183.5 797.5 c 128
 1126.5 746.5 1064.33333333 721 997 721 c 2
 846 721 l 1
 885 915 l 1
 979 915 l 2
 985.666666667 915 994.166666667 916.833333333 1004.5 920.5 c 128
 1014.83333333 924.166666667 1024.66666667 928.666666667 1034 934 c 1
 1050.66666667 946 1061.66666667 963 1067 985 c 2
 1110 1190 l 1
 971 1190 l 2
 939.666666667 1190 913 1179 891 1157 c 1
 862.333333333 1135 845.333333333 1109.66666667 840 1081 c 2
 678 313 l 2
 676.666666667 307.666666667 676 299 676 287 c 0
 676 262.333333333 682 242.333333333 694 227 c 0
 716 201 741.333333333 188 770 188 c 2
 1245 188 l 2
 1275 188 1301 198.333333333 1323 219 c 128
 1345 239.666666667 1360.66666667 265.666666667 1370 297 c 1
 1538 1100 l 2
 1554.66666667 1182 1594.33333333 1249.66666667 1657 1303 c 1
 1719.66666667 1360.33333333 1788 1389 1862 1389 c 2
 2308 1389 l 2
 2365.33333333 1389 2413.83333333 1376.33333333 2453.5 1351 c 128
 2493.16666667 1325.66666667 2520.33333333 1293 2535 1253 c 1
 2540.33333333 1233.66666667 2543.83333333 1219.33333333 2545.5 1210 c 128
 2547.16666667 1200.66666667 2548 1185.66666667 2548 1165 c 0
 2548 1154.33333333 2546.66666667 1138 2544 1116 c 1
 2376 319 l 2
 2374.66666667 312.333333333 2374 303 2374 291 c 0
 2374 271.666666667 2378.66666667 253.333333333 2388 236 c 1
 2410 210 2433.33333333 197 2458 197 c 2
 2775 197 l 2
 2805 197 2831 207.166666667 2853 227.5 c 128
 2875 247.833333333 2890.66666667 273.666666667 2900 305 c 1
 3066 1090 l 2
 3071.33333333 1114.66666667 3065.66666667 1134.33333333 3049 1149 c 1
 3038.33333333 1164.33333333 3017.33333333 1171.66666667 2986 1171 c 2
 2947 1171 l 1
 2994 1395 l 1
 3117 1395 l 2
 3186.33333333 1395 3237 1370.33333333 3269 1321 c 1
 3293.66666667 1289.66666667 3305.66666667 1251.33333333 3305 1206 c 0
 3305 1180 3303.66666667 1161 3301 1149 c 2
 3125 297 l 2
EndSplineSet
EndChar

StartChar: uuvowel
Encoding: 108 3210 108
Width: 3588
Flags: HW
LayerCount: 2
Fore
SplineSet
3709 281 m 2
 3692.33333333 201.666666667 3654.66666667 137.333333333 3596 88 c 1
 3533.33333333 30.6666666667 3468.66666667 2 3402 2 c 2
 3287 2 l 2
 3220.33333333 2 3167 26.6666666667 3127 76 c 0
 3101 107.333333333 3088 145.333333333 3088 190 c 0
 3088 216 3089.33333333 235.333333333 3092 248 c 2
 3131 442 l 1
 3355 442 l 1
 3316 248 l 2
 3313.33333333 237.333333333 3315.33333333 224.333333333 3322 209 c 1
 3332.66666667 198.333333333 3343.66666667 193 3355 193 c 2
 3422 193 l 2
 3434 193 3444.83333333 199.333333333 3454.5 212 c 128
 3464.16666667 224.666666667 3472.66666667 242 3480 264 c 1
 3647 1057 l 2
 3649.66666667 1076.33333333 3651.33333333 1090.66666667 3652 1100 c 0
 3652 1120.66666667 3646.33333333 1139 3635 1155 c 0
 3618.33333333 1181 3595.33333333 1194 3566 1194 c 2
 3289 1194 l 2
 3249.66666667 1194 3214.16666667 1180.33333333 3182.5 1153 c 128
 3150.83333333 1125.66666667 3130.33333333 1093 3121 1055 c 1
 2963 315 l 2
 2952.33333333 257.666666667 2929.33333333 204 2894 154 c 0
 2878.66666667 133.333333333 2859.83333333 112.666666667 2837.5 92 c 128
 2815.16666667 71.3333333333 2793 55 2771 43 c 0
 2721.66666667 13 2671.66666667 -2 2621 -2 c 2
 2216 -2 l 2
 2139.33333333 -2 2084 28 2050 88 c 1
 2024 128.666666667 2011 173.666666667 2011 223 c 0
 2011 247.666666667 2013.66666667 273 2019 299 c 2
 2185 1083 l 2
 2190.33333333 1113 2184.5 1139 2167.5 1161 c 128
 2150.5 1183 2127 1194 2097 1194 c 2
 1817 1194 l 2
 1787 1194 1758.33333333 1180.66666667 1731 1154 c 128
 1703.66666667 1127.33333333 1687 1099.66666667 1681 1071 c 2
 1524 326 l 2
 1503.33333333 233.333333333 1454.83333333 154.5 1378.5 89.5 c 128
 1302.16666667 24.5 1219.33333333 -8 1130 -8 c 2
 756 -8 l 2
 654.666666667 -8 575.333333333 23.3333333333 518 86 c 0
 477.333333333 130 457 183.333333333 457 246 c 0
 457 268 459.666666667 289.666666667 465 311 c 2
 631 1096 l 2
 647.666666667 1178 692.333333333 1246.5 765 1301.5 c 128
 837.666666667 1356.5 918 1384 1006 1384 c 2
 1386 1384 l 1
 1311 1022 l 2
 1294.33333333 945.333333333 1254 880.333333333 1190 827 c 1
 1130 772.333333333 1061.66666667 745 985 745 c 2
 891 745 l 1
 934 940 l 1
 999 940 l 2
 1014.33333333 940 1032.33333333 946 1053 958 c 1
 1073.66666667 974.666666667 1084.33333333 991.333333333 1085 1008 c 1
 1122 1188 l 1
 993 1188 l 2
 959 1188 927.666666667 1176.66666667 899 1154 c 128
 870.333333333 1131.33333333 853.333333333 1105.66666667 848 1077 c 2
 688 322 l 2
 681.333333333 286.666666667 689 253.666666667 711 223 c 1
 737 197 769 184 807 184 c 2
 1159 184 l 2
 1190.33333333 184 1219 197 1245 223 c 0
 1257 233.666666667 1267.83333333 248 1277.5 266 c 128
 1287.16666667 284 1293.33333333 302.666666667 1296 322 c 2
 1456 1077 l 2
 1466.66666667 1134.33333333 1491.83333333 1187 1531.5 1235 c 128
 1571.16666667 1283 1618.66666667 1319.5 1674 1344.5 c 128
 1729.33333333 1369.5 1783.66666667 1382 1837 1382 c 2
 2146 1382 l 2
 2204.66666667 1382 2255.5 1369.5 2298.5 1344.5 c 128
 2341.5 1319.5 2372.66666667 1282.33333333 2392 1233 c 0
 2404 1204.33333333 2410 1171 2410 1133 c 0
 2410 1123.66666667 2408.66666667 1105.66666667 2406 1079 c 1
 2241 295 l 2
 2238.33333333 279.666666667 2236.66666667 268.666666667 2236 262 c 0
 2236 245.333333333 2241.66666667 231.666666667 2253 221 c 1
 2269.66666667 199 2292.66666667 188 2322 188 c 2
 2585 188 l 2
 2620.33333333 188 2653 201.666666667 2683 229 c 128
 2713 256.333333333 2732.66666667 289.333333333 2742 328 c 1
 2896 1055 l 2
 2901.33333333 1085 2910.16666667 1113.33333333 2922.5 1140 c 128
 2934.83333333 1166.66666667 2951.33333333 1194.33333333 2972 1223 c 1
 3011.33333333 1273.66666667 3058.66666667 1313.5 3114 1342.5 c 128
 3169.33333333 1371.5 3225.66666667 1386 3283 1386 c 2
 3607 1386 l 2
 3667 1386 3719.33333333 1371.66666667 3764 1343 c 1
 3808 1311.66666667 3838 1271.66666667 3854 1223 c 1
 3866 1194.33333333 3872.33333333 1162 3873 1126 c 0
 3873 1105.33333333 3870.33333333 1082.33333333 3865 1057 c 2
 3709 281 l 2
EndSplineSet
EndChar

StartChar: rvocalicvowel.part
Encoding: 110 -1 110
Width: 2048
Flags: HW
LayerCount: 2
Fore
SplineSet
2167 297 m 2
 2150.33333333 217.666666667 2117.33333333 148.666666667 2068 90 c 1
 2010.66666667 31.3333333333 1955 2 1901 2 c 2
 1483 2 l 2
 1425.66666667 2 1374.83333333 15.6666666667 1330.5 43 c 128
 1286.16666667 70.3333333333 1255.66666667 108.666666667 1239 158 c 1
 1203.66666667 107.333333333 1166.83333333 68.6666666667 1128.5 42 c 128
 1090.16666667 15.3333333333 1055.33333333 2 1024 2 c 2
 549 2 l 2
 486.333333333 2 437.666666667 21.6666666667 403 61 c 0
 377 92.3333333333 364.333333333 128 365 168 c 0
 365 177.333333333 366.333333333 191.666666667 369 211 c 2
 449 586 l 1
 786 586 l 2
 854 586 907.333333333 566 946 526 c 0
 977.333333333 494.666666667 993 460 993 422 c 0
 993 415.333333333 991.666666667 402.333333333 989 383 c 2
 971 283 l 1
 748 283 l 1
 762 354 l 2
 767.333333333 380 753 393 719 393 c 2
 633 393 l 1
 610 283 l 1
 608.666666667 261 611.333333333 241.666666667 618 225 c 1
 633.333333333 208.333333333 652 200.333333333 674 201 c 2
 977 201 l 2
 1016.33333333 201 1051 211.166666667 1081 231.5 c 128
 1111 251.833333333 1131 277.666666667 1141 309 c 1
 1313 1122 l 2
 1318.33333333 1148 1311.16666667 1168.16666667 1291.5 1182.5 c 128
 1271.83333333 1196.83333333 1244 1204 1208 1204 c 2
 913 1204 l 2
 902.333333333 1204 890.833333333 1202.66666667 878.5 1200 c 128
 866.166666667 1197.33333333 849.833333333 1191.16666667 829.5 1181.5 c 128
 809.166666667 1171.83333333 796.333333333 1157 791 1137 c 2
 760 983 l 1
 846 983 l 2
 866.666666667 983 886.5 990.5 905.5 1005.5 c 128
 924.5 1020.5 936.666666667 1040.33333333 942 1065 c 2
 952 1122 l 1
 1176 1122 l 1
 1161 1055 l 2
 1144.33333333 982.333333333 1108.5 919.333333333 1053.5 866 c 128
 998.5 812.666666667 938 786 872 786 c 2
 492 786 l 1
 573 1178 l 1
 588.333333333 1238 624 1289.83333333 680 1333.5 c 128
 736 1377.16666667 800 1399 872 1399 c 2
 1321 1399 l 2
 1397.66666667 1399 1457.66666667 1373.66666667 1501 1323 c 0
 1531 1287.66666667 1546 1245.33333333 1546 1196 c 0
 1546 1171.33333333 1544.66666667 1153 1542 1141 c 2
 1380 371 l 1
 1392 323 1414.83333333 283 1448.5 251 c 128
 1482.16666667 219 1516.66666667 203 1552 203 c 2
 1815 203 l 2
 1846.33333333 203 1875 216 1901 242 c 0
 1913 252.666666667 1923.83333333 266.833333333 1933.5 284.5 c 128
 1943.16666667 302.166666667 1949.33333333 320.666666667 1952 340 c 2
 2099 1038 l 1
 2101.66666667 1060 2103 1075.66666667 2103 1085 c 0
 2103 1111 2095.66666667 1134.33333333 2081 1155 c 0
 2059 1186.33333333 2027.66666667 1202 1987 1202 c 2
 1690 1202 l 1
 1733 1397 l 1
 2056 1397 l 2
 2087.33333333 1397 2118.66666667 1410 2150 1436 c 1
 2176 1462 2194 1494.66666667 2204 1534 c 1
 2226 1645 l 1
 2449 1645 l 1
 2421 1505 l 2
 2410.33333333 1455.66666667 2389 1412 2357 1374 c 1
 2328.33333333 1334.66666667 2288.66666667 1304.66666667 2238 1284 c 1
 2278.66666667 1259.33333333 2304.66666667 1231 2316 1199 c 128
 2327.33333333 1167 2333 1147.16666667 2333 1139.5 c 128
 2333 1128 2333 1128 2333 1114 c 0
 2333 1103.33333333 2331.66666667 1087 2329 1065 c 1
 2167 297 l 2
EndSplineSet
EndChar

StartChar: lvocalicvowel.part
Encoding: 112 -1 112
Width: 1607
Flags: HW
LayerCount: 2
Fore
SplineSet
1491 297 m 1
 1485.66666667 267 1493 245.666666667 1513 233 c 0
 1522.33333333 227.666666667 1532.66666667 225 1544 225 c 0
 1575.33333333 225 1601.33333333 237.333333333 1622 262 c 1
 1882 545 l 1
 2028 430 l 1
 1718 111 l 1
 1678.66666667 60.3333333333 1633.66666667 29.3333333333 1583 18 c 0
 1551.66666667 11.3333333333 1510.66666667 15.8333333333 1460 31.5 c 128
 1409.33333333 47.1666666667 1368.33333333 73 1337 109 c 1
 1316.33333333 135 1302.66666667 152.666666667 1296 162 c 0
 1275.33333333 192 1265.33333333 224 1266 258 c 0
 1266 264.666666667 1267.33333333 276.5 1270 293.5 c 128
 1272.66666667 310.5 1324.33333333 381.333333333 1425 506 c 0
 1456.33333333 545.333333333 1506.33333333 606 1575 688 c 1
 1610.33333333 754.666666667 1637.66666667 844 1657 956 c 0
 1662.33333333 991.333333333 1667.66666667 1040.66666667 1673 1104 c 1
 1678.33333333 1134 1671 1156.33333333 1651 1171 c 1
 1634.33333333 1187.66666667 1606.33333333 1196 1567 1196 c 2
 1415 1196 l 2
 1377 1196 1342 1184 1310 1160 c 128
 1278 1136 1259 1111 1253 1085 c 2
 1225 946 l 1
 1006 946 l 1
 1030 1075 l 2
 1036.66666667 1105 1028.83333333 1132.66666667 1006.5 1158 c 128
 984.166666667 1183.33333333 953.666666667 1196 915 1196 c 2
 729 1196 l 2
 695 1196 663.666666667 1184.66666667 635 1162 c 128
 606.333333333 1139.33333333 589.333333333 1113.66666667 584 1085 c 2
 555 946 l 2
 553.666666667 940.666666667 553 935 553 929 c 128
 553 920 553 920 553 918 c 0
 553 898.666666667 558.333333333 883.333333333 569 872 c 1
 579.666666667 850 597.666666667 839.333333333 623 840 c 2
 668 840 l 1
 629 645 l 1
 528 645 l 2
 458.666666667 645 403.333333333 671.666666667 362 725 c 0
 333.333333333 763 319 806.666666667 319 856 c 0
 319 878 320.666666667 895 324 907 c 2
 367 1116 l 2
 377.666666667 1166.66666667 401.166666667 1213.5 437.5 1256.5 c 128
 473.833333333 1299.5 516.166666667 1333 564.5 1357 c 128
 612.833333333 1381 663.666666667 1393 717 1393 c 2
 983 1393 l 2
 1036.33333333 1393 1081.5 1380.33333333 1118.5 1355 c 128
 1155.5 1329.66666667 1174 1296.33333333 1174 1255 c 1
 1200 1299 1233.33333333 1332 1274 1354 c 1
 1312 1380 1353.66666667 1393 1399 1393 c 2
 1651 1393 l 2
 1739.66666667 1393 1805.66666667 1365.66666667 1849 1311 c 1
 1883 1273 1900.33333333 1227.33333333 1901 1174 c 0
 1901 1152 1898 1130 1892 1108 c 2
 1819 756 l 2
 1809.66666667 712 1790.33333333 669.666666667 1761 629 c 1
 1758.33333333 622.333333333 1697 550.666666667 1577 414 c 0
 1557.66666667 393.333333333 1543.33333333 378.333333333 1534 369 c 0
 1505.33333333 337.666666667 1491 313.666666667 1491 297 c 1
EndSplineSet
EndChar

StartChar: evowel
Encoding: 113 3214 113
Width: 1943
Flags: HW
LayerCount: 2
Fore
SplineSet
2066 297 m 2
 2049.33333333 217.666666667 2010.83333333 148.666666667 1950.5 90 c 128
 1890.16666667 31.3333333333 1825 2 1755 2 c 2
 1331 2 l 2
 1281.66666667 2 1241.33333333 15 1210 41 c 0
 1194.66666667 53 1184.33333333 66.8333333333 1179 82.5 c 128
 1173.66666667 98.1666666667 1171 116.333333333 1171 137 c 1
 1150.33333333 96.3333333333 1121 63.3333333333 1083 38 c 128
 1045 12.6666666667 1006.33333333 0 967 0 c 2
 643 0 l 2
 559.666666667 0 493.333333333 27.3333333333 444 82 c 0
 408.666666667 120 391 166.333333333 391 221 c 0
 391 231.666666667 392.333333333 250 395 276 c 1
 512 836 l 1
 846 836 l 2
 884 836 917.666666667 821.333333333 947 792 c 128
 976.333333333 762.666666667 996.666666667 723.333333333 1008 674 c 1
 1020 636 1026 594.333333333 1026 549 c 0
 1026 528.333333333 1025.33333333 513.333333333 1024 504 c 1
 807 446 l 1
 807 485.333333333 805.666666667 512.666666667 803 528 c 128
 800.333333333 543.333333333 793.333333333 563.333333333 782 588 c 1
 762.666666667 623.333333333 733.333333333 641 694 641 c 1
 629 332 l 1
 623.666666667 294 630.333333333 261 649 233 c 1
 671 207 699.666666667 194.333333333 735 195 c 2
 946 195 l 2
 981.333333333 195 1012 207.666666667 1038 233 c 0
 1054.66666667 248.333333333 1067 263.5 1075 278.5 c 128
 1083 293.5 1090 311.333333333 1096 332 c 2
 1124 471 l 1
 1350 471 l 1
 1325 348 l 2
 1323.66666667 341.333333333 1323 329.666666667 1323 313 c 0
 1323 288.333333333 1331.33333333 265.333333333 1348 244 c 0
 1374 212.666666667 1406 197 1444 197 c 2
 1677 197 l 2
 1716.33333333 197 1752.83333333 212 1786.5 242 c 128
 1820.16666667 272 1841.66666667 308.666666667 1851 352 c 2
 1995 1022 l 2
 1997.66666667 1041.33333333 1999 1055.66666667 1999 1065 c 0
 1999 1096.33333333 1988.66666667 1124.33333333 1968 1149 c 1
 1942 1183 1904.33333333 1200 1855 1200 c 2
 1669 1200 l 1
 1712 1395 l 1
 1927 1395 l 2
 1995 1395 2053.66666667 1380 2103 1350 c 128
 2152.33333333 1320 2188 1278.33333333 2210 1225 c 0
 2222 1193.66666667 2228 1157.33333333 2228 1116 c 0
 2228 1098 2225.33333333 1078.33333333 2220 1057 c 2
 2066 297 l 2
EndSplineSet
EndChar

StartChar: eevowel
Encoding: 114 3215 114
Width: 1937
Flags: HW
LayerCount: 2
Fore
SplineSet
2066 330 m 2
 2055.33333333 275.333333333 2028.33333333 219.333333333 1985 162 c 1
 1965.66666667 140 1943.33333333 118 1918 96 c 128
 1892.66666667 74 1865 55.6666666667 1835 41 c 1
 1768.33333333 12.3333333333 1706.33333333 -2 1649 -2 c 2
 1331 2 l 2
 1285.66666667 2 1249 16.3333333333 1221 45 c 1
 1209 60.3333333333 1198.16666667 77.8333333333 1188.5 97.5 c 128
 1178.83333333 117.166666667 1174 137.333333333 1174 158 c 1
 1101.33333333 52.6666666667 1014.33333333 0 913 0 c 2
 666 0 l 2
 572 0 500.333333333 30 451 90 c 1
 411.666666667 135.333333333 391.666666667 186.666666667 391 244 c 0
 391 256 392.333333333 275 395 301 c 1
 506 834 l 1
 844 834 l 2
 879.333333333 834 910.666666667 820.333333333 938 793 c 128
 965.333333333 765.666666667 986.333333333 725.333333333 1001 672 c 0
 1007.66666667 651.333333333 1011.83333333 627.333333333 1013.5 600 c 128
 1015.16666667 572.666666667 1016 540 1016 502 c 1
 793 444 l 1
 793 482 791.5 510 788.5 528 c 128
 785.5 546 778.666666667 564.666666667 768 584 c 0
 748.666666667 622 721.333333333 641 686 641 c 1
 621 332 l 1
 615.666666667 294 622.333333333 261 641 233 c 1
 663 207 691.666666667 194.333333333 727 195 c 2
 936 195 l 2
 974 195 1006 207.666666667 1032 233 c 0
 1048.66666667 248.333333333 1061 263.5 1069 278.5 c 128
 1077 293.5 1084 311.333333333 1090 332 c 2
 1118 471 l 1
 1343 471 l 1
 1319 348 l 2
 1317.66666667 341.333333333 1317 330.333333333 1317 315 c 0
 1317 290.333333333 1324.33333333 265.333333333 1339 240 c 1
 1365 210 1396 195 1432 195 c 2
 1671 195 l 2
 1709 195 1745.5 210.666666667 1780.5 242 c 128
 1815.5 273.333333333 1836.33333333 309.333333333 1843 350 c 1
 1987 1020 l 2
 1989.66666667 1039.33333333 1991 1053.66666667 1991 1063 c 0
 1991 1094.33333333 1980.66666667 1122.33333333 1960 1147 c 0
 1931.33333333 1181 1891.66666667 1198 1841 1198 c 2
 1632 1198 l 1
 1618 1130 l 2
 1608.66666667 1080.66666667 1577 1038 1523 1002 c 128
 1469 966 1408.33333333 948 1341 948 c 2
 1081 948 l 2
 1003 948 942.333333333 972.666666667 899 1022 c 0
 865 1058.66666667 848 1102.33333333 848 1153 c 0
 848 1162.33333333 849.333333333 1176.66666667 852 1196 c 1
 895 1391 l 1
 1118 1391 l 1
 1081 1225 l 1
 1078.33333333 1200.33333333 1084.16666667 1180.16666667 1098.5 1164.5 c 128
 1112.83333333 1148.83333333 1129.66666667 1141 1149 1141 c 2
 1329 1141 l 2
 1349.66666667 1141 1368 1151 1384 1171 c 1
 1403.33333333 1186.33333333 1415.66666667 1209.66666667 1421 1241 c 2
 1452 1389 l 1
 1911 1389 l 2
 1983.66666667 1389 2045.5 1373.16666667 2096.5 1341.5 c 128
 2147.5 1309.83333333 2181.5 1272.16666667 2198.5 1228.5 c 128
 2215.5 1184.83333333 2224 1145.33333333 2224 1110 c 0
 2224 1089.33333333 2221.33333333 1068.33333333 2216 1047 c 2
 2066 330 l 2
EndSplineSet
EndChar

StartChar: aivowel
Encoding: 115 3216 115
Width: 2054
Flags: HW
LayerCount: 2
Fore
SplineSet
2173 301 m 2
 2156.33333333 217.666666667 2111.83333333 146 2039.5 86 c 128
 1967.16666667 26 1889.33333333 -4 1806 -4 c 2
 1489 0 l 2
 1434.33333333 0 1386.66666667 15 1346 45 c 1
 1305.33333333 79 1279.33333333 120 1268 168 c 1
 1228.66666667 117.333333333 1184.66666667 77 1136 47 c 128
 1087.33333333 17 1041 2 997 2 c 2
 645 2 l 2
 561.666666667 2 495.333333333 29.3333333333 446 84 c 0
 410.666666667 122 393 168.333333333 393 223 c 0
 393 233.666666667 394.333333333 252.333333333 397 279 c 1
 463 584 l 1
 479.666666667 670 524.166666667 743 596.5 803 c 128
 668.833333333 863 748.666666667 893 836 893 c 2
 1225 893 l 1
 1163 602 l 1
 1156.33333333 562.666666667 1142 525.833333333 1120 491.5 c 128
 1098 457.166666667 1070 425.666666667 1036 397 c 0
 963.333333333 338.333333333 883 305.666666667 795 299 c 1
 780 494 l 1
 796.666666667 494 814.5 497 833.5 503 c 128
 852.5 509 869.666666667 517.333333333 885 528 c 0
 916.333333333 550 934.666666667 576 940 606 c 2
 956 688 l 1
 862 688 l 2
 818 688 780.666666667 675.666666667 750 651 c 1
 714.666666667 630.333333333 692 602.333333333 682 567 c 1
 639 356 l 1
 636.333333333 334 635 319.666666667 635 313 c 0
 635 291 642.333333333 268 657 244 c 1
 673.666666667 210 701.666666667 193 741 193 c 2
 981 193 l 2
 1029 193 1074.16666667 210 1116.5 244 c 128
 1158.83333333 278 1185.33333333 316.666666667 1196 360 c 1
 1212 442 l 1
 1438 442 l 1
 1421 360 l 2
 1418.33333333 340.666666667 1417 326.333333333 1417 317 c 0
 1417 288.333333333 1426.66666667 264 1446 244 c 1
 1468 210 1501.33333333 193 1546 193 c 2
 1815 193 l 2
 1846.33333333 193 1877.66666667 208.666666667 1909 240 c 1
 1939 275.333333333 1959.33333333 314.666666667 1970 358 c 1
 2116 1057 l 2
 2118.66666667 1076.33333333 2120 1090 2120 1098 c 0
 2120 1118.66666667 2113.5 1139.83333333 2100.5 1161.5 c 128
 2087.5 1183.16666667 2061.66666667 1194 2023 1194 c 2
 1784 1194 l 2
 1752.66666667 1194 1723.66666667 1182 1697 1158 c 128
 1670.33333333 1134 1654.33333333 1105 1649 1071 c 1
 1632 999 l 1
 1409 999 l 1
 1427 1081 l 1
 1432.33333333 1112.33333333 1422.33333333 1138.33333333 1397 1159 c 0
 1385 1168.33333333 1369.33333333 1175.83333333 1350 1181.5 c 128
 1330.66666667 1187.16666667 1308.66666667 1190 1284 1190 c 2
 938 1190 l 2
 906.666666667 1190 875.333333333 1177 844 1151 c 1
 812.666666667 1130.33333333 784 1097.66666667 758 1053 c 1
 614 1163 l 1
 658 1232.33333333 709.333333333 1286.5 768 1325.5 c 128
 826.666666667 1364.5 883.333333333 1384 938 1384 c 2
 1372 1384 l 2
 1430.66666667 1384 1477.5 1369.66666667 1512.5 1341 c 128
 1547.5 1312.33333333 1567.66666667 1277.66666667 1573 1237 c 1
 1604.33333333 1282.33333333 1642 1317.66666667 1686 1343 c 1
 1708 1358.33333333 1729.16666667 1368.66666667 1749.5 1374 c 128
 1769.83333333 1379.33333333 1792.33333333 1382 1817 1382 c 2
 2097 1382 l 2
 2154.33333333 1382 2203.83333333 1370.16666667 2245.5 1346.5 c 128
 2287.16666667 1322.83333333 2316.33333333 1289 2333 1245 c 0
 2343.66666667 1216.33333333 2349 1186.33333333 2349 1155 c 0
 2349 1145.66666667 2347.66666667 1130 2345 1108 c 1
 2173 301 l 2
EndSplineSet
EndChar

StartChar: ovowel
Encoding: 116 3218 116
Width: 1880
Flags: HW
LayerCount: 2
Fore
SplineSet
1982 240 m 0
 1966.66699219 170.666992188 1935.33300781 115.333007812 1888 74 c 0
 1842.66699219 26 1791.66699219 2 1735 2 c 0
 1305 2 l 0
 1261 2 1226 14.3330078125 1200 39 c 0
 1174 59.6669921875 1158.33300781 89.6669921875 1153 129 c 0
 1136.33300781 92.3330078125 1111 62 1077 38 c 0
 1043 14 1009 2 975 2 c 0
 584 2 l 0
 511.333007812 2 453.333007812 24 410 68 c 0
 376 99.3330078125 358.666992188 135.333007812 358 176 c 0
 358 182.666992188 359.333007812 197 362 219 c 0
 428 528 l 0
 705 690 l 0
 817 754 894.333007812 801.833007812 937 833.5 c 0
 979.666992188 865.166992188 1006 898 1016 932 c 0
 1053 1112 l 0
 1058.33300781 1138 1054.5 1158.16699219 1041.5 1172.5 c 0
 1028.5 1186.83300781 1011 1194 989 1194 c 0
 795 1194 l 0
 772 1083 l 0
 769.333007812 1062.33300781 773.5 1043.5 784.5 1026.5 c 0
 795.5 1009.5 813.333007812 1001 838 1001 c 0
 866 1001 l 0
 823 805 l 0
 727 805 l 0
 663 805 614 832.333007812 580 887 c 0
 554 927.666992188 541 972 541 1020 c 0
 541 1039.33300781 543.666992188 1059.66699219 549 1081 c 0
 614 1386 l 0
 1090 1386 l 0
 1135.33300781 1386 1175.33300781 1376.5 1210 1357.5 c 0
 1244.66699219 1338.5 1268 1316.33300781 1280 1291 c 0
 1292 1265.66699219 1298 1243 1298 1223 c 0
 1298 1216.33300781 1296.66699219 1203.33300781 1294 1184 c 0
 1227 860 l 0
 1221.66699219 826 1198.33300781 793.333007812 1157 762 c 0
 1132.33300781 742.666992188 1110 727 1090 715 c 0
 1039.33300781 683.666992188 966 639.333007812 870 582 c 0
 641 444 l 0
 612 305 l 0
 610.666992188 298.333007812 610 289.666992188 610 279 c 0
 610 262.333007812 617.166992188 244.5 631.5 225.5 c 0
 645.833007812 206.5 668 197 698 197 c 0
 950 197 l 0
 978.666992188 197 1007.33300781 209 1036 233 c 0
 1066 263 1084 293.333007812 1090 324 c 0
 1108 418 l 0
 1331 418 l 0
 1315 336 l 0
 1313.66699219 329.333007812 1313 319.666992188 1313 307 c 0
 1313 285 1319 263.333007812 1331 242 c 0
 1357 216 1387 203 1421 203 c 0
 1645 203 l 0
 1673.66699219 203 1702.33300781 215.333007812 1731 240 c 0
 1761 270 1778.66699219 300 1784 330 c 0
 1827 526 l 0
 1832.33300781 553.333007812 1827.83300781 575.5 1813.5 592.5 c 0
 1799.16699219 609.5 1779 618 1753 618 c 0
 1679 618 l 0
 1718 813 l 0
 1913 813 l 0
 1973 813 2015.33300781 795.333007812 2040 760 c 0
 2062 734 2073 703.333007812 2073 668 c 0
 2073 661.333007812 2071.33300781 647 2068 625 c 0
 1982 240 l 0
EndSplineSet
EndChar

StartChar: oovowel
Encoding: 117 3219 117
Width: 1880
Flags: HW
LayerCount: 2
Fore
SplineSet
1989 268 m 0
 1978.33300781 217.333007812 1958.16699219 172.333007812 1928.5 133 c 0
 1898.83300781 93.6669921875 1865.66699219 62 1829 38 c 0
 1792.33300781 14 1753.33300781 2 1712 2 c 0
 1309 2 l 0
 1265 2 1230 14.3330078125 1204 39 c 0
 1178 59.6669921875 1162.33300781 89.6669921875 1157 129 c 0
 1146.33300781 111 1133.16699219 94.8330078125 1117.5 80.5 c 0
 1101.83300781 66.1669921875 1084.33300781 51.6669921875 1065 37 c 0
 1025.66699219 15 988 4 952 4 c 0
 590 4 l 0
 517.333007812 4 459.333007812 26 416 70 c 0
 382 101.333007812 365 137.333007812 365 178 c 0
 365 184.666992188 366.333007812 199 369 221 c 0
 434 530 l 0
 711 692 l 0
 823 756 900.5 803.833007812 943.5 835.5 c 0
 986.5 867.166992188 1012.66699219 900 1022 934 c 0
 1053 1085 l 0
 1058.33300781 1113.66699219 1053.33300781 1140.33300781 1038 1165 c 0
 1021.33300781 1185.66699219 997.666992188 1196 967 1196 c 0
 801 1196 l 0
 778 1085 l 0
 775.333007812 1064.33300781 779.5 1045.66699219 790.5 1029 c 0
 801.5 1012.33300781 819.333007812 1004 844 1004 c 0
 872 1004 l 0
 829 807 l 0
 733 807 l 0
 669 807 620 834.333007812 586 889 c 0
 560 929.666992188 547 974 547 1022 c 0
 547 1041.33300781 549.666992188 1061.66699219 555 1083 c 0
 621 1389 l 0
 836 1389 l 0
 712 1476.33300781 655.333007812 1547.33300781 666 1602 c 0
 702 1778 l 0
 708.666992188 1823.33300781 739.666992188 1862.66699219 795 1896 c 0
 840.333007812 1927.33300781 894.666992188 1943.33300781 958 1944 c 0
 1206 1944 l 0
 1167 1747 l 0
 991 1747 l 0
 970.333007812 1747 952.166992188 1741.5 936.5 1730.5 c 0
 920.833007812 1719.5 912.333007812 1708 911 1696 c 0
 893 1610 l 0
 882.333007812 1552.66699219 941.666992188 1478 1071 1386 c 0
 1096 1386 l 0
 1141.33300781 1386 1181.33300781 1376.5 1216 1357.5 c 0
 1250.66699219 1338.5 1274.16699219 1316.33300781 1286.5 1291 c 0
 1298.83300781 1265.66699219 1305 1243 1305 1223 c 0
 1305 1216.33300781 1303.33300781 1203.33300781 1300 1184 c 0
 1233 860 l 0
 1227.66699219 826 1204.33300781 793.333007812 1163 762 c 0
 1138.33300781 742.666992188 1116 727 1096 715 c 0
 1045.33300781 683.666992188 972.333007812 639.333007812 877 582 c 0
 647 444 l 0
 618 305 l 0
 616.666992188 298.333007812 616 289.666992188 616 279 c 0
 616 262.333007812 623.166992188 244.5 637.5 225.5 c 0
 651.833007812 206.5 674.333007812 197 705 197 c 0
 956 197 l 0
 984.666992188 197 1013.33300781 209 1042 233 c 0
 1072 263 1090 293.333007812 1096 324 c 0
 1114 418 l 0
 1337 418 l 0
 1315 307 l 0
 1308.33300781 278.333007812 1316.16699219 252.833007812 1338.5 230.5 c 0
 1360.83300781 208.166992188 1391.33300781 197 1430 197 c 0
 1653 197 l 0
 1681.66699219 197 1710.33300781 209 1739 233 c 0
 1769 263 1786.66699219 293.333007812 1792 324 c 0
 1835 520 l 0
 1840.33300781 547.333007812 1835.83300781 569.5 1821.5 586.5 c 0
 1807.16699219 603.5 1787 612 1761 612 c 0
 1688 612 l 0
 1726 807 l 0
 1894 807 l 0
 1954 807 2001.33300781 782.333007812 2036 733 c 0
 2058 699 2068.66699219 660 2068 616 c 0
 2068 599.333007812 2065.33300781 580.333007812 2060 559 c 0
 1989 268 l 0
EndSplineSet
EndChar

StartChar: auvowel
Encoding: 118 3220 118
Width: 1871
Flags: HW
LayerCount: 2
Fore
SplineSet
2208 1063 m 1
 1604 1063 l 2
 1541.33333333 1063 1492.66666667 1089.66666667 1458 1143 c 1
 1433.33333333 1178.33333333 1421 1220 1421 1268 c 0
 1421 1296.66666667 1422.33333333 1318.33333333 1425 1333 c 2
 1473 1565 l 1
 1976 1565 l 1
 1937 1370 l 1
 1632 1370 l 1
 1624 1333 l 1
 1621.33333333 1312.33333333 1625.33333333 1294.66666667 1636 1280 c 1
 1651.33333333 1264.66666667 1669.33333333 1257 1690 1257 c 2
 2023 1257 l 1
 2105 1638 l 1
 2110.33333333 1676 2103.16666667 1706 2083.5 1728 c 128
 2063.83333333 1750 2038.33333333 1761 2007 1761 c 2
 1417 1761 l 1
 1443 1740.33333333 1453.33333333 1719.33333333 1448 1698 c 1
 1438 1640 l 1
 1427.33333333 1596 1407.33333333 1560 1378 1532 c 1
 1342.66666667 1502 1309.33333333 1487 1278 1487 c 2
 651 1487 l 1
 694 1681 l 1
 1227 1681 l 2
 1243.66666667 1681 1258.33333333 1687.5 1271 1700.5 c 128
 1283.66666667 1713.5 1290.66666667 1725 1292 1735 c 1
 1290.66666667 1736.33333333 1289.33333333 1737 1288 1737 c 0
 1272.66666667 1747.66666667 1257.66666667 1755.66666667 1243 1761 c 1
 711 1761 l 1
 750 1958 l 1
 2077 1958 l 2
 2137 1958 2189.83333333 1945.66666667 2235.5 1921 c 128
 2281.16666667 1896.33333333 2311.5 1868.33333333 2326.5 1837 c 128
 2341.5 1805.66666667 2349 1775 2349 1745 c 0
 2349 1735.66666667 2347.66666667 1720 2345 1698 c 1
 2208 1063 l 1
1982 242 m 1
 1970 178 1940.83333333 122 1894.5 74 c 128
 1848.16666667 26 1796.33333333 2 1739 2 c 2
 1300 2 l 2
 1260.66666667 2 1228.66666667 14.3333333333 1204 39 c 1
 1175.33333333 57 1158.33333333 86.3333333333 1153 127 c 1
 1141 106.333333333 1129.5 90.5 1118.5 79.5 c 128
 1107.5 68.5 1091 53.6666666667 1069 35 c 1
 1035 13 1003 2 973 2 c 2
 610 2 l 2
 534.666666667 2 472.666666667 30.6666666667 424 88 c 0
 392.666666667 126 377 171.666666667 377 225 c 0
 377 249.666666667 378.333333333 268.333333333 381 281 c 2
 434 532 l 1
 715 694 l 2
 840.333333333 768 920.5 818.333333333 955.5 845 c 128
 990.5 871.666666667 1012.66666667 902 1022 936 c 1
 1065 1141 l 2
 1071.66666667 1179 1047.66666667 1198 993 1198 c 2
 799 1198 l 1
 776 1087 l 1
 773.333333333 1066.33333333 777.5 1047.66666667 788.5 1031 c 128
 799.5 1014.33333333 817.333333333 1006 842 1006 c 2
 895 1006 l 1
 852 809 l 1
 727 809 l 2
 663 809 614 836.333333333 580 891 c 1
 555.333333333 935 543 979.333333333 543 1024 c 0
 543 1043.33333333 545.666666667 1063.66666667 551 1085 c 2
 616 1391 l 1
 1092 1391 l 2
 1137.33333333 1391 1176.66666667 1382.66666667 1210 1366 c 1
 1244 1345.33333333 1267.5 1322.5 1280.5 1297.5 c 128
 1293.5 1272.5 1300 1249.66666667 1300 1229 c 0
 1300 1222.33333333 1298.66666667 1209.33333333 1296 1190 c 2
 1229 866 l 2
 1223.66666667 837.333333333 1208 812.333333333 1182 791 c 1
 1156 765 1120.33333333 737.666666667 1075 709 c 2
 856 575 l 1
 645 451 l 1
 616 311 l 2
 614.666666667 304.333333333 614 295.666666667 614 285 c 0
 614 268.333333333 620.5 250.5 633.5 231.5 c 128
 646.5 212.5 668.666666667 203 700 203 c 2
 981 203 l 2
 1005.66666667 203 1028.16666667 216.333333333 1048.5 243 c 128
 1068.83333333 269.666666667 1082.66666667 298.666666667 1090 330 c 2
 1108 424 l 1
 1331 424 l 1
 1309 313 l 2
 1303.66666667 284.333333333 1308.83333333 258.833333333 1324.5 236.5 c 128
 1340.16666667 214.166666667 1363 203 1393 203 c 2
 1616 203 l 2
 1655.33333333 203 1691.83333333 216.666666667 1725.5 244 c 128
 1759.16666667 271.333333333 1778.66666667 300 1784 330 c 2
 1827 526 l 2
 1832.33333333 556 1827.16666667 578.833333333 1811.5 594.5 c 128
 1795.83333333 610.166666667 1775 618 1749 618 c 2
 1681 618 l 1
 1720 813 l 1
 1917 813 l 2
 1974.33333333 813 2017.33333333 795.333333333 2046 760 c 0
 2066.66666667 734 2077 703.333333333 2077 668 c 0
 2077 661.333333333 2075.66666667 647 2073 625 c 1
 1982 242 l 1
EndSplineSet
EndChar

StartChar: ka.base
Encoding: 120 -1 120
Width: 1079
Flags: HW
AnchorPoint: "s" 569 -127 basechar 0
LayerCount: 2
Fore
SplineSet
1638 811 m 1
 1235 811 l 1
 1304.33333333 760.333333333 1356.33333333 703 1391 639 c 0
 1417 591 1430 549.333333333 1430 514 c 0
 1430 500 1430 500 1430 489 c 1
 1427.33333333 482.333333333 1425.66666667 478.333333333 1425 477 c 2
 1380 266 l 1
 1368 196.666666667 1333 137.666666667 1275 89 c 128
 1217 40.3333333333 1156.66666667 16 1094 16 c 2
 590 12 l 2
 531.333333333 12 486.333333333 31.3333333333 455 70 c 0
 444.333333333 82 436.166666667 96.8333333333 430.5 114.5 c 128
 424.833333333 132.166666667 422 149.333333333 422 166 c 0
 422 181.333333333 422.666666667 193.666666667 424 203 c 2
 477 455 l 2
 496.333333333 547.666666667 611 668.333333333 821 817 c 1
 387 817 l 1
 430 1014 l 1
 961 1014 l 1
 999 1208 l 1
 469 1208 l 1
 512 1403 l 1
 1438 1403 l 1
 1395 1208 l 1
 1223 1208 l 1
 1184 1014 l 1
 1688 1014 l 1
 1638 811 l 1
1176 317 m 1
 1204 446 l 2
 1206.66666667 461.333333333 1208 474.333333333 1208 485 c 0
 1208 520.333333333 1195 558.666666667 1169 600 c 1
 1137.66666667 660 1088 710 1020 750 c 1
 831.333333333 654.666666667 727 557.666666667 707 459 c 2
 676 307 l 2
 674.666666667 300.333333333 674 291.666666667 674 281 c 0
 674 271.666666667 677.333333333 258 684 240 c 1
 699.333333333 223.333333333 717 215 737 215 c 1
 735 207 l 1
 1087 207 l 2
 1107.66666667 207 1127 218.833333333 1145 242.5 c 128
 1163 266.166666667 1173.33333333 291 1176 317 c 1
EndSplineSet
EndChar

StartChar: ka.imathra
Encoding: 121 -1 121
Width: 1269
Flags: HW
AnchorPoint: "s" 553 -164 basechar 0
LayerCount: 2
Fore
SplineSet
1507 811 m 1
 1196 811 l 1
 1272.66666667 753.666666667 1328.66666667 690.333333333 1364 621 c 0
 1388.66666667 573 1401 527 1401 483 c 0
 1401 472.333333333 1399.66666667 457.333333333 1397 438 c 2
 1346 199 l 2
 1335.33333333 145.666666667 1307 99.8333333333 1261 61.5 c 128
 1215 23.1666666667 1165.33333333 4 1112 4 c 2
 580 4 l 2
 517.333333333 4 470.833333333 21.5 440.5 56.5 c 128
 410.166666667 91.5 395 128 395 166 c 0
 395 178 395.666666667 187.666666667 397 195 c 2
 455 463 l 1
 465.666666667 498.333333333 491.333333333 535.666666667 532 575 c 0
 544 587 577.666666667 616 633 662 c 0
 702.333333333 720.666666667 759 767.666666667 803 803 c 1
 469 803 l 1
 512 999 l 1
 1012 999 l 1
 1225 1210 l 1
 1286 1516 l 2
 1291.33333333 1542 1284.66666667 1554.66666667 1266 1554 c 2
 1126 1554 l 1
 1102 1432 l 2
 1100.66666667 1425.33333333 1104.66666667 1416.5 1114 1405.5 c 128
 1123.33333333 1394.5 1135.66666667 1389 1151 1389 c 2
 1180 1389 l 1
 1137 1194 l 1
 1026 1194 l 2
 975.333333333 1194 933 1211 899 1245 c 1
 877 1271 866 1299 866 1329 c 0
 866 1341 866.666666667 1350.66666667 868 1358 c 2
 950 1747 l 1
 1370 1747 l 2
 1423.33333333 1747 1465.66666667 1729.33333333 1497 1694 c 1
 1516.33333333 1669.33333333 1526 1639.33333333 1526 1604 c 0
 1526 1583.33333333 1524.66666667 1567.33333333 1522 1556 c 2
 1442 1182 l 1
 1253 999 l 1
 1548 999 l 1
 1507 811 l 1
1139 272 m 1
 1171 438 l 2
 1183 496.666666667 1119.66666667 595.666666667 981 735 c 1
 784.333333333 591.666666667 678.666666667 488.666666667 664 426 c 1
 627 244 l 2
 624.333333333 232 629 219.666666667 641 207 c 128
 653 194.333333333 668.666666667 188 688 188 c 2
 1061 188 l 2
 1077.66666667 188 1093.16666667 196.5 1107.5 213.5 c 128
 1121.83333333 230.5 1132.33333333 250 1139 272 c 1
EndSplineSet
LCarets2: 1 0
EndChar

StartChar: ka.sub
Encoding: 122 -1 122
Width: 333
Flags: HW
AnchorPoint: "Sub" -262 541 mark 0
AnchorPoint: "Sub" 406 -844 basemark 0
LayerCount: 2
Fore
SplineSet
612 -297 m 1
 360 -297 l 1
 447.333333333 -363.666666667 483.666666667 -428.666666667 469 -492 c 1
 436 -657 l 2
 425.333333333 -706.333333333 394.333333333 -749.5 343 -786.5 c 128
 291.666666667 -823.5 236 -842 176 -842 c 2
 -141 -842 l 1
 -207.666666667 -836.666666667 -257.5 -816.5 -290.5 -781.5 c 128
 -323.5 -746.5 -340 -707.333333333 -340 -664 c 0
 -340 -647.333333333 -339.333333333 -635.666666667 -338 -629 c 2
 -319 -535 l 1
 -298.333333333 -467 -229.666666667 -387 -113 -295 c 1
 -389 -295 l 1
 -352 -127 l 1
 78 -127 l 1
 240 18 l 1
 358 129 l 2
 377.333333333 148.333333333 388.333333333 168 391 188 c 1
 449 457 l 2
 459.666666667 505 430.666666667 543.666666667 362 573 c 1
 514 684 l 1
 615.333333333 600.666666667 660.333333333 532.333333333 649 479 c 2
 582 156 l 2
 576.666666667 126 556 95 520 63 c 2
 287 -133 l 1
 649 -133 l 1
 612 -297 l 1
258 -596 m 1
 276 -498 l 2
 282.666666667 -464 271.5 -428.5 242.5 -391.5 c 128
 213.5 -354.5 170.333333333 -325.666666667 113 -305 c 1
 54.3333333333 -321.666666667 2.33333333333 -350.333333333 -43 -391 c 1
 -82.3333333333 -435 -107.666666667 -479.333333333 -119 -524 c 1
 -135 -606 l 2
 -140.333333333 -628 -134.5 -646.833333333 -117.5 -662.5 c 128
 -100.5 -678.166666667 -79 -686 -53 -686 c 2
 170 -686 l 2
 192 -686 209 -676.333333333 221 -657 c 1
 237.666666667 -641 250 -620.666666667 258 -596 c 1
EndSplineSet
LCarets2: 1 0
EndChar

StartChar: ka_rvocalicmatra.sub
Encoding: 123 -1 123
Width: 663
Flags: HW
LayerCount: 2
Fore
SplineSet
1219 -563 m 2
 1202.33333333 -641 1164.66666667 -706.666666667 1106 -760 c 1
 1051.33333333 -814.666666667 990 -842 922 -842 c 2
 129 -838 l 2
 69 -838 21.3333333333 -817.333333333 -14 -776 c 0
 -26 -764 -34.8333333333 -749.166666667 -40.5 -731.5 c 128
 -46.1666666667 -713.833333333 -49 -694.666666667 -49 -674 c 0
 -49 -654.666666667 -48.3333333333 -640.333333333 -47 -631 c 2
 33 -256 l 1
 342 -256 l 1
 292.666666667 -235.333333333 250.333333333 -209.333333333 215 -178 c 1
 189 -142.666666667 178.666666667 -114.666666667 184 -94 c 1
 223 102 l 2
 235 162 295 226.333333333 403 295 c 1
 180 295 l 1
 213 463 l 1
 608 463 l 1
 655 686 l 1
 874 686 l 1
 827 463 l 1
 1219 463 l 1
 1186 295 l 1
 889 295 l 1
 942.333333333 274.333333333 981.333333333 248.333333333 1006 217 c 1
 1025.33333333 187 1034.66666667 159 1034 133 c 0
 1034 121 1033.33333333 112 1032 106 c 2
 1008 -16 l 1
 992.666666667 -81.3333333333 957 -137.333333333 901 -184 c 128
 845 -230.666666667 783.666666667 -254 717 -254 c 2
 537 -254 l 1
 504 -420 l 1
 199 -420 l 1
 162 -600 l 2
 156.666666667 -620.666666667 162 -636.333333333 178 -647 c 1
 193.333333333 -662.333333333 213.333333333 -670 238 -670 c 2
 907 -670 l 2
 927.666666667 -670 948.166666667 -655.666666667 968.5 -627 c 128
 988.833333333 -598.333333333 1004 -561.333333333 1014 -516 c 2
 1130 45 l 1
 1136.66666667 84.3333333333 1118.33333333 113.666666667 1075 133 c 1
 1243 272 l 1
 1282.33333333 254 1314.33333333 224.666666667 1339 184 c 1
 1349.66666667 152.666666667 1355.33333333 122.666666667 1356 94 c 0
 1356 77.3333333333 1355.33333333 65 1354 57 c 2
 1219 -563 l 2
813 18 m 2
 831 113 l 2
 833.666666667 132.333333333 835.333333333 146.666666667 836 156 c 0
 836 175.333333333 829.666666667 197.666666667 817 223 c 1
 805 258.333333333 777 284.333333333 733 301 c 1
 580 301 l 1
 540.666666667 280.333333333 505.833333333 253 475.5 219 c 128
 445.166666667 185 427.333333333 153 422 123 c 2
 391 -16 l 1
 389.666666667 -36.6666666667 395.166666667 -53.5 407.5 -66.5 c 128
 419.833333333 -79.5 437 -86 459 -86 c 2
 739 -82 l 2
 754.333333333 -82 770 -72.3333333333 786 -53 c 1
 798.666666667 -33 807.666666667 -9.33333333333 813 18 c 2
EndSplineSet
EndChar

StartChar: kha
Encoding: 124 3222 124
Width: 1914
Flags: HW
LayerCount: 2
Fore
SplineSet
2011 217 m 2
 1999 157 1973.5 105.166666667 1934.5 61.5 c 128
 1895.5 17.8333333333 1856.33333333 -4 1817 -4 c 2
 1520 -4 l 2
 1466.66666667 -4 1416 19.3333333333 1368 66 c 1
 1223 178 l 1
 1197 123.333333333 1157.66666667 79 1105 45 c 128
 1052.33333333 11 996 -6 936 -6 c 2
 479 -6 l 1
 447.666666667 -3.33333333333 421.833333333 1 401.5 7 c 128
 381.166666667 13 361.333333333 24.3333333333 342 41 c 0
 308 71 295.666666667 108 305 152 c 2
 362 428 l 2
 372.666666667 478.666666667 400 521 444 555 c 128
 488 589 534.666666667 606 584 606 c 2
 987 606 l 2
 1053.66666667 606 1095.33333333 587 1112 549 c 1
 1227 1081 l 2
 1229.66666667 1100.33333333 1231 1113.33333333 1231 1120 c 256
 1231 1130 1231 1130 1231 1145 c 1
 1228.33333333 1151.66666667 1227 1155.66666667 1227 1157 c 0
 1211.66666667 1177.66666667 1198 1188 1186 1188 c 2
 932 1188 l 2
 925.333333333 1188 914.333333333 1179.66666667 899 1163 c 1
 888.333333333 1142.33333333 880 1120 874 1096 c 2
 831 885 l 1
 606 885 l 1
 666 1180 l 1
 681.333333333 1240 713.333333333 1287.66666667 762 1323 c 1
 810 1362.33333333 868 1382 936 1382 c 2
 1284 1382 l 2
 1348 1382 1397.33333333 1357 1432 1307 c 0
 1458 1269 1470.66666667 1227.33333333 1470 1182 c 0
 1470 1162.66666667 1467.33333333 1142.66666667 1462 1122 c 2
 1311 403 l 1
 1464 236 l 1
 1504.66666667 198 1547 178.666666667 1591 178 c 2
 1720 178 l 2
 1740.66666667 178 1758.83333333 189 1774.5 211 c 128
 1790.16666667 233 1800.66666667 259 1806 289 c 2
 1980 1102 l 2
 1985.33333333 1126.66666667 1980.66666667 1146.5 1966 1161.5 c 128
 1951.33333333 1176.5 1931 1184 1905 1184 c 2
 1665 1184 l 1
 1704 1378 l 1
 2038 1378 l 2
 2102 1378 2149 1356.33333333 2179 1313 c 1
 2205 1284.33333333 2218 1247.33333333 2218 1202 c 0
 2218 1181.33333333 2217.33333333 1166.33333333 2216 1157 c 2
 2011 217 l 2
1044 264 m 1
 1061 336 l 1
 1029.66666667 381.333333333 979 403.666666667 909 403 c 2
 657 403 l 2
 636.333333333 403 617.166666667 399.333333333 599.5 392 c 128
 581.833333333 384.666666667 571.666666667 376.333333333 569 367 c 2
 541 236 l 2
 538.333333333 220.666666667 544.333333333 208.333333333 559 199 c 1
 565.666666667 187 579.333333333 180.666666667 600 180 c 2
 938 180 l 2
 964 180 987.833333333 188.833333333 1009.5 206.5 c 128
 1031.16666667 224.166666667 1042.66666667 243.333333333 1044 264 c 1
EndSplineSet
LCarets2: 1 0
EndChar

StartChar: kha.base
Encoding: 125 -1 125
Width: 1581
Flags: HW
LayerCount: 2
Fore
SplineSet
2017 217 m 2
 2010.33333333 183 2000.83333333 153.666666667 1988.5 129 c 128
 1976.16666667 104.333333333 1959.66666667 81.6666666667 1939 61 c 1
 1901 17 1862.33333333 -4.66666666667 1823 -4 c 1
 1819 0 l 1
 1522 0 l 2
 1471.33333333 0 1421.33333333 24 1372 72 c 1
 1243 168 l 1
 1221 118.666666667 1182.33333333 78.3333333333 1127 47 c 128
 1071.66666667 15.6666666667 1010.66666667 0 944 0 c 2
 485 0 l 2
 425 0 378.333333333 15 345 45 c 128
 311.666666667 75 299.666666667 112 309 156 c 2
 367 432 l 2
 377.666666667 482.666666667 405.166666667 525 449.5 559 c 128
 493.833333333 593 543.333333333 610 598 610 c 2
 989 610 l 2
 1051.66666667 610 1093.33333333 591 1114 553 c 1
 1233 1114 l 2
 1234.33333333 1120.66666667 1235 1130.33333333 1235 1143 c 0
 1235 1152.33333333 1231.16666667 1163.16666667 1223.5 1175.5 c 128
 1215.83333333 1187.83333333 1202 1194 1182 1194 c 2
 958 1194 l 2
 941.333333333 1194 923 1185.66666667 903 1169 c 1
 886.333333333 1148.33333333 875.333333333 1126 870 1102 c 2
 827 891 l 1
 604 891 l 1
 664 1186 l 1
 679.333333333 1246 711.333333333 1293.66666667 760 1329 c 1
 808 1368.33333333 865.333333333 1388.33333333 932 1389 c 2
 1284 1389 l 2
 1348 1389 1397.33333333 1363.66666667 1432 1313 c 1
 1456.66666667 1273.66666667 1468.66666667 1233.33333333 1468 1192 c 0
 1468 1172.66666667 1465.33333333 1152 1460 1130 c 2
 1309 412 l 1
 1470 272 l 1
 1520.66666667 216 1561 188 1591 188 c 2
 1749 188 l 2
 1773.66666667 188 1788.66666667 203 1794 233 c 2
 1948 961 l 2
 1950.66666667 973 1952 992 1952 1018 c 0
 1952 1062 1939.66666667 1096.66666667 1915 1122 c 1
 1877 1167.33333333 1826.33333333 1190 1763 1190 c 2
 1663 1190 l 1
 1702 1384 l 1
 1929 1384 l 1
 1989 1377.33333333 2040.5 1352.5 2083.5 1309.5 c 128
 2126.5 1266.5 2154.33333333 1215.66666667 2167 1157 c 0
 2173.66666667 1127 2177.33333333 1106.83333333 2178 1096.5 c 128
 2178.66666667 1086.16666667 2179 1075 2179 1063 c 0
 2179 1033 2174.33333333 999 2165 961 c 1
 2017 217 l 2
1038 272 m 1
 1049 326 l 1
 999.666666667 383.333333333 936.666666667 412 860 412 c 2
 621 412 l 2
 610.333333333 412 601.833333333 410.166666667 595.5 406.5 c 128
 589.166666667 402.833333333 585.333333333 401 584 401 c 0
 573.333333333 394.333333333 566.333333333 386.333333333 563 377 c 2
 535 246 l 2
 532.333333333 230.666666667 538.333333333 218.333333333 553 209 c 1
 559.666666667 197 573.333333333 190.666666667 594 190 c 2
 932 190 l 2
 956.666666667 190 980.166666667 198.5 1002.5 215.5 c 128
 1024.83333333 232.5 1036.66666667 251.333333333 1038 272 c 1
EndSplineSet
EndChar

StartChar: kha.imathra
Encoding: 126 -1 126
Width: 1914
Flags: HW
LayerCount: 2
Fore
SplineSet
2017 217 m 2
 2010.33333333 183 2000.83333333 153.666666667 1988.5 129 c 128
 1976.16666667 104.333333333 1959.66666667 81.6666666667 1939 61 c 1
 1901 17 1862.33333333 -4.66666666667 1823 -4 c 1
 1819 0 l 1
 1522 0 l 2
 1471.33333333 0 1421.33333333 24 1372 72 c 1
 1229 182 l 1
 1204.33333333 131.333333333 1166.66666667 88.6666666667 1116 54 c 128
 1065.33333333 19.3333333333 1013.66666667 2 961 2 c 2
 485 2 l 2
 425 2 378.333333333 17 345 47 c 128
 311.666666667 77 299.666666667 114 309 158 c 2
 367 434 l 2
 377.666666667 484.666666667 405.166666667 527 449.5 561 c 128
 493.833333333 595 543.333333333 612 598 612 c 2
 989 612 l 2
 1033 612 1074 584.666666667 1112 530 c 1
 1229 1090 l 2
 1230.33333333 1096.66666667 1231 1107.33333333 1231 1122 c 0
 1231 1138.66666667 1227.66666667 1153 1221 1165 c 1
 1204.33333333 1185.66666667 1183.66666667 1196 1159 1196 c 2
 963 1196 l 2
 946.333333333 1196 927.666666667 1187.66666667 907 1171 c 1
 890.333333333 1150.33333333 879.333333333 1128 874 1104 c 2
 831 893 l 1
 608 893 l 1
 668 1188 l 1
 683.333333333 1248 715.333333333 1295.66666667 764 1331 c 1
 812 1370.33333333 869.333333333 1390.33333333 936 1391 c 2
 1288 1391 l 2
 1352 1391 1401.33333333 1365.66666667 1436 1315 c 1
 1460.66666667 1275.66666667 1473 1235.33333333 1473 1194 c 0
 1473 1174.66666667 1470 1154.33333333 1464 1133 c 2
 1313 414 l 1
 1446 274 l 1
 1514 218 1583 190 1653 190 c 2
 1724 190 l 2
 1744.66666667 190 1762.16666667 197.166666667 1776.5 211.5 c 128
 1790.83333333 225.833333333 1800.66666667 243.333333333 1806 264 c 2
 2023 1298 l 2
 2024.33333333 1307.33333333 2025 1319.66666667 2025 1335 c 256
 2025 1350.33333333 2022.66666667 1363.5 2018 1374.5 c 128
 2013.33333333 1385.5 2000 1391 1978 1391 c 2
 1907 1391 l 1
 1868 1382 l 1
 1862.66666667 1379.33333333 1858.16666667 1375.66666667 1854.5 1371 c 128
 1850.83333333 1366.33333333 1848.33333333 1361.33333333 1847 1356 c 2
 1837 1311 l 1
 1834.33333333 1285 1837.83333333 1264.83333333 1847.5 1250.5 c 128
 1857.16666667 1236.16666667 1867.33333333 1229 1878 1229 c 2
 1960 1229 l 1
 1917 1032 l 1
 1737 1032 l 2
 1689 1032 1650.66666667 1052 1622 1092 c 0
 1601.33333333 1122 1591 1154 1591 1188 c 0
 1591 1194.66666667 1592.33333333 1207.66666667 1595 1227 c 2
 1634 1421 l 2
 1644.66666667 1470.33333333 1674.66666667 1510.66666667 1724 1542 c 128
 1773.33333333 1573.33333333 1825.33333333 1589 1880 1589 c 2
 2103 1589 l 2
 2160.33333333 1589 2204.66666667 1566.66666667 2236 1522 c 1
 2256.66666667 1486.66666667 2267 1449 2267 1409 c 0
 2267 1398.33333333 2265.66666667 1382 2263 1360 c 1
 2017 217 l 2
1051 281 m 2
 1061 324 l 1
 998.333333333 388 940.333333333 420 887 420 c 2
 649 420 l 2
 639.666666667 420 631.166666667 419.333333333 623.5 418 c 128
 615.833333333 416.666666667 605.833333333 413.166666667 593.5 407.5 c 128
 581.166666667 401.833333333 573.666666667 394.333333333 571 385 c 2
 549 270 l 1
 543.666666667 253.333333333 544.333333333 237 551 221 c 1
 552.333333333 205.666666667 560.333333333 198.333333333 575 199 c 2
 938 199 l 2
 962.666666667 199 986.333333333 207.5 1009 224.5 c 128
 1031.66666667 241.5 1045.66666667 260.333333333 1051 281 c 2
EndSplineSet
LCarets2: 1 0
EndChar

StartChar: kha.sub
Encoding: 127 -1 127
Width: 317
Flags: HW
AnchorPoint: "Sub" -614 514 mark 0
AnchorPoint: "Sub" 414 -858 basemark 0
LayerCount: 2
Fore
SplineSet
524 -485 m 2
 507.333333333 -564.333333333 465.333333333 -633 398 -691 c 128
 330.666666667 -749 258.666666667 -778 182 -778 c 2
 45 -778 l 2
 24.3333333333 -778 -24.6666666667 -763.666666667 -102 -735 c 1
 -203.333333333 -801.666666667 -279.333333333 -835.333333333 -330 -836 c 2
 -635 -836 l 1
 -625 -836 l 2
 -673 -836 -714 -821 -748 -791 c 1
 -770 -769 -780.666666667 -743 -780 -713 c 0
 -780 -701 -779.333333333 -691.333333333 -778 -684 c 2
 -750 -561 l 1
 -743.333333333 -515.666666667 -718 -474.666666667 -674 -438 c 128
 -630 -401.333333333 -581.333333333 -383 -528 -383 c 2
 -305 -383 l 2
 -283 -383 -268 -387.666666667 -260 -397 c 1
 -143 -492 l 1
 -111 -324 l 2
 -109.666666667 -318.666666667 -109 -312.833333333 -109 -306.5 c 128
 -109 -297 -109 -297 -109 -295 c 0
 -109 -273 -112.333333333 -256 -119 -244 c 1
 -137 -219.333333333 -156.666666667 -207 -178 -207 c 2
 -207 -207 l 1
 -231 -317 l 1
 -426 -317 l 1
 -369 -51 l 1
 -100 -51 l 2
 -27.3333333333 -51 26.3333333333 -77.6666666667 61 -131 c 0
 85.6666666667 -166.333333333 98 -208 98 -256 c 0
 98 -276.666666667 95.3333333333 -300 90 -326 c 2
 33 -606 l 1
 59 -625.333333333 81.3333333333 -635 100 -635 c 2
 211 -635 l 2
 237 -635 260.166666667 -621.333333333 280.5 -594 c 128
 300.833333333 -566.666666667 316 -530.333333333 326 -485 c 2
 508 383 l 2
 513.333333333 411.666666667 505.666666667 435.666666667 485 455 c 1
 468.333333333 474.333333333 441 483.666666667 403 483 c 2
 293 483 l 1
 330 659 l 1
 459 659 l 2
 545 659 612.666666667 634.666666667 662 586 c 1
 697.333333333 548 715 503.666666667 715 453 c 0
 715 431 713.666666667 414.333333333 711 403 c 2
 524 -485 l 2
-240 -651 m 1
 -290.666666667 -593.666666667 -345 -565 -403 -565 c 2
 -526 -565 l 2
 -554.666666667 -565 -572 -574.666666667 -578 -594 c 1
 -592 -662 l 1
 -589.333333333 -672.666666667 -586.666666667 -678 -584 -678 c 0
 -574.666666667 -683.333333333 -566.333333333 -686 -559 -686 c 2
 -334 -686 l 2
 -322 -686 -290.666666667 -674.333333333 -240 -651 c 1
EndSplineSet
LCarets2: 1 0
EndChar

StartChar: ga.base
Encoding: 129 -1 129
Width: 1126
Flags: HW
LayerCount: 2
Fore
SplineSet
1516 0 m 1
 1292 0 l 1
 1503 997 l 2
 1504.33333333 1003.66666667 1505 1015.33333333 1505 1032 c 0
 1505 1058 1501.66666667 1079.33333333 1495 1096 c 0
 1478.33333333 1130 1454.33333333 1155.5 1423 1172.5 c 128
 1391.66666667 1189.5 1355.66666667 1198 1315 1198 c 2
 1104 1198 l 2
 1044 1198 988.333333333 1178.16666667 937 1138.5 c 128
 885.666666667 1098.83333333 854.666666667 1051 844 995 c 2
 633 -2 l 1
 408 -2 l 1
 621 1006 l 2
 637.666666667 1082.66666667 687.333333333 1147.33333333 770 1200 c 1
 659 1200 l 1
 702 1395 l 1
 1485 1395 l 1
 1576.33333333 1373 1646.66666667 1323.66666667 1696 1247 c 0
 1726 1197.66666667 1741 1139.66666667 1741 1073 c 0
 1741 1048.33333333 1738.33333333 1023 1733 997 c 2
 1516 0 l 1
EndSplineSet
EndChar

StartChar: ga.imathra
Encoding: 130 -1 130
Width: 1492
Flags: HW
LayerCount: 2
Fore
SplineSet
1544 0 m 1
 1321 0 l 1
 1532 997 l 2
 1534.66666667 1012.33333333 1536 1033 1536 1059 c 0
 1536 1093 1528.33333333 1120.33333333 1513 1141 c 1
 1491 1180.33333333 1455.66666667 1200 1407 1200 c 2
 1044 1200 l 2
 996 1200 953 1181 915 1143 c 1
 877 1109 852.666666667 1063.33333333 842 1006 c 2
 627 -2 l 1
 401 -2 l 1
 612 995 l 1
 624 1060.33333333 651.666666667 1120 695 1174 c 128
 738.333333333 1228 787.333333333 1269.33333333 842 1298 c 1
 798 1314.66666667 763 1340 737 1374 c 0
 721.666666667 1396 714.333333333 1422.66666667 715 1454 c 0
 715 1469.33333333 715.666666667 1480.33333333 717 1487 c 2
 748 1626 l 1
 754.666666667 1671.33333333 783.333333333 1713.66666667 834 1753 c 1
 884.666666667 1787 937 1804 991 1804 c 2
 1366 1804 l 2
 1467.33333333 1804 1554.5 1775.33333333 1627.5 1718 c 128
 1700.5 1660.66666667 1751.33333333 1583 1780 1485 c 0
 1786.66666667 1463 1791.66666667 1437 1795 1407 c 128
 1798.33333333 1377 1800 1347 1800 1317 c 0
 1800 1267.66666667 1794.66666667 1217.66666667 1784 1167 c 2
 1544 0 l 1
1589 1296 m 1
 1589 1391.33333333 1559 1468.16666667 1499 1526.5 c 128
 1439 1584.83333333 1357.66666667 1614 1255 1614 c 2
 1059 1614 l 2
 995 1614 959.333333333 1596.33333333 952 1561 c 2
 938 1493 l 2
 936.666666667 1486.33333333 936 1479.83333333 936 1473.5 c 128
 936 1464 936 1464 936 1462 c 0
 936 1446.66666667 937.666666667 1433 941 1421 c 128
 944.333333333 1409 953.666666667 1401.66666667 969 1399 c 1
 1444 1399 l 2
 1502.66666667 1398.33333333 1551 1364 1589 1296 c 1
EndSplineSet
LCarets2: 1 0
EndChar

StartChar: ga.sub
Encoding: 131 -1 131
Width: 194
Flags: HW
AnchorPoint: "Sub" -442 -123 mark 0
AnchorPoint: "Sub" 213 -877 basemark 0
LayerCount: 2
Fore
SplineSet
219 -840 m 1
 23 -840 l 1
 117 -393 l 2
 122.333333333 -364.333333333 117.333333333 -337.666666667 102 -313 c 1
 81.3333333333 -292.333333333 57 -282.333333333 29 -283 c 2
 -137 -283 l 2
 -168.333333333 -283 -196.666666667 -293.166666667 -222 -313.5 c 128
 -247.333333333 -333.833333333 -262.666666667 -359.666666667 -268 -391 c 2
 -362 -838 l 1
 -559 -838 l 1
 -465 -391 l 2
 -448.333333333 -313 -409 -247.166666667 -347 -193.5 c 128
 -285 -139.833333333 -217 -113 -143 -113 c 2
 96 -113 l 2
 174 -113 235 -136.666666667 279 -184 c 1
 310.333333333 -215.333333333 326 -256.333333333 326 -307 c 0
 326 -319 324.666666667 -336 322 -358 c 1
 219 -840 l 1
EndSplineSet
LCarets2: 1 0
EndChar

StartChar: gha.base
Encoding: 133 -1 133
Width: 1986
Flags: HW
LayerCount: 2
Fore
SplineSet
2656 1204 m 1
 2011 1204 l 1
 2060.33333333 1166 2085 1112 2085 1042 c 0
 2085 1022.66666667 2084.33333333 1008.33333333 2083 999 c 1
 2121 893.666666667 2170 841.333333333 2230 842 c 1
 2260 844.666666667 2285.33333333 853.833333333 2306 869.5 c 128
 2326.66666667 885.166666667 2337.66666667 902.666666667 2339 922 c 1
 2382 1118 l 1
 2605 1118 l 1
 2572 950 l 2
 2561.33333333 899.333333333 2541 849.833333333 2511 801.5 c 128
 2481 753.166666667 2445.5 715.333333333 2404.5 688 c 128
 2363.5 660.666666667 2324 647 2286 647 c 2
 2175 647 l 2
 2115 647 2066 674.333333333 2028 729 c 1
 1933 283 l 1
 1912.33333333 203.666666667 1875.16666667 137.333333333 1821.5 84 c 128
 1767.83333333 30.6666666667 1711 4 1651 4 c 2
 1317 4 l 2
 1266.33333333 4 1226 21.6666666667 1196 57 c 0
 1176.66666667 79 1162.33333333 101.666666667 1153 125 c 128
 1143.66666667 148.333333333 1138.33333333 171 1137 193 c 1
 1107 134.333333333 1069.33333333 87.6666666667 1024 53 c 0
 1003.33333333 36.3333333333 981.166666667 23.3333333333 957.5 14 c 128
 933.833333333 4.66666666667 912.333333333 0 893 0 c 2
 541 0 l 2
 490.333333333 0 449.333333333 24 418 72 c 1
 401.333333333 106 393 142.666666667 393 182 c 0
 393 206.666666667 394.333333333 225.333333333 397 238 c 2
 522 836 l 1
 831 836 l 2
 903.666666667 836 957.666666667 812 993 764 c 1
 1021.66666667 730 1036 688.333333333 1036 639 c 0
 1036 627 1034.66666667 610 1032 588 c 1
 1022 535 l 1
 797 535 l 1
 805 578 l 1
 806.333333333 597.333333333 804.333333333 614.333333333 799 629 c 1
 783.666666667 639.666666667 768.666666667 645 754 645 c 2
 709 645 l 1
 635 299 l 2
 633.666666667 292.333333333 633 282.666666667 633 270 c 0
 633 259.333333333 634.666666667 251 638 245 c 128
 641.333333333 239 643 235 643 233 c 0
 652.333333333 212.333333333 666.666666667 202.333333333 686 203 c 2
 909 203 l 2
 943 203 976.833333333 223.833333333 1010.5 265.5 c 128
 1044.16666667 307.166666667 1066.33333333 357.333333333 1077 416 c 2
 1108 563 l 1
 1331 563 l 1
 1300 416 l 2
 1298.66666667 406.666666667 1298 393.666666667 1298 377 c 0
 1298 365 1299.83333333 351 1303.5 335 c 128
 1307.16666667 319 1311.66666667 301 1317 281 c 1
 1339 231.666666667 1364.33333333 207 1393 207 c 2
 1616 207 l 2
 1638 207 1661.33333333 216.666666667 1686 236 c 1
 1702.66666667 255.333333333 1713.33333333 279.666666667 1718 309 c 2
 1862 979 l 1
 1864.66666667 1001 1866 1016.66666667 1866 1026 c 0
 1866 1066.66666667 1850.33333333 1105 1819 1141 c 0
 1779.66666667 1186.33333333 1723 1208.66666667 1649 1208 c 2
 598 1208 l 1
 641 1403 l 1
 2714 1403 l 1
 2656 1204 l 1
1391 846 m 1
 1167 846 l 1
 1214 1069 l 1
 1438 1069 l 1
 1391 846 l 1
1149 -287 m 1
 926 -287 l 1
 985 -6 l 1
 1208 -6 l 1
 1149 -287 l 1
EndSplineSet
EndChar

StartChar: gha.imathra
Encoding: 134 -1 134
Width: 2367
Flags: HW
LayerCount: 2
Fore
SplineSet
1464 1233 m 1
 1453.33333333 1166.33333333 1423.33333333 1113 1374 1073 c 1
 1333.33333333 1032.33333333 1284.33333333 1012 1227 1012 c 2
 864 1012 l 1
 903 1206 l 1
 1180 1206 l 1
 1199.33333333 1208.66666667 1216 1217.83333333 1230 1233.5 c 128
 1244 1249.16666667 1251.66666667 1266.66666667 1253 1286 c 1
 1305 1526 l 2
 1307.66666667 1545.33333333 1309 1558.33333333 1309 1565 c 256
 1309 1571.66666667 1307.66666667 1580.33333333 1305 1591 c 1
 1295.66666667 1607.66666667 1283.33333333 1616 1268 1616 c 2
 1167 1616 l 2
 1141 1616 1126.66666667 1603.66666667 1124 1579 c 1
 1110 1522 l 2
 1108.66666667 1512.66666667 1110.66666667 1503.16666667 1116 1493.5 c 128
 1121.33333333 1483.83333333 1129.66666667 1479 1141 1479 c 2
 1241 1479 l 1
 1198 1282 l 1
 1016 1282 l 2
 972 1282 934.333333333 1299 903 1333 c 0
 893.666666667 1345 886.166666667 1358.66666667 880.5 1374 c 128
 874.833333333 1389.33333333 872 1404.33333333 872 1419 c 0
 872 1431 872.666666667 1440.66666667 874 1448 c 2
 907 1602 l 1
 917.666666667 1662 948.333333333 1709.66666667 999 1745 c 1
 1044.33333333 1784.33333333 1096.33333333 1804 1155 1804 c 2
 1421 1804 l 2
 1466.33333333 1804 1502 1785 1528 1747 c 0
 1543.33333333 1725 1550.66666667 1696.33333333 1550 1661 c 0
 1550 1639 1548.66666667 1622.66666667 1546 1612 c 2
 1464 1233 l 1
2632 942 m 2
 2622.66666667 904 2610.33333333 870.666666667 2595 842 c 128
 2579.66666667 813.333333333 2559.66666667 786.666666667 2535 762 c 0
 2489.66666667 714 2438.66666667 690 2382 690 c 2
 2187 690 l 2
 2128.33333333 690 2079.33333333 717.333333333 2040 772 c 1
 1935 270 l 1
 1914.33333333 190.666666667 1877.16666667 124.5 1823.5 71.5 c 128
 1769.83333333 18.5 1713 -8 1653 -8 c 2
 1323 -8 l 2
 1272.33333333 -8 1231.33333333 7.66666666667 1200 39 c 1
 1160.66666667 73 1141 112.666666667 1141 158 c 1
 1113.66666667 108.666666667 1077.83333333 68.3333333333 1033.5 37 c 128
 989.166666667 5.66666666667 943 -10 895 -10 c 2
 549 -10 l 2
 494.333333333 -10 452.666666667 10.3333333333 424 51 c 0
 403.333333333 82.3333333333 393 116 393 152 c 0
 393 162.666666667 394.333333333 177.666666667 397 197 c 2
 528 823 l 1
 838 823 l 2
 907.333333333 823 961 801.333333333 999 758 c 1
 1029 728 1044 691 1044 647 c 0
 1044 626.333333333 1043.33333333 611.333333333 1042 602 c 2
 1026 520 l 1
 801 520 l 1
 815 592 l 2
 817.666666667 604 813 612.666666667 801 618 c 1
 791.666666667 624.666666667 776 628.333333333 754 629 c 2
 715 629 l 1
 641 283 l 2
 639.666666667 276.333333333 639 266.666666667 639 254 c 0
 639 238.666666667 643.166666667 223.166666667 651.5 207.5 c 128
 659.833333333 191.833333333 671.333333333 184 686 184 c 2
 909 184 l 2
 947 184 982.833333333 204.833333333 1016.5 246.5 c 128
 1050.16666667 288.166666667 1072.33333333 338.333333333 1083 397 c 2
 1114 545 l 1
 1337 545 l 1
 1307 397 l 1
 1305.66666667 381.666666667 1305 371 1305 365 c 0
 1305 335 1313.83333333 297.666666667 1331.5 253 c 128
 1349.16666667 208.333333333 1372.33333333 186 1401 186 c 2
 1624 186 l 2
 1644.66666667 186 1665.83333333 196 1687.5 216 c 128
 1709.16666667 236 1723 260.333333333 1729 289 c 2
 1896 1081 l 2
 1901.33333333 1109.66666667 1896.66666667 1136.33333333 1882 1161 c 1
 1861.33333333 1181.66666667 1836.66666667 1192 1808 1192 c 2
 1651 1192 l 1
 1694 1386 l 1
 1919 1386 l 2
 1968.33333333 1386 2010 1371.66666667 2044 1343 c 1
 2075.33333333 1311.66666667 2097 1271.66666667 2109 1223 c 0
 2114.33333333 1201 2117.33333333 1175.66666667 2118 1147 c 256
 2118 1118.33333333 2115 1088.33333333 2109 1057 c 1
 2157 946.333333333 2203.66666667 891 2249 891 c 2
 2349 891 l 2
 2364.33333333 891 2380 901.333333333 2396 922 c 0
 2401.33333333 928.666666667 2406.5 938.166666667 2411.5 950.5 c 128
 2416.5 962.833333333 2421.66666667 979 2427 999 c 2
 2509 1389 l 1
 2732 1389 l 1
 2632 942 l 2
1137 -344 m 1
 913 -344 l 1
 973 -68 l 1
 1196 -68 l 1
 1137 -344 l 1
EndSplineSet
LCarets2: 1 0
EndChar

StartChar: gha.sub
Encoding: 135 -1 135
Width: 409
Flags: HW
AnchorPoint: "Sub" -707 236 mark 0
AnchorPoint: "Sub" 520 -829 basemark 0
LayerCount: 2
Fore
SplineSet
803 -66 m 1
 782.333333333 -167.333333333 718.666666667 -247 612 -305 c 1
 575 -485 l 2
 563 -543.666666667 534.833333333 -595.333333333 490.5 -640 c 128
 446.166666667 -684.666666667 394.666666667 -707 336 -707 c 2
 39 -707 l 2
 -10.3333333333 -707 -50 -692 -80 -662 c 1
 -116.666666667 -630.666666667 -141.333333333 -590.333333333 -154 -541 c 1
 -199.333333333 -598.333333333 -249.5 -643.666666667 -304.5 -677 c 128
 -359.5 -710.333333333 -410.333333333 -727 -457 -727 c 2
 -748 -727 l 2
 -805.333333333 -727 -846 -709.333333333 -870 -674 c 1
 -894.666666667 -644 -907 -613.333333333 -907 -582 c 0
 -907 -576.666666667 -905.666666667 -564.333333333 -903 -545 c 2
 -864 -350 l 1
 -848.666666667 -290 -819 -240.833333333 -775 -202.5 c 128
 -731 -164.166666667 -681.666666667 -145 -627 -145 c 2
 -346 -145 l 1
 -383 -311 l 1
 -594 -311 l 2
 -613.333333333 -311 -630.833333333 -318.5 -646.5 -333.5 c 128
 -662.166666667 -348.5 -671.333333333 -364.333333333 -674 -381 c 2
 -698 -506 l 2
 -699.333333333 -518 -696.666666667 -530.333333333 -690 -543 c 1
 -678 -552.333333333 -666.333333333 -557 -655 -557 c 2
 -403 -557 l 2
 -374.333333333 -557 -337.666666667 -534.333333333 -293 -489 c 1
 -252.333333333 -443.666666667 -227.666666667 -402.333333333 -219 -365 c 2
 -203 -283 l 1
 -6 -283 l 1
 -25 -379 l 2
 -30.3333333333 -413 -20.6666666667 -447 4 -481 c 1
 32.6666666667 -515 62.6666666667 -532 94 -532 c 2
 328 -532 l 2
 358 -532 377.666666667 -513 387 -475 c 1
 410 -365 l 1
 186 -365 l 1
 223 -197 l 1
 475 -197 l 2
 505 -197 534.333333333 -184 563 -158 c 1
 572.333333333 -147.333333333 582.5 -133.333333333 593.5 -116 c 128
 604.5 -98.6666666667 611.333333333 -80.3333333333 614 -61 c 2
 645 96 l 1
 650.333333333 114 623 144.666666667 563 188 c 1
 707 328 l 1
 812.333333333 250 857.333333333 176 842 106 c 2
 803 -66 l 1
-129 -844 m 1
 -326 -844 l 1
 -301 -715 l 1
 -176 -592 l 1
 -104 -715 l 1
 -129 -844 l 1
EndSplineSet
LCarets2: 1 0
EndChar

StartChar: nga
Encoding: 136 3225 136
Width: 1785
Flags: HW
LayerCount: 2
Fore
SplineSet
1896 223 m 2
 1884 163 1854.5 111.166666667 1807.5 67.5 c 128
 1760.5 23.8333333333 1709.66666667 2 1655 2 c 2
 1264 2 l 2
 1220 2 1182.33333333 16.6666666667 1151 46 c 128
 1119.66666667 75.3333333333 1104 112.666666667 1104 158 c 1
 1082 110 1052.66666667 71.6666666667 1016 43 c 128
 979.333333333 14.3333333333 943 0 907 0 c 2
 532 0 l 2
 473.333333333 0 427 19 393 57 c 0
 368.333333333 83 356 116 356 156 c 0
 356 171.333333333 356.666666667 183.666666667 358 193 c 2
 424 489 l 1
 905 836 l 1
 933.666666667 851.333333333 955.666666667 888 971 946 c 1
 1004 1114 l 1
 1009.33333333 1134.66666667 1002.33333333 1154.66666667 983 1174 c 1
 963.666666667 1189.33333333 939 1196.66666667 909 1196 c 2
 799 1196 l 1
 782 1114 l 2
 776.666666667 1093.33333333 778.666666667 1073.66666667 788 1055 c 1
 793.333333333 1038.33333333 803.666666667 1030 819 1030 c 2
 848 1030 l 1
 805 836 l 1
 666 836 l 2
 622 836 587.666666667 856.333333333 563 897 c 0
 546.333333333 923 538.333333333 953.666666667 539 989 c 0
 539 998.333333333 540.333333333 1016 543 1042 c 1
 616 1389 l 1
 997 1389 l 2
 1059.66666667 1389 1112 1375.66666667 1154 1349 c 128
 1196 1322.33333333 1217 1286.33333333 1217 1241 c 1
 1323.66666667 1339 1427.33333333 1388.33333333 1528 1389 c 2
 1946 1389 l 2
 1991.33333333 1389 2022.33333333 1375.33333333 2039 1348 c 128
 2055.66666667 1320.66666667 2064 1294 2064 1268 c 0
 2064 1262.66666667 2062.66666667 1249 2060 1227 c 1
 2028 1059 l 1
 1804 1059 l 1
 1819 1130 l 1
 1824.33333333 1149.33333333 1822 1166.66666667 1812 1182 c 1
 1801.33333333 1192.66666667 1785.66666667 1198 1765 1198 c 2
 1554 1198 l 2
 1487.33333333 1198 1419.83333333 1180.66666667 1351.5 1146 c 128
 1283.16666667 1111.33333333 1226.66666667 1064.66666667 1182 1006 c 1
 1157 883 l 1
 1136.33333333 791.666666667 1094.66666667 726 1032 686 c 1
 631 381 l 1
 608 270 l 1
 602.666666667 253.333333333 607.833333333 237.333333333 623.5 222 c 128
 639.166666667 206.666666667 661.333333333 199 690 199 c 2
 866 199 l 2
 905.333333333 199 940.166666667 209.166666667 970.5 229.5 c 128
 1000.83333333 249.833333333 1020.66666667 275.666666667 1030 307 c 1
 1053 418 l 1
 1276 418 l 1
 1253 307 l 2
 1247.66666667 278.333333333 1256 252.833333333 1278 230.5 c 128
 1300 208.166666667 1330 197 1368 197 c 2
 1620 197 l 2
 1639.33333333 197 1654 202 1664 212 c 128
 1674 222 1682 235.333333333 1688 252 c 1
 1747 532 l 1
 1749.66666667 554 1751 567.666666667 1751 573 c 0
 1751 599 1742.66666667 612 1726 612 c 2
 1569 612 l 1
 1608 807 l 1
 1831 807 l 2
 1871.66666667 807 1902.33333333 797.333333333 1923 778 c 1
 1949 758.666666667 1967.33333333 735 1978 707 c 1
 1983.33333333 685 1986.33333333 663.666666667 1987 643 c 0
 1987 636.333333333 1985.33333333 623.333333333 1982 604 c 1
 1896 223 l 2
1296 532 m 1
 1073 532 l 1
 1118 756 l 1
 1341 756 l 1
 1296 532 l 1
EndSplineSet
LCarets2: 1 0
EndChar

StartChar: nga.sub
Encoding: 137 -1 137
Width: 380
Flags: HW
AnchorPoint: "Sub" -795 -66 mark 0
AnchorPoint: "Sub" 582 -836 basemark 0
LayerCount: 2
Fore
SplineSet
33 -446 m 1
 -162 -446 l 1
 -133 -307 l 1
 61 -307 l 1
 33 -446 l 1
618 -655 m 1
 607.333333333 -704.333333333 583 -746.666666667 545 -782 c 1
 499.666666667 -817.333333333 456.666666667 -835.333333333 416 -836 c 2
 25 -836 l 2
 -9 -836 -38.3333333333 -825 -63 -803 c 128
 -87.6666666667 -781 -105 -749.666666667 -115 -709 c 1
 -130.333333333 -743 -157.666666667 -773 -197 -799 c 0
 -209 -808.333333333 -226 -816.833333333 -248 -824.5 c 128
 -270 -832.166666667 -289 -836 -305 -836 c 2
 -723 -836 l 2
 -772.333333333 -836 -814.666666667 -820 -850 -788 c 1
 -874.666666667 -762 -887 -731.333333333 -887 -696 c 0
 -887 -685.333333333 -886.333333333 -677.333333333 -885 -672 c 2
 -852 -518 l 1
 -845.333333333 -477.333333333 -821.166666667 -442.333333333 -779.5 -413 c 128
 -737.833333333 -383.666666667 -696.333333333 -369 -655 -369 c 2
 -516 -369 l 2
 -496.666666667 -369 -486.333333333 -359.333333333 -485 -340 c 1
 -475 -287 l 1
 -473.666666667 -267.666666667 -480.666666667 -258 -496 -258 c 2
 -776 -258 l 1
 -739 -92 l 1
 -377 -92 l 2
 -343 -92 -317.666666667 -99.6666666667 -301 -115 c 1
 -281.666666667 -137 -272.666666667 -160 -274 -184 c 1
 -230 -121.333333333 -171.333333333 -90 -98 -90 c 2
 236 -90 l 2
 293.333333333 -90 336.333333333 -105 365 -135 c 0
 387 -157 397.666666667 -183.666666667 397 -215 c 0
 397 -220.333333333 395.666666667 -232.666666667 393 -252 c 2
 371 -362 l 1
 176 -362 l 1
 193 -281 l 2
 198.333333333 -251 177 -236 129 -236 c 2
 -94 -236 l 2
 -129.333333333 -236 -165.833333333 -248.5 -203.5 -273.5 c 128
 -241.166666667 -298.5 -273 -333 -299 -377 c 1
 -313 -444 l 2
 -318.333333333 -466 -335.5 -485.5 -364.5 -502.5 c 128
 -393.5 -519.5 -425.666666667 -528 -461 -528 c 2
 -614 -528 l 2
 -648 -528 -666.666666667 -540.333333333 -670 -565 c 1
 -684 -623 l 1
 -684 -635 -680.666666667 -643.666666667 -674 -649 c 1
 -668.666666667 -658.333333333 -658.333333333 -663.333333333 -643 -664 c 2
 -324 -664 l 2
 -292.666666667 -664 -263.666666667 -655.333333333 -237 -638 c 128
 -210.333333333 -620.666666667 -196.333333333 -602 -195 -582 c 1
 -176 -500 l 1
 18 -500 l 1
 4 -565 l 2
 2.66666666667 -571.666666667 2 -580.666666667 2 -592 c 0
 2 -608.666666667 8.83333333333 -626.5 22.5 -645.5 c 128
 36.1666666667 -664.5 58 -674 88 -674 c 2
 356 -674 l 2
 376.666666667 -674 394.5 -667.5 409.5 -654.5 c 128
 424.5 -641.5 432.666666667 -626.666666667 434 -610 c 1
 465 -471 l 1
 651 -471 l 1
 618 -655 l 1
EndSplineSet
LCarets2: 1 0
EndChar

StartChar: ca.base
Encoding: 139 -1 139
Width: 1595
Flags: HW
LayerCount: 2
Fore
SplineSet
2140 698 m 1
 1917 698 l 1
 1941.66666667 673.333333333 1954 645.333333333 1954 614 c 0
 1954 603.333333333 1953.33333333 595.333333333 1952 590 c 2
 1876 227 l 2
 1864 164.333333333 1832.66666667 111.833333333 1782 69.5 c 128
 1731.33333333 27.1666666667 1676.66666667 6 1618 6 c 2
 1217 6 l 2
 1181.66666667 6 1150.66666667 16.3333333333 1124 37 c 1
 1099.33333333 61.6666666667 1087 88.3333333333 1087 117 c 1
 1076.33333333 88.3333333333 1052.66666667 62.6666666667 1016 40 c 128
 979.333333333 17.3333333333 939 6 895 6 c 2
 549 6 l 2
 490.333333333 6 443.333333333 30 408 78 c 0
 383.333333333 109.333333333 371 149 371 197 c 0
 371 206.333333333 372.333333333 222 375 244 c 1
 440 549 l 1
 918 829 l 1
 977 1110 l 2
 982.333333333 1140 977.5 1162.83333333 962.5 1178.5 c 128
 947.5 1194.16666667 926.333333333 1202 899 1202 c 2
 805 1202 l 1
 786 1108 l 1
 786 1083.33333333 790.166666667 1064.83333333 798.5 1052.5 c 128
 806.833333333 1040.16666667 819.333333333 1034 836 1034 c 2
 881 1034 l 1
 838 840 l 1
 680 840 l 2
 634.666666667 840 597.666666667 859 569 897 c 1
 548.333333333 927 538.333333333 959 539 993 c 0
 539 999.666666667 540.333333333 1012.66666667 543 1032 c 2
 618 1395 l 1
 1051 1395 l 2
 1107 1395 1150.66666667 1372.33333333 1182 1327 c 0
 1202.66666667 1298.33333333 1212.66666667 1262.33333333 1212 1219 c 0
 1212 1194.33333333 1210.66666667 1175.66666667 1208 1163 c 2
 1114 717 l 1
 633 420 l 1
 610 309 l 2
 608.666666667 299.666666667 608 287.333333333 608 272 c 256
 608 256.666666667 612.166666667 240.666666667 620.5 224 c 128
 628.833333333 207.333333333 645.333333333 199 670 199 c 2
 901 199 l 2
 929.666666667 199 955.333333333 207.5 978 224.5 c 128
 1000.66666667 241.5 1014.66666667 261 1020 283 c 2
 1049 420 l 1
 1272 420 l 1
 1249 309 l 2
 1247.66666667 302.333333333 1247 293.666666667 1247 283 c 0
 1247 265 1251.83333333 247.166666667 1261.5 229.5 c 128
 1271.16666667 211.833333333 1286.33333333 203 1307 203 c 2
 1540 203 l 2
 1570 203 1596.33333333 210.833333333 1619 226.5 c 128
 1641.66666667 242.166666667 1655.66666667 262.333333333 1661 287 c 2
 1722 582 l 2
 1723.33333333 588.666666667 1724 599.333333333 1724 614 c 0
 1724 633.333333333 1718.66666667 650.666666667 1708 666 c 0
 1691.33333333 690.666666667 1668 702.666666667 1638 702 c 2
 1362 702 l 1
 1405 899 l 1
 1749 899 l 1
 1810 1204 l 1
 1466 1204 l 1
 1509 1399 l 1
 1954 1399 l 1
 2034 1204 l 1
 1972 899 l 1
 2183 899 l 1
 2140 698 l 1
EndSplineSet
EndChar

StartChar: ca.imathra
Encoding: 140 -1 140
Width: 1943
Flags: HW
LayerCount: 2
Fore
SplineSet
2152 698 m 1
 1929 698 l 1
 1953.66666667 676 1966 650.333333333 1966 621 c 0
 1966 609 1965.33333333 599.333333333 1964 592 c 2
 1888 229 l 1
 1872.66666667 166.333333333 1845.66666667 113.833333333 1807 71.5 c 128
 1768.33333333 29.1666666667 1727 8 1683 8 c 2
 1225 8 l 2
 1189.66666667 8 1161 19 1139 41 c 1
 1113 61.6666666667 1100 87 1100 117 c 1
 1089.33333333 87 1064.83333333 61 1026.5 39 c 128
 988.166666667 17 948.333333333 6 907 6 c 2
 532 6 l 2
 478.666666667 6 438.5 22.6666666667 411.5 56 c 128
 384.5 89.3333333333 371 122 371 154 c 0
 371 160.666666667 372.333333333 171.333333333 375 186 c 2
 457 578 l 1
 930 829 l 1
 989 1110 l 2
 994.333333333 1140 989.5 1162.83333333 974.5 1178.5 c 128
 959.5 1194.16666667 937.666666667 1202 909 1202 c 2
 813 1202 l 1
 795 1108 l 1
 792.333333333 1086 796 1068.5 806 1055.5 c 128
 816 1042.5 830.666666667 1036 850 1036 c 2
 922 1036 l 1
 879 842 l 1
 696 842 l 2
 650.666666667 842 613.833333333 859.333333333 585.5 894 c 128
 557.166666667 928.666666667 546.333333333 966.666666667 553 1008 c 1
 635 1397 l 1
 1083 1397 l 2
 1137.66666667 1397 1179.33333333 1376.33333333 1208 1335 c 1
 1224.66666667 1303.66666667 1233 1269 1233 1231 c 0
 1233 1209 1231.66666667 1192 1229 1180 c 2
 1133 721 l 1
 655 453 l 1
 623 287 l 1
 620.333333333 262.333333333 624.333333333 242.333333333 635 227 c 1
 651.666666667 210.333333333 669.333333333 202.333333333 688 203 c 2
 893 203 l 2
 928.333333333 203 960.333333333 210.833333333 989 226.5 c 128
 1017.66666667 242.166666667 1034.66666667 262.333333333 1040 287 c 2
 1079 481 l 1
 1303 481 l 1
 1270 313 l 2
 1268.66666667 306.333333333 1268 297.666666667 1268 287 c 0
 1268 269 1272.66666667 251.166666667 1282 233.5 c 128
 1291.33333333 215.833333333 1306.33333333 207 1327 207 c 2
 1589 207 l 2
 1609.66666667 207 1628.83333333 214.833333333 1646.5 230.5 c 128
 1664.16666667 246.166666667 1675.66666667 266.333333333 1681 291 c 2
 1743 586 l 2
 1748.33333333 616 1744.5 641.833333333 1731.5 663.5 c 128
 1718.5 685.166666667 1697 699.666666667 1667 707 c 1
 1378 707 l 1
 1421 903 l 1
 1726 903 l 1
 1788.66666667 931.666666667 1825 968.666666667 1835 1014 c 2
 1911 1376 l 2
 1912.33333333 1385.33333333 1907.83333333 1391.83333333 1897.5 1395.5 c 128
 1887.16666667 1399.16666667 1869 1401 1843 1401 c 2
 1763 1401 l 2
 1752.33333333 1401 1743.66666667 1380.33333333 1737 1339 c 1
 1726 1292 l 2
 1724.66666667 1280 1730.5 1268.5 1743.5 1257.5 c 128
 1756.5 1246.5 1768.66666667 1241 1780 1241 c 2
 1853 1241 l 1
 1815 1044 l 1
 1618 1044 l 2
 1574 1044 1539 1061.33333333 1513 1096 c 0
 1493.66666667 1120.66666667 1484.33333333 1148 1485 1178 c 0
 1485 1193.33333333 1485.66666667 1204 1487 1210 c 2
 1534 1434 l 1
 1540.66666667 1482 1563.83333333 1522 1603.5 1554 c 128
 1643.16666667 1586 1685.66666667 1602 1731 1602 c 2
 1993 1602 l 2
 2047.66666667 1602 2087 1581.33333333 2111 1540 c 1
 2130.33333333 1515.33333333 2140 1485.33333333 2140 1450 c 0
 2140 1440.66666667 2138.66666667 1423 2136 1397 c 1
 2062 1044 l 2
 2050 986.666666667 2022 941 1978 907 c 1
 2202 907 l 1
 2152 698 l 1
EndSplineSet
LCarets2: 1 0
EndChar

StartChar: ca.sub
Encoding: 141 -1 141
Width: 380
Flags: HW
AnchorPoint: "Sub" -666 387 mark 0
AnchorPoint: "Sub" 489 -823 basemark 0
LayerCount: 2
Fore
SplineSet
696 -305 m 1
 539 -305 l 1
 569 -327 584 -358.333333333 584 -399 c 0
 584 -408.333333333 582.666666667 -424 580 -446 c 1
 541 -643 l 2
 530.333333333 -693.666666667 505.5 -736.333333333 466.5 -771 c 128
 427.5 -805.666666667 384 -823 336 -823 c 2
 55 -823 l 2
 1.66666666667 -823 -44 -808.666666667 -82 -780 c 1
 -116 -748.666666667 -133 -711.333333333 -133 -668 c 1
 -161.666666667 -717.333333333 -198.666666667 -756 -244 -784 c 1
 -293.333333333 -810 -341.666666667 -823 -389 -823 c 2
 -713 -823 l 1
 -766.333333333 -828.333333333 -812 -816.666666667 -850 -788 c 128
 -888 -759.333333333 -902.333333333 -726 -893 -688 c 2
 -854 -506 l 1
 -847.333333333 -465.333333333 -826.333333333 -429.666666667 -791 -399 c 1
 -769 -383.666666667 -750.166666667 -373 -734.5 -367 c 128
 -718.833333333 -361 -700 -358 -678 -358 c 2
 -539 -358 l 2
 -527 -358 -511 -353.333333333 -491 -344 c 128
 -471 -334.666666667 -461 -324.333333333 -461 -313 c 1
 -453 -276 l 2
 -451.666666667 -269.333333333 -453.333333333 -263.333333333 -458 -258 c 128
 -462.666666667 -252.666666667 -477.333333333 -250 -502 -250 c 2
 -782 -250 l 1
 -745 -84 l 1
 -401 -84 l 2
 -350.333333333 -84 -309.666666667 -95 -279 -117 c 1
 -249 -145.666666667 -237.333333333 -175 -244 -205 c 2
 -281 -387 l 1
 -291.666666667 -431 -317.5 -469.666666667 -358.5 -503 c 128
 -399.5 -536.333333333 -447.333333333 -553 -502 -553 c 2
 -625 -553 l 2
 -637 -553 -649.5 -556.666666667 -662.5 -564 c 128
 -675.5 -571.333333333 -682 -580.666666667 -682 -592 c 1
 -690 -621 l 1
 -690 -633 -686.666666667 -641.666666667 -680 -647 c 1
 -674.666666667 -656.333333333 -664.333333333 -661.333333333 -649 -662 c 2
 -395 -662 l 2
 -354.333333333 -662 -315.833333333 -647.166666667 -279.5 -617.5 c 128
 -243.166666667 -587.833333333 -220.333333333 -551.333333333 -211 -508 c 2
 -193 -412 l 1
 2 -412 l 1
 -23 -526 l 2
 -28.3333333333 -556 -20 -586 2 -616 c 1
 28 -646 52 -661.333333333 74 -662 c 2
 254 -662 l 2
 273.333333333 -662 292.333333333 -654.333333333 311 -639 c 1
 330.333333333 -619.666666667 340.666666667 -600 342 -580 c 1
 379 -412 l 2
 384.333333333 -382 379.666666667 -356.666666667 365 -336 c 1
 344.333333333 -314 319.666666667 -303 291 -303 c 2
 39 -303 l 1
 76 -137 l 1
 244 -137 l 1
 352 -48.3333333333 413.333333333 30.6666666667 428 100 c 2
 508 475 l 1
 709 475 l 1
 629 100 l 2
 609.666666667 16.6666666667 555.666666667 -62.3333333333 467 -137 c 1
 719 -137 l 1
 696 -305 l 1
EndSplineSet
LCarets2: 1 0
EndChar

StartChar: cha.base
Encoding: 143 -1 143
Width: 1421
Flags: HW
LayerCount: 2
Fore
SplineSet
1866 240 m 2
 1850.66666667 170.666666667 1816.33333333 115.333333333 1763 74 c 1
 1713.66666667 26 1657 2 1593 2 c 2
 1313 2 l 2
 1269 2 1230.33333333 15.6666666667 1197 43 c 128
 1163.66666667 70.3333333333 1147 103 1147 141 c 1
 1126.33333333 100.333333333 1096.16666667 67.3333333333 1056.5 42 c 128
 1016.83333333 16.6666666667 978 4 940 4 c 2
 635 4 l 2
 572.333333333 4 521 26 481 70 c 0
 453.666666667 101.333333333 440 136.666666667 440 176 c 0
 440 185.333333333 441.333333333 201 444 223 c 1
 635 1135 l 2
 645.666666667 1184.33333333 666.666666667 1229.33333333 698 1270 c 128
 729.333333333 1310.66666667 765 1340.66666667 805 1360 c 1
 845.666666667 1384.66666667 886.666666667 1397 928 1397 c 2
 1327 1397 l 1
 1251 1034 l 2
 1239 974 1211.16666667 922.166666667 1167.5 878.5 c 128
 1123.83333333 834.833333333 1077.33333333 813 1028 813 c 2
 870 813 l 1
 913 1010 l 1
 971 1010 l 1
 986.333333333 1011.33333333 1001.33333333 1018 1016 1030 c 1
 1026.66666667 1046.66666667 1034.66666667 1065.66666667 1040 1087 c 2
 1063 1198 l 1
 969 1198 l 2
 944.333333333 1198 919 1190 893 1174 c 1
 871 1153.33333333 857.333333333 1130.66666667 852 1106 c 2
 680 295 l 2
 674.666666667 266.333333333 678.166666667 242.166666667 690.5 222.5 c 128
 702.833333333 202.833333333 719 193 739 193 c 2
 926 193 l 2
 945.333333333 193 962 195.333333333 976 200 c 128
 990 204.666666667 1005.33333333 213 1022 225 c 0
 1050.66666667 247 1067.66666667 272.333333333 1073 301 c 2
 1102 440 l 1
 1325 440 l 1
 1296 301 l 2
 1290.66666667 272.333333333 1295.83333333 246.666666667 1311.5 224 c 128
 1327.16666667 201.333333333 1350 190 1380 190 c 2
 1546 190 l 2
 1574.66666667 190 1598.66666667 201 1618 223 c 128
 1637.33333333 245 1650.33333333 271 1657 301 c 2
 1823 1085 l 2
 1833.66666667 1138.33333333 1804.33333333 1173.33333333 1735 1190 c 1
 1454 1190 l 1
 1493 1384 l 1
 1798 1384 l 1
 1884 1373.33333333 1951.66666667 1339.33333333 2001 1282 c 1
 2032.33333333 1234 2048 1186.33333333 2048 1139 c 0
 2048 1114.33333333 2046.66666667 1096.33333333 2044 1085 c 2
 1866 240 l 2
1153 -342 m 1
 930 -342 l 1
 989 -66 l 1
 1212 -66 l 1
 1153 -342 l 1
EndSplineSet
EndChar

StartChar: cha.imathra
Encoding: 144 -1 144
Width: 1757
Flags: HW
LayerCount: 2
Fore
SplineSet
1866 240 m 2
 1850.66666667 170.666666667 1819.33333333 115.333333333 1772 74 c 1
 1726.66666667 26 1675.33333333 2 1618 2 c 2
 1313 2 l 2
 1269 2 1230.33333333 15.6666666667 1197 43 c 128
 1163.66666667 70.3333333333 1147 103 1147 141 c 1
 1125 100.333333333 1095.66666667 67.3333333333 1059 42 c 128
 1022.33333333 16.6666666667 983.333333333 4 942 4 c 2
 637 4 l 2
 574.333333333 4 523 26 483 70 c 0
 455.666666667 101.333333333 442 136.666666667 442 176 c 0
 442 185.333333333 443.333333333 201 446 223 c 1
 637 1135 l 2
 647.666666667 1184.33333333 668.833333333 1229.33333333 700.5 1270 c 128
 732.166666667 1310.66666667 767.666666667 1340.66666667 807 1360 c 1
 847.666666667 1384.66666667 888.666666667 1397 930 1397 c 2
 1329 1397 l 1
 1253 1034 l 2
 1241 974 1213.16666667 922.166666667 1169.5 878.5 c 128
 1125.83333333 834.833333333 1079.33333333 813 1030 813 c 2
 872 813 l 1
 915 1010 l 1
 973 1010 l 1
 989.666666667 1012.66666667 1003.33333333 1017.33333333 1014 1024 c 1
 1026 1036 1032.66666667 1047.66666667 1034 1059 c 2
 1063 1198 l 1
 969 1198 l 2
 944.333333333 1198 919 1190 893 1174 c 1
 871 1153.33333333 857.333333333 1130.66666667 852 1106 c 2
 680 295 l 2
 674.666666667 263.666666667 679.333333333 240.333333333 694 225 c 1
 709.333333333 204.333333333 730 194.333333333 756 195 c 2
 924 195 l 2
 943.333333333 195 960 197.333333333 974 202 c 128
 988 206.666666667 1003.33333333 215 1020 227 c 0
 1048.66666667 249 1065.66666667 274.333333333 1071 303 c 2
 1100 442 l 1
 1323 442 l 1
 1294 303 l 2
 1288.66666667 274.333333333 1293.83333333 248.833333333 1309.5 226.5 c 128
 1325.16666667 204.166666667 1348 193 1378 193 c 2
 1544 193 l 2
 1572.66666667 193 1596.66666667 203.833333333 1616 225.5 c 128
 1635.33333333 247.166666667 1648.33333333 273 1655 303 c 2
 1872 1331 l 2
 1873.33333333 1336.33333333 1874 1342.16666667 1874 1348.5 c 128
 1874 1358 1874 1358 1874 1360 c 0
 1874 1372 1871.33333333 1383 1866 1393 c 0
 1855.33333333 1409.66666667 1841.66666667 1417.66666667 1825 1417 c 2
 1743 1417 l 2
 1721 1417 1702.16666667 1409.5 1686.5 1394.5 c 128
 1670.83333333 1379.5 1662.33333333 1366 1661 1354 c 2
 1645 1268 l 1
 1639.66666667 1251.33333333 1642.33333333 1235 1653 1219 c 1
 1665 1207 1679.33333333 1200.66666667 1696 1200 c 2
 1761 1200 l 1
 1722 1006 l 1
 1585 1006 l 2
 1522.33333333 1006 1474 1025.66666667 1440 1065 c 0
 1414 1093.66666667 1401 1128.33333333 1401 1169 c 0
 1401 1179.66666667 1402.33333333 1194.66666667 1405 1214 c 2
 1444 1409 l 2
 1449.33333333 1437.66666667 1459.16666667 1464 1473.5 1488 c 128
 1487.83333333 1512 1507.33333333 1534 1532 1554 c 0
 1581.33333333 1593.33333333 1631 1613.33333333 1681 1614 c 2
 1950 1614 l 2
 1984 1614 2016.66666667 1603 2048 1581 c 1
 2060 1569 2070.83333333 1555.83333333 2080.5 1541.5 c 128
 2090.16666667 1527.16666667 2096.66666667 1508.66666667 2100 1486 c 128
 2103.33333333 1463.33333333 2105 1446 2105 1434 c 0
 2105 1412 2102.33333333 1388 2097 1362 c 2
 1866 240 l 2
1149 -334 m 1
 926 -334 l 1
 985 -57 l 1
 1208 -57 l 1
 1149 -334 l 1
EndSplineSet
LCarets2: 1 0
EndChar

StartChar: cha.sub
Encoding: 145 -1 145
Width: 305
Flags: HW
AnchorPoint: "Sub" -635 319 mark 0
AnchorPoint: "Sub" 481 -756 basemark 0
LayerCount: 2
Fore
SplineSet
524 -481 m 1
 507.333333333 -563 477.666666667 -632 435 -688 c 128
 392.333333333 -744 350.333333333 -772 309 -772 c 2
 63 -772 l 2
 12.3333333333 -772 -27.5 -759.333333333 -56.5 -734 c 128
 -85.5 -708.666666667 -100 -675.666666667 -100 -635 c 1
 -119.333333333 -674.333333333 -148.166666667 -707.333333333 -186.5 -734 c 128
 -224.833333333 -760.666666667 -263.666666667 -774 -303 -774 c 2
 -580 -774 l 1
 -590 -770 l 1
 -638 -770 -674.666666667 -749.666666667 -700 -709 c 1
 -719.333333333 -683 -729 -652 -729 -616 c 0
 -729 -605.333333333 -727.666666667 -589 -725 -567 c 1
 -680 -344 l 1
 -664.666666667 -284 -635.166666667 -234.166666667 -591.5 -194.5 c 128
 -547.833333333 -154.833333333 -498.666666667 -135 -444 -135 c 2
 -211 -135 l 1
 -252 -330 l 1
 -432 -330 l 2
 -447.333333333 -330 -460.333333333 -337.333333333 -471 -352 c 1
 -486.333333333 -364 -495.333333333 -380.333333333 -498 -401 c 2
 -522 -524 l 1
 -527.333333333 -543.333333333 -525.666666667 -560.166666667 -517 -574.5 c 128
 -508.333333333 -588.833333333 -498.333333333 -596 -487 -596 c 2
 -287 -596 l 2
 -258.333333333 -596 -232 -582.666666667 -208 -556 c 128
 -184 -529.333333333 -167.333333333 -496.333333333 -158 -457 c 2
 -143 -389 l 1
 39 -389 l 1
 23 -469 l 2
 20.3333333333 -487 18.6666666667 -498.666666667 18 -504 c 0
 18 -520.666666667 23.5 -539.833333333 34.5 -561.5 c 128
 45.5 -583.166666667 65.3333333333 -594 94 -594 c 2
 233 -594 l 2
 259 -594 284.333333333 -583.666666667 309 -563 c 128
 333.666666667 -542.333333333 349.333333333 -516.333333333 356 -485 c 2
 446 -51 l 2
 451.333333333 -25 454.333333333 -1.33333333333 455 20 c 0
 455 60.6666666667 446.666666667 98.3333333333 430 133 c 0
 405.333333333 186.333333333 363 218.333333333 303 229 c 1
 406 397 l 1
 468.666666667 381.666666667 515.666666667 353.666666667 547 313 c 1
 586.333333333 272.333333333 611.666666667 218.666666667 623 152 c 0
 628.333333333 118 631 83.6666666667 631 49 c 0
 631 37 630.666666667 23.5 630 8.5 c 128
 629.333333333 -6.5 626.333333333 -28.3333333333 621 -57 c 2
 524 -481 l 1
-63 -918 m 1
 -260 -918 l 1
 -242 -823 l 1
 -117 -700 l 1
 -45 -823 l 1
 -63 -918 l 1
EndSplineSet
LCarets2: 1 0
EndChar

StartChar: ja
Encoding: 146 3228 146
Width: 1808
Flags: HW
LayerCount: 2
Fore
SplineSet
1919 223 m 1
 1907 177.666666667 1890 139.333333333 1868 108 c 128
 1846 76.6666666667 1816.5 51.1666666667 1779.5 31.5 c 128
 1742.5 11.8333333333 1708.33333333 2 1677 2 c 2
 1247 2 l 2
 1211.66666667 2 1183 14.3333333333 1161 39 c 1
 1135 61 1122 90.3333333333 1122 127 c 1
 1115.33333333 109 1106.83333333 92.8333333333 1096.5 78.5 c 128
 1086.16666667 64.1666666667 1073 51 1057 39 c 0
 1027 14.3333333333 994 2 958 2 c 2
 530 2 l 2
 471.333333333 2 425 21 391 59 c 0
 366.333333333 85 354 118 354 158 c 0
 354 173.333333333 354.666666667 185.666666667 356 195 c 2
 432 547 l 1
 920 780 l 1
 970.666666667 819.333333333 1000.66666667 857 1010 893 c 1
 1049 1087 l 2
 1054.33333333 1117 1048.66666667 1143 1032 1165 c 1
 1007.33333333 1185.66666667 980 1196 950 1196 c 2
 821 1196 l 1
 797 1073 l 1
 795.666666667 1053.66666667 822.333333333 1044 877 1044 c 2
 930 1044 l 1
 885 834 l 1
 719 834 l 2
 668.333333333 834 627.333333333 853 596 891 c 1
 574 922.333333333 563 955 563 989 c 0
 563 994.333333333 564.333333333 1006.66666667 567 1026 c 2
 643 1389 l 1
 1081 1389 l 2
 1129 1389 1170.33333333 1380 1205 1362 c 128
 1239.66666667 1344 1264.66666667 1320 1280 1290 c 1
 1292 1270.66666667 1298 1249 1298 1225 c 0
 1298 1218.33333333 1296.66666667 1205.33333333 1294 1186 c 1
 1333.33333333 1119.33333333 1378.66666667 1085.66666667 1430 1085 c 2
 1710 1085 l 2
 1726.66666667 1085 1742.83333333 1091.16666667 1758.5 1103.5 c 128
 1774.16666667 1115.83333333 1782.66666667 1127.66666667 1784 1139 c 2
 1792 1184 l 2
 1797.33333333 1210 1787 1223 1761 1223 c 2
 1718 1223 l 1
 1761 1417 l 1
 1862 1417 l 2
 1900 1417 1932 1409 1958 1393 c 1
 1989.33333333 1376.33333333 2007.66666667 1352.33333333 2013 1321 c 1
 2022.33333333 1299 2027.33333333 1278.66666667 2028 1260 c 0
 2028 1250.66666667 2026.33333333 1236.33333333 2023 1217 c 1
 1995 1087 l 2
 1984.33333333 1033.66666667 1956 988 1910 950 c 128
 1864 912 1814.33333333 893 1761 893 c 2
 1415 893 l 2
 1352.33333333 893 1296.33333333 920.333333333 1247 975 c 1
 1214 823 l 2
 1198.66666667 755 1160 699 1098 655 c 1
 631 432 l 1
 602 295 l 2
 596.666666667 263.666666667 601.333333333 240.333333333 616 225 c 1
 631.333333333 204.333333333 652 194.333333333 678 195 c 2
 930 195 l 2
 956 195 979.833333333 205.166666667 1001.5 225.5 c 128
 1023.16666667 245.833333333 1039 271.666666667 1049 303 c 1
 1065 389 l 1
 1288 389 l 1
 1274 322 l 2
 1268.66666667 290.666666667 1274 262 1290 236 c 1
 1316 210 1343.33333333 197 1372 197 c 2
 1577 197 l 2
 1608.33333333 197 1637.66666667 210.666666667 1665 238 c 128
 1692.33333333 265.333333333 1708.66666667 294 1714 324 c 2
 1751 504 l 2
 1756.33333333 530 1751.83333333 550.166666667 1737.5 564.5 c 128
 1723.16666667 578.833333333 1703 586 1677 586 c 2
 1548 586 l 1
 1587 780 l 1
 1855 780 l 2
 1903 780 1940 757.666666667 1966 713 c 1
 1982.66666667 681.666666667 1991 646.666666667 1991 608 c 0
 1991 596 1989.66666667 577 1987 551 c 1
 1919 223 l 1
EndSplineSet
LCarets2: 1 0
EndChar

StartChar: ja.base
Encoding: 147 -1 147
Width: 1472
Flags: HW
LayerCount: 2
Fore
SplineSet
1929 252 m 2
 1922.33333333 218 1911.16666667 186.666666667 1895.5 158 c 128
 1879.83333333 129.333333333 1857.66666667 102 1829 76 c 0
 1774.33333333 26.6666666667 1717 2 1657 2 c 2
 1251 2 l 1
 1215.66666667 4.66666666667 1190.16666667 14.8333333333 1174.5 32.5 c 128
 1158.83333333 50.1666666667 1148 65.5 1142 78.5 c 128
 1136 91.5 1133 107 1133 125 c 1
 1121 91 1096.5 61.3333333333 1059.5 36 c 128
 1022.5 10.6666666667 982 -2 938 -2 c 2
 532 -2 l 2
 476 -2 432.333333333 17 401 55 c 1
 376.333333333 81 364.333333333 114 365 154 c 0
 365 169.333333333 365.666666667 181.333333333 367 190 c 2
 442 543 l 1
 895 776 l 1
 930.333333333 804.666666667 954.333333333 825.333333333 967 838 c 0
 1001 873.333333333 1021.33333333 908 1028 942 c 2
 1057 1081 l 2
 1058.33333333 1087.66666667 1059 1096.66666667 1059 1108 c 0
 1059 1127.33333333 1054 1144.33333333 1044 1159 c 1
 1027.33333333 1179.66666667 1006.33333333 1190 981 1190 c 2
 829 1190 l 1
 815 1122 l 2
 809.666666667 1101.33333333 812.166666667 1082.5 822.5 1065.5 c 128
 832.833333333 1048.5 843.333333333 1040 854 1040 c 2
 907 1040 l 1
 862 829 l 1
 725 829 l 2
 674.333333333 829 633.333333333 848.333333333 602 887 c 1
 580 918.333333333 569 951 569 985 c 0
 569 990.333333333 570.333333333 1002.66666667 573 1022 c 2
 649 1384 l 1
 1081 1384 l 2
 1126.33333333 1384 1167.5 1374.16666667 1204.5 1354.5 c 128
 1241.5 1334.83333333 1268 1306 1284 1268 c 0
 1293.33333333 1243.33333333 1298 1220 1298 1198 c 0
 1298 1191.33333333 1296.66666667 1177 1294 1155 c 1
 1329.33333333 1107 1365 1083 1401 1083 c 2
 1669 1083 l 2
 1685.66666667 1083 1701.16666667 1090.16666667 1715.5 1104.5 c 128
 1729.83333333 1118.83333333 1737.66666667 1135.66666667 1739 1155 c 1
 1747 1194 l 1
 1438 1194 l 1
 1481 1389 l 1
 1796 1389 l 2
 1856 1389 1903 1371 1937 1335 c 0
 1961.66666667 1309 1974 1277 1974 1239 c 0
 1974 1229.66666667 1972.66666667 1215.33333333 1970 1196 c 2
 1948 1085 l 2
 1937.33333333 1030.33333333 1908 984.666666667 1860 948 c 128
 1812 911.333333333 1762.66666667 893 1712 893 c 2
 1417 893 l 2
 1359.66666667 893 1305.66666667 920.333333333 1255 975 c 1
 1231 852 l 2
 1220.33333333 801.333333333 1171 746 1083 686 c 1
 641 434 l 1
 612 297 l 2
 606.666666667 268.333333333 611.666666667 244.333333333 627 225 c 1
 637.666666667 204.333333333 656 194.333333333 682 195 c 2
 934 195 l 2
 962.666666667 195 988 205.666666667 1010 227 c 1
 1032 245 1047.66666667 269.666666667 1057 301 c 1
 1073 387 l 1
 1296 387 l 1
 1282 319 l 2
 1280.66666667 309.666666667 1280 297 1280 281 c 0
 1280 261.666666667 1283.33333333 245.666666667 1290 233 c 0
 1306.66666667 207 1325.33333333 194.333333333 1346 195 c 2
 1585 195 l 2
 1616.33333333 195 1644.66666667 205.833333333 1670 227.5 c 128
 1695.33333333 249.166666667 1711.33333333 275 1718 305 c 2
 1763 520 l 1
 1764.33333333 538 1757.5 553.166666667 1742.5 565.5 c 128
 1727.5 577.833333333 1705.66666667 584 1677 584 c 2
 1554 584 l 1
 1593 778 l 1
 1845 778 l 2
 1902.33333333 778 1945.33333333 758.333333333 1974 719 c 0
 1993.33333333 694.333333333 2003 664.333333333 2003 629 c 0
 2003 619.666666667 2001.66666667 601.666666667 1999 575 c 1
 1929 252 l 2
EndSplineSet
EndChar

StartChar: ja.imathra
Encoding: 148 -1 148
Width: 1830
Flags: HW
LayerCount: 2
Fore
SplineSet
1939 223 m 1
 1923.66666667 160.333333333 1889.83333333 107.833333333 1837.5 65.5 c 128
 1785.16666667 23.1666666667 1729 2 1669 2 c 2
 1235 2 l 2
 1203.66666667 2 1177 14.3333333333 1155 39 c 1
 1129 61 1116 90.3333333333 1116 127 c 1
 1109.33333333 109 1100.83333333 92.8333333333 1090.5 78.5 c 128
 1080.16666667 64.1666666667 1067 51 1051 39 c 0
 1019.66666667 14.3333333333 986.666666667 2 952 2 c 2
 547 2 l 2
 484.333333333 2 433.666666667 24 395 68 c 0
 369 96.6666666667 356 132.666666667 356 176 c 0
 356 185.333333333 357.333333333 201 360 223 c 1
 422 520 l 1
 940 809 l 1
 974 840.333333333 996 876.666666667 1006 918 c 2
 1044 1104 l 2
 1045.33333333 1109.33333333 1046.16666667 1115 1046.5 1121 c 128
 1046.83333333 1127 1047 1131 1047 1133 c 0
 1047 1148.33333333 1042.83333333 1162.33333333 1034.5 1175 c 128
 1026.16666667 1187.66666667 1009 1194 983 1194 c 2
 815 1194 l 1
 797 1100 l 1
 797 1080.66666667 800.666666667 1066.16666667 808 1056.5 c 128
 815.333333333 1046.83333333 826.666666667 1042 842 1042 c 2
 895 1042 l 1
 850 831 l 1
 713 831 l 2
 663.666666667 831 623.333333333 850.333333333 592 889 c 0
 567.333333333 919 555 951.666666667 555 987 c 0
 555 992.333333333 556.333333333 1004.66666667 559 1024 c 2
 635 1386 l 1
 1067 1386 l 2
 1139.66666667 1386 1198.16666667 1369 1242.5 1335 c 128
 1286.83333333 1301 1304 1259.33333333 1294 1210 c 1
 1363.33333333 1172 1433 1153 1503 1153 c 2
 1589 1153 l 1
 1647 1415 l 1
 1657.66666667 1472.33333333 1685.16666667 1519.16666667 1729.5 1555.5 c 128
 1773.83333333 1591.83333333 1822.66666667 1610 1876 1610 c 2
 2015 1610 l 2
 2073.66666667 1610 2115.33333333 1588 2140 1544 c 1
 2159.33333333 1518 2169 1485.33333333 2169 1446 c 0
 2169 1435.33333333 2167.66666667 1417 2165 1391 c 1
 2118 1167 l 1
 2102.66666667 1104.33333333 2068.66666667 1051.5 2016 1008.5 c 128
 1963.33333333 965.5 1907.66666667 944 1849 944 c 2
 1497 944 l 2
 1400.33333333 944 1317 963 1247 1001 c 1
 1210 834 l 1
 1199.33333333 775.333333333 1173.66666667 735 1133 713 c 2
 627 432 l 1
 596 279 l 2
 590.666666667 258.333333333 594.166666667 239.166666667 606.5 221.5 c 128
 618.833333333 203.833333333 635.666666667 195 657 195 c 2
 920 195 l 2
 946 195 971.166666667 204.5 995.5 223.5 c 128
 1019.83333333 242.5 1034.66666667 267 1040 297 c 2
 1059 391 l 1
 1282 391 l 1
 1268 324 l 2
 1266.66666667 314.666666667 1266 301.666666667 1266 285 c 0
 1266 265.666666667 1269.33333333 250 1276 238 c 0
 1292.66666667 212 1311 199 1331 199 c 2
 1612 199 l 2
 1627.33333333 199 1641 201.333333333 1653 206 c 128
 1665 210.666666667 1677.33333333 219 1690 231 c 0
 1712 253 1726.33333333 278.333333333 1733 307 c 2
 1772 494 l 2
 1777.33333333 520 1771.66666667 542.333333333 1755 561 c 1
 1734.33333333 577.666666667 1709.66666667 586 1681 586 c 2
 1542 586 l 1
 1581 780 l 1
 1833 780 l 2
 1873.66666667 780 1909.83333333 770.166666667 1941.5 750.5 c 128
 1973.16666667 730.833333333 1992.33333333 706.666666667 1999 678 c 1
 2008.33333333 661.333333333 2013 640.666666667 2013 616 c 0
 2013 599.333333333 2012.33333333 586.666666667 2011 578 c 2
 1939 223 l 1
1925 1233 m 1
 1956 1372 l 1
 1961.33333333 1407.33333333 1949.66666667 1425 1921 1425 c 2
 1884 1425 l 2
 1867.33333333 1425 1853.66666667 1419.66666667 1843 1409 c 1
 1831 1402.33333333 1823.66666667 1390.66666667 1821 1374 c 2
 1774 1149 l 1
 1860 1149 l 2
 1875.33333333 1149 1890.33333333 1157.5 1905 1174.5 c 128
 1919.66666667 1191.5 1926.33333333 1211 1925 1233 c 1
EndSplineSet
LCarets2: 1 0
EndChar

StartChar: ja.sub
Encoding: 149 -1 149
Width: 368
Flags: HW
AnchorPoint: "Sub" -758 -16 mark 0
AnchorPoint: "Sub" 586 -829 basemark 0
LayerCount: 2
Fore
SplineSet
678 -233 m 1
 667.333333333 -286.333333333 642 -328.666666667 602 -360 c 1
 564 -395.333333333 520.333333333 -413.333333333 471 -414 c 2
 53 -414 l 2
 -45 -414 -137 -362.666666667 -223 -260 c 1
 -113 -137 l 1
 -16.3333333333 -211 44.6666666667 -248 70 -248 c 2
 403 -248 l 2
 425 -248 443.666666667 -241.666666667 459 -229 c 1
 471 -222.333333333 480.333333333 -211 487 -195 c 1
 504 -113 l 2
 509.333333333 -87 496.333333333 -59.6666666667 465 -31 c 1
 598 84 l 1
 666 26.6666666667 700 -30.6666666667 700 -88 c 0
 700 -98.6666666667 699.333333333 -107 698 -113 c 2
 678 -233 l 1
610 -627 m 1
 599.333333333 -684.333333333 573.5 -733.833333333 532.5 -775.5 c 128
 491.5 -817.166666667 447 -838 399 -838 c 2
 66 -838 l 2
 22 -838 -16.3333333333 -823.666666667 -49 -795 c 128
 -81.6666666667 -766.333333333 -98 -734 -98 -698 c 1
 -162 -790.666666667 -235 -837.333333333 -317 -838 c 2
 -709 -838 l 2
 -763.666666667 -838 -808 -823 -842 -793 c 0
 -866.666666667 -771 -879 -745 -879 -715 c 0
 -879 -703 -878.333333333 -693.333333333 -877 -686 c 2
 -846 -539 l 2
 -835.333333333 -491 -812.666666667 -451.333333333 -778 -420 c 1
 -737.333333333 -388.666666667 -697.666666667 -373 -659 -373 c 2
 -520 -373 l 2
 -508 -373 -494.833333333 -368.166666667 -480.5 -358.5 c 128
 -466.166666667 -348.833333333 -459 -338.666666667 -459 -328 c 1
 -451 -291 l 2
 -445.666666667 -271.666666667 -455.666666667 -262 -481 -262 c 2
 -762 -262 l 1
 -723 -76 l 1
 -389 -76 l 2
 -339.666666667 -76 -300 -91 -270 -121 c 1
 -252 -149.666666667 -243.333333333 -177 -244 -203 c 0
 -244 -215 -244.666666667 -223.666666667 -246 -229 c 2
 -283 -410 l 1
 -292.333333333 -444 -314 -473.666666667 -348 -499 c 128
 -382 -524.333333333 -419.666666667 -537 -461 -537 c 2
 -600 -537 l 2
 -638 -537 -658.666666667 -549 -662 -573 c 1
 -676 -631 l 1
 -676 -641.666666667 -671.833333333 -651.166666667 -663.5 -659.5 c 128
 -655.166666667 -667.833333333 -643.666666667 -672 -629 -672 c 2
 -324 -672 l 2
 -292.666666667 -672 -262.166666667 -660 -232.5 -636 c 128
 -202.833333333 -612 -183.333333333 -581 -174 -543 c 2
 -160 -477 l 1
 37 -477 l 1
 23 -543 l 2
 21.6666666667 -549.666666667 20.6666666667 -559 20 -571 c 0
 20 -590.333333333 29 -611.333333333 47 -634 c 128
 65 -656.666666667 89.6666666667 -668 121 -668 c 2
 346 -668 l 2
 358 -668 370.5 -663.166666667 383.5 -653.5 c 128
 396.5 -643.833333333 404 -630.666666667 406 -614 c 1
 436 -475 l 1
 633 -475 l 1
 610 -627 l 1
EndSplineSet
LCarets2: 1 0
EndChar

StartChar: jha.sub
Encoding: 154 -1 154
Width: 403
Flags: HW
AnchorPoint: "Sub" -821 -76 mark 0
AnchorPoint: "Sub" 631 -784 basemark 0
LayerCount: 2
Fore
SplineSet
702 -541 m 1
 686.666666667 -607.666666667 652.666666667 -663.666666667 600 -709 c 1
 550.666666667 -757 494 -780.666666667 430 -780 c 2
 236 -780 l 2
 192 -780 161.666666667 -756.333333333 145 -709 c 1
 109.666666667 -757 58.6666666667 -780.666666667 -8 -780 c 2
 -176 -780 l 2
 -216.666666667 -780 -249.333333333 -762.333333333 -274 -727 c 1
 -309.333333333 -762.333333333 -356 -780 -414 -780 c 2
 -719 -780 l 2
 -787 -780 -838.666666667 -756.333333333 -874 -709 c 0
 -898.666666667 -677.666666667 -911 -638 -911 -590 c 0
 -911 -580.666666667 -909.666666667 -565 -907 -543 c 1
 -854 -283 l 2
 -842 -223 -806.5 -171 -747.5 -127 c 128
 -688.5 -83 -625 -61 -557 -61 c 2
 -305 -61 l 2
 -238.333333333 -61 -185 -83.6666666667 -145 -129 c 1
 -117.666666667 -163 -104 -202 -104 -246 c 0
 -104 -255.333333333 -105.666666667 -271 -109 -293 c 1
 -160 -532 l 1
 -162.666666667 -554 -156.833333333 -572.833333333 -142.5 -588.5 c 128
 -128.166666667 -604.166666667 -110.666666667 -612 -90 -612 c 2
 -8 -612 l 2
 8.66666666667 -612 24.6666666667 -604.833333333 40 -590.5 c 128
 55.3333333333 -576.166666667 66 -559 72 -539 c 2
 117 -315 l 1
 123.666666667 -289 116.833333333 -262.833333333 96.5 -236.5 c 128
 76.1666666667 -210.166666667 48 -191.333333333 12 -180 c 1
 166 -57 l 1
 224.666666667 -77.6666666667 265.333333333 -108.5 288 -149.5 c 128
 310.666666667 -190.5 322 -228 322 -262 c 0
 322 -271.333333333 320.333333333 -285.666666667 317 -305 c 2
 266 -557 l 1
 260.666666667 -572.333333333 263.166666667 -585.333333333 273.5 -596 c 128
 283.833333333 -606.666666667 294.333333333 -612 305 -612 c 2
 408 -612 l 2
 432.666666667 -612 453.666666667 -604.666666667 471 -590 c 1
 493 -564 504.666666667 -544.666666667 506 -532 c 2
 549 -336 l 1
 551.666666667 -302 542 -270 520 -240 c 1
 490 -208.666666667 454.666666667 -186.666666667 414 -174 c 1
 561 -63 l 1
 627.666666667 -87.6666666667 678.333333333 -122 713 -166 c 1
 739 -204 752 -240 752 -274 c 0
 752 -283.333333333 750.666666667 -295.666666667 748 -311 c 2
 702 -541 l 1
207 -844 m 1
 10 -844 l 1
 14 -815 l 1
 127 -762 l 1
 209 -815 l 1
 207 -844 l 1
-354 -520 m 2
 -317 -340 l 2
 -311.666666667 -310 -316.833333333 -284 -332.5 -262 c 128
 -348.166666667 -240 -371.666666667 -229 -403 -229 c 2
 -561 -229 l 2
 -587 -229 -611 -238 -633 -256 c 128
 -655 -274 -668.666666667 -296 -674 -322 c 2
 -713 -518 l 2
 -718.333333333 -546.666666667 -712.5 -570.5 -695.5 -589.5 c 128
 -678.5 -608.5 -655 -618 -625 -618 c 2
 -473 -618 l 2
 -445.666666667 -618 -420 -608.166666667 -396 -588.5 c 128
 -372 -568.833333333 -358 -546 -354 -520 c 2
EndSplineSet
LCarets2: 1 0
EndChar

StartChar: jha.part
Encoding: 155 -1 155
Width: 839
Flags: HW
LayerCount: 2
Fore
SplineSet
954 268 m 1
 937.333333333 195.333333333 902.166666667 132.5 848.5 79.5 c 128
 794.833333333 26.5 736.666666667 0 674 0 c 2
 340 0 l 2
 236 0 150 70.3333333333 82 211 c 1
 150 530 l 1
 176 427.333333333 217.333333333 346.333333333 274 287 c 1
 334 227 396.333333333 197 461 197 c 2
 584 197 l 2
 623.333333333 197 656 210 682 236 c 0
 698.666666667 251.333333333 711 266.333333333 719 281 c 128
 727 295.666666667 733.666666667 313.333333333 739 334 c 2
 897 1079 l 2
 898.333333333 1084.33333333 899 1090.16666667 899 1096.5 c 128
 899 1106 899 1106 899 1108 c 0
 899 1128.66666667 894.333333333 1146.33333333 885 1161 c 1
 865.666666667 1185.66666667 841 1198 811 1198 c 2
 559 1198 l 1
 602 1393 l 1
 922 1393 l 2
 996 1393 1052.66666667 1363 1092 1303 c 1
 1116.66666667 1262.33333333 1128.66666667 1214.33333333 1128 1159 c 0
 1128 1134.33333333 1125.33333333 1107.66666667 1120 1079 c 2
 954 268 l 1
809 -393 m 1
 584 -393 l 1
 643 -113 l 1
 868 -113 l 1
 809 -393 l 1
EndSplineSet
EndChar

StartChar: nya
Encoding: 157 3230 157
Width: 2260
Flags: HW
LayerCount: 2
Fore
SplineSet
2542 997 m 1
 2531.33333333 942.333333333 2505.33333333 893.166666667 2464 849.5 c 128
 2422.66666667 805.833333333 2377.66666667 784 2329 784 c 2
 2189 784 l 1
 2230 981 l 1
 2259 981 l 2
 2294.33333333 981 2317.66666667 1008.33333333 2329 1063 c 2
 2345 1145 l 2
 2351.66666667 1183 2327.66666667 1202 2273 1202 c 2
 2173 1202 l 2
 2141.66666667 1202 2111.33333333 1188.66666667 2082 1162 c 128
 2052.66666667 1135.33333333 2033 1102.33333333 2023 1063 c 2
 1958 758 l 2
 1946 699.333333333 1923.16666667 643.333333333 1889.5 590 c 128
 1855.83333333 536.666666667 1809.66666667 486 1751 438 c 1
 1720 285 l 2
 1714.66666667 264.333333333 1719.16666667 245.166666667 1733.5 227.5 c 128
 1747.83333333 209.833333333 1764.66666667 201 1784 201 c 2
 1870 201 l 1
 1831 6 l 1
 1663 6 l 2
 1603 6 1556 28 1522 72 c 0
 1497.33333333 102 1485 137.333333333 1485 178 c 0
 1485 187.333333333 1486.33333333 203 1489 225 c 1
 1518 365 l 1
 1298 365 l 2
 1243.33333333 365 1201 382.666666667 1171 418 c 1
 1149 449.333333333 1138.33333333 480 1139 510 c 0
 1139 516.666666667 1140.33333333 527.666666667 1143 543 c 2
 1174 694 l 2
 1180.66666667 732 1203.66666667 765.666666667 1243 795 c 1
 1287 821 1331.33333333 834 1376 834 c 2
 1616 834 l 2
 1642 834 1665.83333333 823 1687.5 801 c 128
 1709.16666667 779 1723 749 1729 711 c 1
 1810 1102 l 2
 1815.33333333 1132 1807.83333333 1154.83333333 1787.5 1170.5 c 128
 1767.16666667 1186.16666667 1739.33333333 1194 1704 1194 c 2
 1581 1194 l 2
 1543 1194 1507.83333333 1182 1475.5 1158 c 128
 1443.16666667 1134 1424.33333333 1109 1419 1083 c 2
 1391 944 l 1
 1167 944 l 1
 1192 1073 l 2
 1198.66666667 1104.33333333 1191.16666667 1132.33333333 1169.5 1157 c 128
 1147.83333333 1181.66666667 1117 1194 1077 1194 c 2
 895 1194 l 2
 879.666666667 1194 863.166666667 1186.83333333 845.5 1172.5 c 128
 827.833333333 1158.16666667 816.333333333 1138 811 1112 c 2
 782 973 l 2
 779.333333333 953.666666667 782.833333333 935.166666667 792.5 917.5 c 128
 802.166666667 899.833333333 816.666666667 891 836 891 c 2
 907 891 l 1
 860 666 l 1
 702 666 l 2
 648.666666667 666 606.333333333 689.666666667 575 737 c 0
 554.333333333 768.333333333 544.333333333 804.666666667 545 846 c 0
 545 870.666666667 546.333333333 889 549 901 c 2
 602 1163 l 1
 617.333333333 1225.66666667 649.333333333 1277.66666667 698 1319 c 1
 743.333333333 1363 795.333333333 1384.66666667 854 1384 c 2
 1180 1384 l 2
 1229.33333333 1384 1269.33333333 1371.33333333 1300 1346 c 0
 1312 1336.66666667 1321.16666667 1323.33333333 1327.5 1306 c 128
 1333.83333333 1288.66666667 1337 1269 1337 1247 c 1
 1367 1291 1401.33333333 1324 1440 1346 c 1
 1478 1372 1519 1384.66666667 1563 1384 c 2
 1825 1384 l 2
 1860.33333333 1384 1890.66666667 1372.16666667 1916 1348.5 c 128
 1941.33333333 1324.83333333 1957.33333333 1296 1964 1262 c 1
 1986 1300 2015.33333333 1329.83333333 2052 1351.5 c 128
 2088.66666667 1373.16666667 2127.66666667 1384 2169 1384 c 2
 2431 1384 l 2
 2480.33333333 1384 2519.33333333 1364.33333333 2548 1325 c 0
 2567.33333333 1299 2576.66666667 1267 2576 1229 c 0
 2576 1208.33333333 2574.66666667 1192.66666667 2572 1182 c 2
 2542 997 l 1
1550 578 m 1
 1552.66666667 594.666666667 1546.16666667 608 1530.5 618 c 128
 1514.83333333 628 1492.66666667 633 1464 633 c 2
 1378 633 l 2
 1353.33333333 633 1340.33333333 629.666666667 1339 623 c 2
 1335 594 l 2
 1332.33333333 582 1337.33333333 572.333333333 1350 565 c 1
 1359.33333333 555.666666667 1371.33333333 551 1386 551 c 2
 1473 551 l 2
 1483.66666667 551 1509.33333333 560 1550 578 c 1
EndSplineSet
LCarets2: 1 0
EndChar

